M48
; DRILL file {KiCad (5.1.4)-1} date 21.09.2019 23:44:49
; FORMAT={-:-/ absolute / inch / decimal}
; #@! TF.CreationDate,2019-09-21T23:44:49+03:00
; #@! TF.GenerationSoftware,Kicad,Pcbnew,(5.1.4)-1
; #@! TF.FileFunction,Plated,1,2,PTH
FMAT,2
INCH
T1C0.0157
T2C0.0236
T3C0.0394
%
G90
G05
T1
X4.6783Y-3.9716
X4.7151Y-3.9513
X4.7525Y-3.6574
X4.8435Y-3.9858
X4.8499Y-4.0429
X4.8675Y-4.1418
X4.9288Y-3.7914
X4.947Y-3.7498
X5.0463Y-4.1409
X5.0912Y-4.179
X5.161Y-4.1558
X5.4611Y-3.8
X5.4611Y-4.11
T2
X5.6115Y-3.7716
T3
X4.88Y-3.46
X4.98Y-3.46
X5.08Y-3.46
X5.18Y-3.46
X4.445Y-4.015
X4.445Y-4.115
X4.445Y-4.215
X4.545Y-4.015
X4.545Y-4.115
X4.545Y-4.215
X5.45Y-3.46
X5.55Y-3.46
X5.65Y-3.46
X5.75Y-3.46
X4.88Y-4.4
X4.98Y-4.4
X5.08Y-4.4
X5.18Y-4.4
X5.28Y-4.4
X5.38Y-4.4
X5.48Y-4.4
X5.58Y-4.4
X5.68Y-4.4
X4.445Y-3.7
X4.445Y-3.8
T0
M30
