G04 #@! TF.GenerationSoftware,KiCad,Pcbnew,(5.1.4)-1*
G04 #@! TF.CreationDate,2019-09-21T23:44:47+03:00*
G04 #@! TF.ProjectId,Project_3_BACEE,50726f6a-6563-4745-9f33-5f4241434545,v1.0*
G04 #@! TF.SameCoordinates,Original*
G04 #@! TF.FileFunction,Copper,L2,Bot*
G04 #@! TF.FilePolarity,Positive*
%FSLAX46Y46*%
G04 Gerber Fmt 4.6, Leading zero omitted, Abs format (unit mm)*
G04 Created by KiCad (PCBNEW (5.1.4)-1) date 2019-09-21 23:44:47*
%MOMM*%
%LPD*%
G04 APERTURE LIST*
%ADD10R,1.700000X1.700000*%
%ADD11O,1.700000X1.700000*%
%ADD12C,1.000000*%
%ADD13C,0.800000*%
%ADD14C,0.300000*%
%ADD15C,0.250000*%
%ADD16C,0.254000*%
G04 APERTURE END LIST*
D10*
X112903000Y-93980000D03*
D11*
X112903000Y-96520000D03*
D10*
X123952000Y-111760000D03*
D11*
X126492000Y-111760000D03*
X129032000Y-111760000D03*
X131572000Y-111760000D03*
X134112000Y-111760000D03*
X136652000Y-111760000D03*
X139192000Y-111760000D03*
X141732000Y-111760000D03*
X144272000Y-111760000D03*
X131572000Y-87884000D03*
X129032000Y-87884000D03*
X126492000Y-87884000D03*
D10*
X123952000Y-87884000D03*
X115443000Y-101981000D03*
D11*
X112903000Y-101981000D03*
X115443000Y-104521000D03*
X112903000Y-104521000D03*
X115443000Y-107061000D03*
X112903000Y-107061000D03*
D10*
X138430000Y-87884000D03*
D11*
X140970000Y-87884000D03*
X143510000Y-87884000D03*
X146050000Y-87884000D03*
D12*
X142532400Y-95798800D03*
D13*
X131089800Y-105557900D03*
X120713900Y-92898000D03*
X138712100Y-104394000D03*
X138711700Y-96520000D03*
X128176400Y-105179900D03*
X118827800Y-100879100D03*
X123025400Y-101239700D03*
X119764700Y-100362000D03*
X125654400Y-95243800D03*
X125191800Y-96302700D03*
X129316400Y-106145800D03*
X123635700Y-105201800D03*
X123188200Y-102690400D03*
D14*
X142532400Y-95798800D02*
X142532400Y-108820100D01*
X142532400Y-108820100D02*
X144272000Y-110559700D01*
X140970000Y-89084300D02*
X140970000Y-94236400D01*
X140970000Y-94236400D02*
X142532400Y-95798800D01*
X144272000Y-111760000D02*
X144272000Y-110559700D01*
X140970000Y-87884000D02*
X140970000Y-89084300D01*
X112903000Y-93980000D02*
X112903000Y-95180300D01*
X112903000Y-101981000D02*
X112903000Y-100780700D01*
X112903000Y-100780700D02*
X111702700Y-99580400D01*
X111702700Y-99580400D02*
X111702700Y-96005400D01*
X111702700Y-96005400D02*
X112527800Y-95180300D01*
X112527800Y-95180300D02*
X112903000Y-95180300D01*
X141732000Y-111760000D02*
X141732000Y-110559700D01*
X138430000Y-87884000D02*
X138430000Y-89084300D01*
X138430000Y-89084300D02*
X139630300Y-90284600D01*
X139630300Y-90284600D02*
X139630300Y-108458000D01*
X139630300Y-108458000D02*
X141732000Y-110559700D01*
X123952000Y-87884000D02*
X122751700Y-87884000D01*
X122751700Y-87884000D02*
X114115700Y-96520000D01*
X114115700Y-96520000D02*
X112903000Y-96520000D01*
X112903000Y-96520000D02*
X112903000Y-97720300D01*
X112903000Y-97720300D02*
X114173000Y-98990300D01*
X114173000Y-98990300D02*
X114173000Y-102459300D01*
X114173000Y-102459300D02*
X113381300Y-103251000D01*
X113381300Y-103251000D02*
X112470900Y-103251000D01*
X112470900Y-103251000D02*
X111686000Y-104035900D01*
X111686000Y-104035900D02*
X111686000Y-105844000D01*
X111686000Y-105844000D02*
X112903000Y-107061000D01*
D15*
X131089800Y-105557900D02*
X120713900Y-95182000D01*
X120713900Y-95182000D02*
X120713900Y-92898000D01*
X115443000Y-103345700D02*
X116250900Y-103345700D01*
X116250900Y-103345700D02*
X117382700Y-102213900D01*
X117382700Y-102213900D02*
X117382700Y-101298500D01*
X117382700Y-101298500D02*
X119067500Y-99613700D01*
X119067500Y-99613700D02*
X123090300Y-99613700D01*
X123090300Y-99613700D02*
X128176400Y-104699800D01*
X128176400Y-104699800D02*
X128176400Y-105179900D01*
X137789300Y-103471100D02*
X138711700Y-102548700D01*
X138711700Y-102548700D02*
X138711700Y-96520000D01*
X128176400Y-105179900D02*
X128176400Y-106057400D01*
X128176400Y-106057400D02*
X129010800Y-106891800D01*
X129010800Y-106891800D02*
X134368600Y-106891800D01*
X134368600Y-106891800D02*
X137789300Y-103471100D01*
X137789300Y-103471100D02*
X138712100Y-104394000D01*
X146050000Y-87884000D02*
X144874700Y-87884000D01*
X138711700Y-96520000D02*
X137254600Y-95062900D01*
X137254600Y-95062900D02*
X137254600Y-86804800D01*
X137254600Y-86804800D02*
X137350700Y-86708700D01*
X137350700Y-86708700D02*
X144066800Y-86708700D01*
X144066800Y-86708700D02*
X144874700Y-87516600D01*
X144874700Y-87516600D02*
X144874700Y-87884000D01*
X115443000Y-104521000D02*
X115443000Y-103345700D01*
X118827800Y-100879100D02*
X119913700Y-101965000D01*
X119913700Y-101965000D02*
X123493100Y-101965000D01*
X123493100Y-101965000D02*
X124374600Y-102846500D01*
X124374600Y-102846500D02*
X124374600Y-110162100D01*
X124374600Y-110162100D02*
X123952000Y-110584700D01*
X123952000Y-111760000D02*
X123952000Y-110584700D01*
X126492000Y-110584700D02*
X125316700Y-109409400D01*
X125316700Y-109409400D02*
X125316700Y-103151700D01*
X125316700Y-103151700D02*
X123404700Y-101239700D01*
X123404700Y-101239700D02*
X123025400Y-101239700D01*
X126492000Y-111760000D02*
X126492000Y-110584700D01*
X119764700Y-100362000D02*
X123175000Y-100362000D01*
X123175000Y-100362000D02*
X125950600Y-103137600D01*
X125950600Y-103137600D02*
X125950600Y-107503300D01*
X125950600Y-107503300D02*
X129032000Y-110584700D01*
X129032000Y-111760000D02*
X129032000Y-110584700D01*
X131572000Y-87884000D02*
X131572000Y-89059300D01*
X125654400Y-95243800D02*
X125654400Y-94976900D01*
X125654400Y-94976900D02*
X131572000Y-89059300D01*
X129032000Y-89059300D02*
X124911200Y-93180100D01*
X124911200Y-93180100D02*
X124911200Y-96022100D01*
X124911200Y-96022100D02*
X125191800Y-96302700D01*
X129032000Y-87884000D02*
X129032000Y-89059300D01*
X115443000Y-101981000D02*
X116618300Y-101981000D01*
X129316400Y-106145800D02*
X129316400Y-105202800D01*
X129316400Y-105202800D02*
X123254400Y-99140800D01*
X123254400Y-99140800D02*
X118870800Y-99140800D01*
X118870800Y-99140800D02*
X116618300Y-101393300D01*
X116618300Y-101393300D02*
X116618300Y-101981000D01*
X112903000Y-105696300D02*
X113270400Y-105696300D01*
X113270400Y-105696300D02*
X114078300Y-106504200D01*
X114078300Y-106504200D02*
X114078300Y-107403700D01*
X114078300Y-107403700D02*
X114947300Y-108272700D01*
X114947300Y-108272700D02*
X120564800Y-108272700D01*
X120564800Y-108272700D02*
X123635700Y-105201800D01*
X112903000Y-104521000D02*
X112903000Y-105696300D01*
X116618300Y-107061000D02*
X120988900Y-102690400D01*
X120988900Y-102690400D02*
X123188200Y-102690400D01*
X115443000Y-107061000D02*
X116618300Y-107061000D01*
D16*
G36*
X123614601Y-109847298D02*
G01*
X123440998Y-110020901D01*
X123412000Y-110044699D01*
X123388202Y-110073697D01*
X123388201Y-110073698D01*
X123317026Y-110160424D01*
X123257425Y-110271928D01*
X123102000Y-110271928D01*
X122977518Y-110284188D01*
X122857820Y-110320498D01*
X122747506Y-110379463D01*
X122650815Y-110458815D01*
X122571463Y-110555506D01*
X122512498Y-110665820D01*
X122476188Y-110785518D01*
X122463928Y-110910000D01*
X122463928Y-112610000D01*
X122476188Y-112734482D01*
X122512498Y-112854180D01*
X122525230Y-112878000D01*
X114402437Y-112878000D01*
X114537370Y-112743067D01*
X114749746Y-112425224D01*
X114896034Y-112072055D01*
X114970610Y-111697133D01*
X114970610Y-111314867D01*
X114896034Y-110939945D01*
X114749746Y-110586776D01*
X114537370Y-110268933D01*
X114267067Y-109998630D01*
X113949224Y-109786254D01*
X113596055Y-109639966D01*
X113221133Y-109565390D01*
X112838867Y-109565390D01*
X112463945Y-109639966D01*
X112110776Y-109786254D01*
X111792933Y-109998630D01*
X111658000Y-110133563D01*
X111658000Y-107863637D01*
X111805412Y-108061269D01*
X112021645Y-108256178D01*
X112271748Y-108405157D01*
X112546109Y-108502481D01*
X112776000Y-108381814D01*
X112776000Y-107188000D01*
X112756000Y-107188000D01*
X112756000Y-106934000D01*
X112776000Y-106934000D01*
X112776000Y-106914000D01*
X113030000Y-106914000D01*
X113030000Y-106934000D01*
X113050000Y-106934000D01*
X113050000Y-107188000D01*
X113030000Y-107188000D01*
X113030000Y-108381814D01*
X113259891Y-108502481D01*
X113534252Y-108405157D01*
X113784355Y-108256178D01*
X113822023Y-108222225D01*
X114383501Y-108783703D01*
X114407299Y-108812701D01*
X114436297Y-108836499D01*
X114523024Y-108907674D01*
X114655053Y-108978246D01*
X114798314Y-109021703D01*
X114947300Y-109036377D01*
X114984633Y-109032700D01*
X120527478Y-109032700D01*
X120564800Y-109036376D01*
X120602122Y-109032700D01*
X120602133Y-109032700D01*
X120713786Y-109021703D01*
X120857047Y-108978246D01*
X120989076Y-108907674D01*
X121104801Y-108812701D01*
X121128604Y-108783697D01*
X123614600Y-106297702D01*
X123614601Y-109847298D01*
X123614601Y-109847298D01*
G37*
X123614601Y-109847298D02*
X123440998Y-110020901D01*
X123412000Y-110044699D01*
X123388202Y-110073697D01*
X123388201Y-110073698D01*
X123317026Y-110160424D01*
X123257425Y-110271928D01*
X123102000Y-110271928D01*
X122977518Y-110284188D01*
X122857820Y-110320498D01*
X122747506Y-110379463D01*
X122650815Y-110458815D01*
X122571463Y-110555506D01*
X122512498Y-110665820D01*
X122476188Y-110785518D01*
X122463928Y-110910000D01*
X122463928Y-112610000D01*
X122476188Y-112734482D01*
X122512498Y-112854180D01*
X122525230Y-112878000D01*
X114402437Y-112878000D01*
X114537370Y-112743067D01*
X114749746Y-112425224D01*
X114896034Y-112072055D01*
X114970610Y-111697133D01*
X114970610Y-111314867D01*
X114896034Y-110939945D01*
X114749746Y-110586776D01*
X114537370Y-110268933D01*
X114267067Y-109998630D01*
X113949224Y-109786254D01*
X113596055Y-109639966D01*
X113221133Y-109565390D01*
X112838867Y-109565390D01*
X112463945Y-109639966D01*
X112110776Y-109786254D01*
X111792933Y-109998630D01*
X111658000Y-110133563D01*
X111658000Y-107863637D01*
X111805412Y-108061269D01*
X112021645Y-108256178D01*
X112271748Y-108405157D01*
X112546109Y-108502481D01*
X112776000Y-108381814D01*
X112776000Y-107188000D01*
X112756000Y-107188000D01*
X112756000Y-106934000D01*
X112776000Y-106934000D01*
X112776000Y-106914000D01*
X113030000Y-106914000D01*
X113030000Y-106934000D01*
X113050000Y-106934000D01*
X113050000Y-107188000D01*
X113030000Y-107188000D01*
X113030000Y-108381814D01*
X113259891Y-108502481D01*
X113534252Y-108405157D01*
X113784355Y-108256178D01*
X113822023Y-108222225D01*
X114383501Y-108783703D01*
X114407299Y-108812701D01*
X114436297Y-108836499D01*
X114523024Y-108907674D01*
X114655053Y-108978246D01*
X114798314Y-109021703D01*
X114947300Y-109036377D01*
X114984633Y-109032700D01*
X120527478Y-109032700D01*
X120564800Y-109036376D01*
X120602122Y-109032700D01*
X120602133Y-109032700D01*
X120713786Y-109021703D01*
X120857047Y-108978246D01*
X120989076Y-108907674D01*
X121104801Y-108812701D01*
X121128604Y-108783697D01*
X123614600Y-106297702D01*
X123614601Y-109847298D01*
G36*
X138557000Y-87757000D02*
G01*
X138577000Y-87757000D01*
X138577000Y-88011000D01*
X138557000Y-88011000D01*
X138557000Y-89210250D01*
X138715750Y-89369000D01*
X139280000Y-89372072D01*
X139404482Y-89359812D01*
X139524180Y-89323502D01*
X139634494Y-89264537D01*
X139731185Y-89185185D01*
X139810537Y-89088494D01*
X139869502Y-88978180D01*
X139890393Y-88909313D01*
X139914866Y-88939134D01*
X140140986Y-89124706D01*
X140185000Y-89148232D01*
X140185001Y-94197837D01*
X140181203Y-94236400D01*
X140196359Y-94390286D01*
X140241246Y-94538259D01*
X140265709Y-94584026D01*
X140314139Y-94674633D01*
X140341045Y-94707417D01*
X140387655Y-94764212D01*
X140387659Y-94764216D01*
X140412237Y-94794164D01*
X140442185Y-94818742D01*
X141397400Y-95773958D01*
X141397400Y-95910588D01*
X141441017Y-96129867D01*
X141526576Y-96336424D01*
X141650788Y-96522320D01*
X141747400Y-96618932D01*
X141747401Y-108781537D01*
X141743603Y-108820100D01*
X141758759Y-108973986D01*
X141803646Y-109121959D01*
X141803647Y-109121960D01*
X141876539Y-109258333D01*
X141878248Y-109260415D01*
X141950055Y-109347912D01*
X141950059Y-109347916D01*
X141974637Y-109377864D01*
X142004585Y-109402442D01*
X143266376Y-110664234D01*
X143216866Y-110704866D01*
X143031294Y-110930986D01*
X142996799Y-110995523D01*
X142927178Y-110878645D01*
X142732269Y-110662412D01*
X142498920Y-110488359D01*
X142236099Y-110363175D01*
X142088890Y-110318524D01*
X141859000Y-110439845D01*
X141859000Y-111633000D01*
X141879000Y-111633000D01*
X141879000Y-111887000D01*
X141859000Y-111887000D01*
X141859000Y-111907000D01*
X141605000Y-111907000D01*
X141605000Y-111887000D01*
X141585000Y-111887000D01*
X141585000Y-111633000D01*
X141605000Y-111633000D01*
X141605000Y-110439845D01*
X141375110Y-110318524D01*
X141227901Y-110363175D01*
X140965080Y-110488359D01*
X140731731Y-110662412D01*
X140536822Y-110878645D01*
X140467201Y-110995523D01*
X140432706Y-110930986D01*
X140247134Y-110704866D01*
X140021014Y-110519294D01*
X139763034Y-110381401D01*
X139483111Y-110296487D01*
X139264950Y-110275000D01*
X139119050Y-110275000D01*
X138900889Y-110296487D01*
X138620966Y-110381401D01*
X138362986Y-110519294D01*
X138136866Y-110704866D01*
X137951294Y-110930986D01*
X137922000Y-110985791D01*
X137892706Y-110930986D01*
X137707134Y-110704866D01*
X137481014Y-110519294D01*
X137223034Y-110381401D01*
X136943111Y-110296487D01*
X136724950Y-110275000D01*
X136579050Y-110275000D01*
X136360889Y-110296487D01*
X136080966Y-110381401D01*
X135822986Y-110519294D01*
X135596866Y-110704866D01*
X135411294Y-110930986D01*
X135382000Y-110985791D01*
X135352706Y-110930986D01*
X135167134Y-110704866D01*
X134941014Y-110519294D01*
X134683034Y-110381401D01*
X134403111Y-110296487D01*
X134184950Y-110275000D01*
X134039050Y-110275000D01*
X133820889Y-110296487D01*
X133540966Y-110381401D01*
X133282986Y-110519294D01*
X133056866Y-110704866D01*
X132871294Y-110930986D01*
X132842000Y-110985791D01*
X132812706Y-110930986D01*
X132627134Y-110704866D01*
X132401014Y-110519294D01*
X132143034Y-110381401D01*
X131863111Y-110296487D01*
X131644950Y-110275000D01*
X131499050Y-110275000D01*
X131280889Y-110296487D01*
X131000966Y-110381401D01*
X130742986Y-110519294D01*
X130516866Y-110704866D01*
X130331294Y-110930986D01*
X130302000Y-110985791D01*
X130272706Y-110930986D01*
X130087134Y-110704866D01*
X129861014Y-110519294D01*
X129785246Y-110478795D01*
X129781003Y-110435714D01*
X129737546Y-110292453D01*
X129666974Y-110160424D01*
X129572001Y-110044699D01*
X129543003Y-110020901D01*
X126710600Y-107188499D01*
X126710600Y-104308802D01*
X127210061Y-104808263D01*
X127181174Y-104878002D01*
X127141400Y-105077961D01*
X127141400Y-105281839D01*
X127181174Y-105481798D01*
X127259195Y-105670156D01*
X127372463Y-105839674D01*
X127416400Y-105883611D01*
X127416400Y-106020078D01*
X127412724Y-106057400D01*
X127416400Y-106094722D01*
X127416400Y-106094733D01*
X127427398Y-106206386D01*
X127436624Y-106236800D01*
X127470854Y-106349646D01*
X127541426Y-106481676D01*
X127612601Y-106568402D01*
X127636400Y-106597401D01*
X127665398Y-106621199D01*
X128447001Y-107402802D01*
X128470799Y-107431801D01*
X128586524Y-107526774D01*
X128718553Y-107597346D01*
X128861814Y-107640803D01*
X128973467Y-107651800D01*
X128973475Y-107651800D01*
X129010800Y-107655476D01*
X129048125Y-107651800D01*
X134331278Y-107651800D01*
X134368600Y-107655476D01*
X134405922Y-107651800D01*
X134405933Y-107651800D01*
X134517586Y-107640803D01*
X134660847Y-107597346D01*
X134792876Y-107526774D01*
X134908601Y-107431801D01*
X134932404Y-107402797D01*
X137704004Y-104631197D01*
X137716874Y-104695898D01*
X137794895Y-104884256D01*
X137908163Y-105053774D01*
X138052326Y-105197937D01*
X138221844Y-105311205D01*
X138410202Y-105389226D01*
X138610161Y-105429000D01*
X138814039Y-105429000D01*
X139013998Y-105389226D01*
X139202356Y-105311205D01*
X139371874Y-105197937D01*
X139516037Y-105053774D01*
X139629305Y-104884256D01*
X139707326Y-104695898D01*
X139747100Y-104495939D01*
X139747100Y-104292061D01*
X139707326Y-104092102D01*
X139629305Y-103903744D01*
X139516037Y-103734226D01*
X139371874Y-103590063D01*
X139202356Y-103476795D01*
X139013998Y-103398774D01*
X138949297Y-103385904D01*
X139222704Y-103112498D01*
X139251701Y-103088701D01*
X139346674Y-102972976D01*
X139417246Y-102840947D01*
X139460703Y-102697686D01*
X139471700Y-102586033D01*
X139471700Y-102586032D01*
X139475377Y-102548700D01*
X139471700Y-102511367D01*
X139471700Y-97223711D01*
X139515637Y-97179774D01*
X139628905Y-97010256D01*
X139706926Y-96821898D01*
X139746700Y-96621939D01*
X139746700Y-96418061D01*
X139706926Y-96218102D01*
X139628905Y-96029744D01*
X139515637Y-95860226D01*
X139371474Y-95716063D01*
X139201956Y-95602795D01*
X139013598Y-95524774D01*
X138813639Y-95485000D01*
X138751502Y-95485000D01*
X138014600Y-94748099D01*
X138014600Y-89369706D01*
X138144250Y-89369000D01*
X138303000Y-89210250D01*
X138303000Y-88011000D01*
X138283000Y-88011000D01*
X138283000Y-87757000D01*
X138303000Y-87757000D01*
X138303000Y-87737000D01*
X138557000Y-87737000D01*
X138557000Y-87757000D01*
X138557000Y-87757000D01*
G37*
X138557000Y-87757000D02*
X138577000Y-87757000D01*
X138577000Y-88011000D01*
X138557000Y-88011000D01*
X138557000Y-89210250D01*
X138715750Y-89369000D01*
X139280000Y-89372072D01*
X139404482Y-89359812D01*
X139524180Y-89323502D01*
X139634494Y-89264537D01*
X139731185Y-89185185D01*
X139810537Y-89088494D01*
X139869502Y-88978180D01*
X139890393Y-88909313D01*
X139914866Y-88939134D01*
X140140986Y-89124706D01*
X140185000Y-89148232D01*
X140185001Y-94197837D01*
X140181203Y-94236400D01*
X140196359Y-94390286D01*
X140241246Y-94538259D01*
X140265709Y-94584026D01*
X140314139Y-94674633D01*
X140341045Y-94707417D01*
X140387655Y-94764212D01*
X140387659Y-94764216D01*
X140412237Y-94794164D01*
X140442185Y-94818742D01*
X141397400Y-95773958D01*
X141397400Y-95910588D01*
X141441017Y-96129867D01*
X141526576Y-96336424D01*
X141650788Y-96522320D01*
X141747400Y-96618932D01*
X141747401Y-108781537D01*
X141743603Y-108820100D01*
X141758759Y-108973986D01*
X141803646Y-109121959D01*
X141803647Y-109121960D01*
X141876539Y-109258333D01*
X141878248Y-109260415D01*
X141950055Y-109347912D01*
X141950059Y-109347916D01*
X141974637Y-109377864D01*
X142004585Y-109402442D01*
X143266376Y-110664234D01*
X143216866Y-110704866D01*
X143031294Y-110930986D01*
X142996799Y-110995523D01*
X142927178Y-110878645D01*
X142732269Y-110662412D01*
X142498920Y-110488359D01*
X142236099Y-110363175D01*
X142088890Y-110318524D01*
X141859000Y-110439845D01*
X141859000Y-111633000D01*
X141879000Y-111633000D01*
X141879000Y-111887000D01*
X141859000Y-111887000D01*
X141859000Y-111907000D01*
X141605000Y-111907000D01*
X141605000Y-111887000D01*
X141585000Y-111887000D01*
X141585000Y-111633000D01*
X141605000Y-111633000D01*
X141605000Y-110439845D01*
X141375110Y-110318524D01*
X141227901Y-110363175D01*
X140965080Y-110488359D01*
X140731731Y-110662412D01*
X140536822Y-110878645D01*
X140467201Y-110995523D01*
X140432706Y-110930986D01*
X140247134Y-110704866D01*
X140021014Y-110519294D01*
X139763034Y-110381401D01*
X139483111Y-110296487D01*
X139264950Y-110275000D01*
X139119050Y-110275000D01*
X138900889Y-110296487D01*
X138620966Y-110381401D01*
X138362986Y-110519294D01*
X138136866Y-110704866D01*
X137951294Y-110930986D01*
X137922000Y-110985791D01*
X137892706Y-110930986D01*
X137707134Y-110704866D01*
X137481014Y-110519294D01*
X137223034Y-110381401D01*
X136943111Y-110296487D01*
X136724950Y-110275000D01*
X136579050Y-110275000D01*
X136360889Y-110296487D01*
X136080966Y-110381401D01*
X135822986Y-110519294D01*
X135596866Y-110704866D01*
X135411294Y-110930986D01*
X135382000Y-110985791D01*
X135352706Y-110930986D01*
X135167134Y-110704866D01*
X134941014Y-110519294D01*
X134683034Y-110381401D01*
X134403111Y-110296487D01*
X134184950Y-110275000D01*
X134039050Y-110275000D01*
X133820889Y-110296487D01*
X133540966Y-110381401D01*
X133282986Y-110519294D01*
X133056866Y-110704866D01*
X132871294Y-110930986D01*
X132842000Y-110985791D01*
X132812706Y-110930986D01*
X132627134Y-110704866D01*
X132401014Y-110519294D01*
X132143034Y-110381401D01*
X131863111Y-110296487D01*
X131644950Y-110275000D01*
X131499050Y-110275000D01*
X131280889Y-110296487D01*
X131000966Y-110381401D01*
X130742986Y-110519294D01*
X130516866Y-110704866D01*
X130331294Y-110930986D01*
X130302000Y-110985791D01*
X130272706Y-110930986D01*
X130087134Y-110704866D01*
X129861014Y-110519294D01*
X129785246Y-110478795D01*
X129781003Y-110435714D01*
X129737546Y-110292453D01*
X129666974Y-110160424D01*
X129572001Y-110044699D01*
X129543003Y-110020901D01*
X126710600Y-107188499D01*
X126710600Y-104308802D01*
X127210061Y-104808263D01*
X127181174Y-104878002D01*
X127141400Y-105077961D01*
X127141400Y-105281839D01*
X127181174Y-105481798D01*
X127259195Y-105670156D01*
X127372463Y-105839674D01*
X127416400Y-105883611D01*
X127416400Y-106020078D01*
X127412724Y-106057400D01*
X127416400Y-106094722D01*
X127416400Y-106094733D01*
X127427398Y-106206386D01*
X127436624Y-106236800D01*
X127470854Y-106349646D01*
X127541426Y-106481676D01*
X127612601Y-106568402D01*
X127636400Y-106597401D01*
X127665398Y-106621199D01*
X128447001Y-107402802D01*
X128470799Y-107431801D01*
X128586524Y-107526774D01*
X128718553Y-107597346D01*
X128861814Y-107640803D01*
X128973467Y-107651800D01*
X128973475Y-107651800D01*
X129010800Y-107655476D01*
X129048125Y-107651800D01*
X134331278Y-107651800D01*
X134368600Y-107655476D01*
X134405922Y-107651800D01*
X134405933Y-107651800D01*
X134517586Y-107640803D01*
X134660847Y-107597346D01*
X134792876Y-107526774D01*
X134908601Y-107431801D01*
X134932404Y-107402797D01*
X137704004Y-104631197D01*
X137716874Y-104695898D01*
X137794895Y-104884256D01*
X137908163Y-105053774D01*
X138052326Y-105197937D01*
X138221844Y-105311205D01*
X138410202Y-105389226D01*
X138610161Y-105429000D01*
X138814039Y-105429000D01*
X139013998Y-105389226D01*
X139202356Y-105311205D01*
X139371874Y-105197937D01*
X139516037Y-105053774D01*
X139629305Y-104884256D01*
X139707326Y-104695898D01*
X139747100Y-104495939D01*
X139747100Y-104292061D01*
X139707326Y-104092102D01*
X139629305Y-103903744D01*
X139516037Y-103734226D01*
X139371874Y-103590063D01*
X139202356Y-103476795D01*
X139013998Y-103398774D01*
X138949297Y-103385904D01*
X139222704Y-103112498D01*
X139251701Y-103088701D01*
X139346674Y-102972976D01*
X139417246Y-102840947D01*
X139460703Y-102697686D01*
X139471700Y-102586033D01*
X139471700Y-102586032D01*
X139475377Y-102548700D01*
X139471700Y-102511367D01*
X139471700Y-97223711D01*
X139515637Y-97179774D01*
X139628905Y-97010256D01*
X139706926Y-96821898D01*
X139746700Y-96621939D01*
X139746700Y-96418061D01*
X139706926Y-96218102D01*
X139628905Y-96029744D01*
X139515637Y-95860226D01*
X139371474Y-95716063D01*
X139201956Y-95602795D01*
X139013598Y-95524774D01*
X138813639Y-95485000D01*
X138751502Y-95485000D01*
X138014600Y-94748099D01*
X138014600Y-89369706D01*
X138144250Y-89369000D01*
X138303000Y-89210250D01*
X138303000Y-88011000D01*
X138283000Y-88011000D01*
X138283000Y-87757000D01*
X138303000Y-87757000D01*
X138303000Y-87737000D01*
X138557000Y-87737000D01*
X138557000Y-87757000D01*
G36*
X111662294Y-105350014D02*
G01*
X111847866Y-105576134D01*
X112073986Y-105761706D01*
X112138523Y-105796201D01*
X112021645Y-105865822D01*
X111805412Y-106060731D01*
X111658000Y-106258363D01*
X111658000Y-105341980D01*
X111662294Y-105350014D01*
X111662294Y-105350014D01*
G37*
X111662294Y-105350014D02*
X111847866Y-105576134D01*
X112073986Y-105761706D01*
X112138523Y-105796201D01*
X112021645Y-105865822D01*
X111805412Y-106060731D01*
X111658000Y-106258363D01*
X111658000Y-105341980D01*
X111662294Y-105350014D01*
G36*
X122512498Y-86789820D02*
G01*
X122476188Y-86909518D01*
X122463928Y-87034000D01*
X122467000Y-87598250D01*
X122625750Y-87757000D01*
X123825000Y-87757000D01*
X123825000Y-87737000D01*
X124079000Y-87737000D01*
X124079000Y-87757000D01*
X124099000Y-87757000D01*
X124099000Y-88011000D01*
X124079000Y-88011000D01*
X124079000Y-89210250D01*
X124237750Y-89369000D01*
X124802000Y-89372072D01*
X124926482Y-89359812D01*
X125046180Y-89323502D01*
X125156494Y-89264537D01*
X125253185Y-89185185D01*
X125332537Y-89088494D01*
X125391502Y-88978180D01*
X125412393Y-88909313D01*
X125436866Y-88939134D01*
X125662986Y-89124706D01*
X125920966Y-89262599D01*
X126200889Y-89347513D01*
X126419050Y-89369000D01*
X126564950Y-89369000D01*
X126783111Y-89347513D01*
X127063034Y-89262599D01*
X127321014Y-89124706D01*
X127547134Y-88939134D01*
X127732706Y-88713014D01*
X127762000Y-88658209D01*
X127791294Y-88713014D01*
X127976866Y-88939134D01*
X128032064Y-88984434D01*
X124400203Y-92616296D01*
X124371199Y-92640099D01*
X124339426Y-92678815D01*
X124276226Y-92755824D01*
X124265706Y-92775506D01*
X124205654Y-92887854D01*
X124162197Y-93031115D01*
X124151200Y-93142768D01*
X124151200Y-93142778D01*
X124147524Y-93180100D01*
X124151200Y-93217423D01*
X124151201Y-95984768D01*
X124147524Y-96022100D01*
X124151201Y-96059433D01*
X124161413Y-96163110D01*
X124162198Y-96171085D01*
X124162503Y-96172090D01*
X124156800Y-96200761D01*
X124156800Y-96404639D01*
X124196574Y-96604598D01*
X124274595Y-96792956D01*
X124387863Y-96962474D01*
X124532026Y-97106637D01*
X124701544Y-97219905D01*
X124889902Y-97297926D01*
X125089861Y-97337700D01*
X125293739Y-97337700D01*
X125493698Y-97297926D01*
X125682056Y-97219905D01*
X125851574Y-97106637D01*
X125995737Y-96962474D01*
X126109005Y-96792956D01*
X126187026Y-96604598D01*
X126226800Y-96404639D01*
X126226800Y-96200761D01*
X126210183Y-96117221D01*
X126314174Y-96047737D01*
X126458337Y-95903574D01*
X126571605Y-95734056D01*
X126649626Y-95545698D01*
X126689400Y-95345739D01*
X126689400Y-95141861D01*
X126668635Y-95037466D01*
X132083003Y-89623099D01*
X132112001Y-89599301D01*
X132206974Y-89483576D01*
X132277546Y-89351547D01*
X132321003Y-89208286D01*
X132325246Y-89165205D01*
X132401014Y-89124706D01*
X132627134Y-88939134D01*
X132812706Y-88713014D01*
X132950599Y-88455034D01*
X133035513Y-88175111D01*
X133064185Y-87884000D01*
X133035513Y-87592889D01*
X132950599Y-87312966D01*
X132812706Y-87054986D01*
X132627134Y-86828866D01*
X132550532Y-86766000D01*
X136494745Y-86766000D01*
X136494744Y-86766015D01*
X136490924Y-86804800D01*
X136494601Y-86842132D01*
X136494600Y-95025578D01*
X136490924Y-95062900D01*
X136494600Y-95100222D01*
X136494600Y-95100232D01*
X136505597Y-95211885D01*
X136547353Y-95349538D01*
X136549054Y-95355146D01*
X136619626Y-95487176D01*
X136644021Y-95516901D01*
X136714599Y-95602901D01*
X136743603Y-95626704D01*
X137676700Y-96559802D01*
X137676700Y-96621939D01*
X137716474Y-96821898D01*
X137794495Y-97010256D01*
X137907763Y-97179774D01*
X137951701Y-97223712D01*
X137951700Y-102233898D01*
X137278313Y-102907286D01*
X137249329Y-102931070D01*
X137225520Y-102960078D01*
X134053799Y-106131800D01*
X131951116Y-106131800D01*
X132007005Y-106048156D01*
X132085026Y-105859798D01*
X132124800Y-105659839D01*
X132124800Y-105455961D01*
X132085026Y-105256002D01*
X132007005Y-105067644D01*
X131893737Y-104898126D01*
X131749574Y-104753963D01*
X131580056Y-104640695D01*
X131391698Y-104562674D01*
X131191739Y-104522900D01*
X131129602Y-104522900D01*
X121473900Y-94867199D01*
X121473900Y-93601711D01*
X121517837Y-93557774D01*
X121631105Y-93388256D01*
X121709126Y-93199898D01*
X121748900Y-92999939D01*
X121748900Y-92796061D01*
X121709126Y-92596102D01*
X121631105Y-92407744D01*
X121517837Y-92238226D01*
X121373674Y-92094063D01*
X121204156Y-91980795D01*
X121015798Y-91902774D01*
X120815839Y-91863000D01*
X120611961Y-91863000D01*
X120412002Y-91902774D01*
X120223644Y-91980795D01*
X120054126Y-92094063D01*
X119909963Y-92238226D01*
X119796695Y-92407744D01*
X119718674Y-92596102D01*
X119678900Y-92796061D01*
X119678900Y-92999939D01*
X119718674Y-93199898D01*
X119796695Y-93388256D01*
X119909963Y-93557774D01*
X119953901Y-93601712D01*
X119953900Y-95144677D01*
X119950224Y-95182000D01*
X119953900Y-95219322D01*
X119953900Y-95219332D01*
X119964897Y-95330985D01*
X119983644Y-95392785D01*
X120008354Y-95474246D01*
X120078926Y-95606276D01*
X120109004Y-95642926D01*
X120173899Y-95722001D01*
X120202903Y-95745804D01*
X122837899Y-98380800D01*
X118908122Y-98380800D01*
X118870799Y-98377124D01*
X118833476Y-98380800D01*
X118833467Y-98380800D01*
X118721814Y-98391797D01*
X118578553Y-98435254D01*
X118446523Y-98505826D01*
X118362883Y-98574468D01*
X118330799Y-98600799D01*
X118307001Y-98629797D01*
X116428322Y-100508476D01*
X116417482Y-100505188D01*
X116293000Y-100492928D01*
X114593000Y-100492928D01*
X114468518Y-100505188D01*
X114348820Y-100541498D01*
X114238506Y-100600463D01*
X114141815Y-100679815D01*
X114062463Y-100776506D01*
X114003498Y-100886820D01*
X113982607Y-100955687D01*
X113958134Y-100925866D01*
X113732014Y-100740294D01*
X113685362Y-100715358D01*
X113683820Y-100699699D01*
X113676642Y-100626813D01*
X113631754Y-100478840D01*
X113608729Y-100435763D01*
X113558862Y-100342467D01*
X113460764Y-100222936D01*
X113430810Y-100198353D01*
X112487700Y-99255243D01*
X112487700Y-97940762D01*
X112546109Y-97961481D01*
X112776000Y-97840814D01*
X112776000Y-96647000D01*
X113030000Y-96647000D01*
X113030000Y-97840814D01*
X113259891Y-97961481D01*
X113534252Y-97864157D01*
X113784355Y-97715178D01*
X114000588Y-97520269D01*
X114174641Y-97286920D01*
X114299825Y-97024099D01*
X114344476Y-96876890D01*
X114223155Y-96647000D01*
X113030000Y-96647000D01*
X112776000Y-96647000D01*
X112756000Y-96647000D01*
X112756000Y-96393000D01*
X112776000Y-96393000D01*
X112776000Y-96373000D01*
X113030000Y-96373000D01*
X113030000Y-96393000D01*
X114223155Y-96393000D01*
X114344476Y-96163110D01*
X114299825Y-96015901D01*
X114174641Y-95753080D01*
X114000588Y-95519731D01*
X113916534Y-95443966D01*
X113997180Y-95419502D01*
X114107494Y-95360537D01*
X114204185Y-95281185D01*
X114283537Y-95184494D01*
X114342502Y-95074180D01*
X114378812Y-94954482D01*
X114391072Y-94830000D01*
X114391072Y-93130000D01*
X114378812Y-93005518D01*
X114342502Y-92885820D01*
X114283537Y-92775506D01*
X114204185Y-92678815D01*
X114107494Y-92599463D01*
X113997180Y-92540498D01*
X113877482Y-92504188D01*
X113753000Y-92491928D01*
X112053000Y-92491928D01*
X111928518Y-92504188D01*
X111808820Y-92540498D01*
X111698506Y-92599463D01*
X111658000Y-92632705D01*
X111658000Y-89510437D01*
X111792933Y-89645370D01*
X112110776Y-89857746D01*
X112463945Y-90004034D01*
X112838867Y-90078610D01*
X113221133Y-90078610D01*
X113596055Y-90004034D01*
X113949224Y-89857746D01*
X114267067Y-89645370D01*
X114537370Y-89375067D01*
X114749746Y-89057224D01*
X114883630Y-88734000D01*
X122463928Y-88734000D01*
X122476188Y-88858482D01*
X122512498Y-88978180D01*
X122571463Y-89088494D01*
X122650815Y-89185185D01*
X122747506Y-89264537D01*
X122857820Y-89323502D01*
X122977518Y-89359812D01*
X123102000Y-89372072D01*
X123666250Y-89369000D01*
X123825000Y-89210250D01*
X123825000Y-88011000D01*
X122625750Y-88011000D01*
X122467000Y-88169750D01*
X122463928Y-88734000D01*
X114883630Y-88734000D01*
X114896034Y-88704055D01*
X114970610Y-88329133D01*
X114970610Y-87946867D01*
X114896034Y-87571945D01*
X114749746Y-87218776D01*
X114537370Y-86900933D01*
X114402437Y-86766000D01*
X122525230Y-86766000D01*
X122512498Y-86789820D01*
X122512498Y-86789820D01*
G37*
X122512498Y-86789820D02*
X122476188Y-86909518D01*
X122463928Y-87034000D01*
X122467000Y-87598250D01*
X122625750Y-87757000D01*
X123825000Y-87757000D01*
X123825000Y-87737000D01*
X124079000Y-87737000D01*
X124079000Y-87757000D01*
X124099000Y-87757000D01*
X124099000Y-88011000D01*
X124079000Y-88011000D01*
X124079000Y-89210250D01*
X124237750Y-89369000D01*
X124802000Y-89372072D01*
X124926482Y-89359812D01*
X125046180Y-89323502D01*
X125156494Y-89264537D01*
X125253185Y-89185185D01*
X125332537Y-89088494D01*
X125391502Y-88978180D01*
X125412393Y-88909313D01*
X125436866Y-88939134D01*
X125662986Y-89124706D01*
X125920966Y-89262599D01*
X126200889Y-89347513D01*
X126419050Y-89369000D01*
X126564950Y-89369000D01*
X126783111Y-89347513D01*
X127063034Y-89262599D01*
X127321014Y-89124706D01*
X127547134Y-88939134D01*
X127732706Y-88713014D01*
X127762000Y-88658209D01*
X127791294Y-88713014D01*
X127976866Y-88939134D01*
X128032064Y-88984434D01*
X124400203Y-92616296D01*
X124371199Y-92640099D01*
X124339426Y-92678815D01*
X124276226Y-92755824D01*
X124265706Y-92775506D01*
X124205654Y-92887854D01*
X124162197Y-93031115D01*
X124151200Y-93142768D01*
X124151200Y-93142778D01*
X124147524Y-93180100D01*
X124151200Y-93217423D01*
X124151201Y-95984768D01*
X124147524Y-96022100D01*
X124151201Y-96059433D01*
X124161413Y-96163110D01*
X124162198Y-96171085D01*
X124162503Y-96172090D01*
X124156800Y-96200761D01*
X124156800Y-96404639D01*
X124196574Y-96604598D01*
X124274595Y-96792956D01*
X124387863Y-96962474D01*
X124532026Y-97106637D01*
X124701544Y-97219905D01*
X124889902Y-97297926D01*
X125089861Y-97337700D01*
X125293739Y-97337700D01*
X125493698Y-97297926D01*
X125682056Y-97219905D01*
X125851574Y-97106637D01*
X125995737Y-96962474D01*
X126109005Y-96792956D01*
X126187026Y-96604598D01*
X126226800Y-96404639D01*
X126226800Y-96200761D01*
X126210183Y-96117221D01*
X126314174Y-96047737D01*
X126458337Y-95903574D01*
X126571605Y-95734056D01*
X126649626Y-95545698D01*
X126689400Y-95345739D01*
X126689400Y-95141861D01*
X126668635Y-95037466D01*
X132083003Y-89623099D01*
X132112001Y-89599301D01*
X132206974Y-89483576D01*
X132277546Y-89351547D01*
X132321003Y-89208286D01*
X132325246Y-89165205D01*
X132401014Y-89124706D01*
X132627134Y-88939134D01*
X132812706Y-88713014D01*
X132950599Y-88455034D01*
X133035513Y-88175111D01*
X133064185Y-87884000D01*
X133035513Y-87592889D01*
X132950599Y-87312966D01*
X132812706Y-87054986D01*
X132627134Y-86828866D01*
X132550532Y-86766000D01*
X136494745Y-86766000D01*
X136494744Y-86766015D01*
X136490924Y-86804800D01*
X136494601Y-86842132D01*
X136494600Y-95025578D01*
X136490924Y-95062900D01*
X136494600Y-95100222D01*
X136494600Y-95100232D01*
X136505597Y-95211885D01*
X136547353Y-95349538D01*
X136549054Y-95355146D01*
X136619626Y-95487176D01*
X136644021Y-95516901D01*
X136714599Y-95602901D01*
X136743603Y-95626704D01*
X137676700Y-96559802D01*
X137676700Y-96621939D01*
X137716474Y-96821898D01*
X137794495Y-97010256D01*
X137907763Y-97179774D01*
X137951701Y-97223712D01*
X137951700Y-102233898D01*
X137278313Y-102907286D01*
X137249329Y-102931070D01*
X137225520Y-102960078D01*
X134053799Y-106131800D01*
X131951116Y-106131800D01*
X132007005Y-106048156D01*
X132085026Y-105859798D01*
X132124800Y-105659839D01*
X132124800Y-105455961D01*
X132085026Y-105256002D01*
X132007005Y-105067644D01*
X131893737Y-104898126D01*
X131749574Y-104753963D01*
X131580056Y-104640695D01*
X131391698Y-104562674D01*
X131191739Y-104522900D01*
X131129602Y-104522900D01*
X121473900Y-94867199D01*
X121473900Y-93601711D01*
X121517837Y-93557774D01*
X121631105Y-93388256D01*
X121709126Y-93199898D01*
X121748900Y-92999939D01*
X121748900Y-92796061D01*
X121709126Y-92596102D01*
X121631105Y-92407744D01*
X121517837Y-92238226D01*
X121373674Y-92094063D01*
X121204156Y-91980795D01*
X121015798Y-91902774D01*
X120815839Y-91863000D01*
X120611961Y-91863000D01*
X120412002Y-91902774D01*
X120223644Y-91980795D01*
X120054126Y-92094063D01*
X119909963Y-92238226D01*
X119796695Y-92407744D01*
X119718674Y-92596102D01*
X119678900Y-92796061D01*
X119678900Y-92999939D01*
X119718674Y-93199898D01*
X119796695Y-93388256D01*
X119909963Y-93557774D01*
X119953901Y-93601712D01*
X119953900Y-95144677D01*
X119950224Y-95182000D01*
X119953900Y-95219322D01*
X119953900Y-95219332D01*
X119964897Y-95330985D01*
X119983644Y-95392785D01*
X120008354Y-95474246D01*
X120078926Y-95606276D01*
X120109004Y-95642926D01*
X120173899Y-95722001D01*
X120202903Y-95745804D01*
X122837899Y-98380800D01*
X118908122Y-98380800D01*
X118870799Y-98377124D01*
X118833476Y-98380800D01*
X118833467Y-98380800D01*
X118721814Y-98391797D01*
X118578553Y-98435254D01*
X118446523Y-98505826D01*
X118362883Y-98574468D01*
X118330799Y-98600799D01*
X118307001Y-98629797D01*
X116428322Y-100508476D01*
X116417482Y-100505188D01*
X116293000Y-100492928D01*
X114593000Y-100492928D01*
X114468518Y-100505188D01*
X114348820Y-100541498D01*
X114238506Y-100600463D01*
X114141815Y-100679815D01*
X114062463Y-100776506D01*
X114003498Y-100886820D01*
X113982607Y-100955687D01*
X113958134Y-100925866D01*
X113732014Y-100740294D01*
X113685362Y-100715358D01*
X113683820Y-100699699D01*
X113676642Y-100626813D01*
X113631754Y-100478840D01*
X113608729Y-100435763D01*
X113558862Y-100342467D01*
X113460764Y-100222936D01*
X113430810Y-100198353D01*
X112487700Y-99255243D01*
X112487700Y-97940762D01*
X112546109Y-97961481D01*
X112776000Y-97840814D01*
X112776000Y-96647000D01*
X113030000Y-96647000D01*
X113030000Y-97840814D01*
X113259891Y-97961481D01*
X113534252Y-97864157D01*
X113784355Y-97715178D01*
X114000588Y-97520269D01*
X114174641Y-97286920D01*
X114299825Y-97024099D01*
X114344476Y-96876890D01*
X114223155Y-96647000D01*
X113030000Y-96647000D01*
X112776000Y-96647000D01*
X112756000Y-96647000D01*
X112756000Y-96393000D01*
X112776000Y-96393000D01*
X112776000Y-96373000D01*
X113030000Y-96373000D01*
X113030000Y-96393000D01*
X114223155Y-96393000D01*
X114344476Y-96163110D01*
X114299825Y-96015901D01*
X114174641Y-95753080D01*
X114000588Y-95519731D01*
X113916534Y-95443966D01*
X113997180Y-95419502D01*
X114107494Y-95360537D01*
X114204185Y-95281185D01*
X114283537Y-95184494D01*
X114342502Y-95074180D01*
X114378812Y-94954482D01*
X114391072Y-94830000D01*
X114391072Y-93130000D01*
X114378812Y-93005518D01*
X114342502Y-92885820D01*
X114283537Y-92775506D01*
X114204185Y-92678815D01*
X114107494Y-92599463D01*
X113997180Y-92540498D01*
X113877482Y-92504188D01*
X113753000Y-92491928D01*
X112053000Y-92491928D01*
X111928518Y-92504188D01*
X111808820Y-92540498D01*
X111698506Y-92599463D01*
X111658000Y-92632705D01*
X111658000Y-89510437D01*
X111792933Y-89645370D01*
X112110776Y-89857746D01*
X112463945Y-90004034D01*
X112838867Y-90078610D01*
X113221133Y-90078610D01*
X113596055Y-90004034D01*
X113949224Y-89857746D01*
X114267067Y-89645370D01*
X114537370Y-89375067D01*
X114749746Y-89057224D01*
X114883630Y-88734000D01*
X122463928Y-88734000D01*
X122476188Y-88858482D01*
X122512498Y-88978180D01*
X122571463Y-89088494D01*
X122650815Y-89185185D01*
X122747506Y-89264537D01*
X122857820Y-89323502D01*
X122977518Y-89359812D01*
X123102000Y-89372072D01*
X123666250Y-89369000D01*
X123825000Y-89210250D01*
X123825000Y-88011000D01*
X122625750Y-88011000D01*
X122467000Y-88169750D01*
X122463928Y-88734000D01*
X114883630Y-88734000D01*
X114896034Y-88704055D01*
X114970610Y-88329133D01*
X114970610Y-87946867D01*
X114896034Y-87571945D01*
X114749746Y-87218776D01*
X114537370Y-86900933D01*
X114402437Y-86766000D01*
X122525230Y-86766000D01*
X122512498Y-86789820D01*
M02*
