G04 #@! TF.GenerationSoftware,KiCad,Pcbnew,(5.1.4)-1*
G04 #@! TF.CreationDate,2019-09-21T23:44:47+03:00*
G04 #@! TF.ProjectId,Project_3_BACEE,50726f6a-6563-4745-9f33-5f4241434545,v1.0*
G04 #@! TF.SameCoordinates,Original*
G04 #@! TF.FileFunction,Legend,Top*
G04 #@! TF.FilePolarity,Positive*
%FSLAX46Y46*%
G04 Gerber Fmt 4.6, Leading zero omitted, Abs format (unit mm)*
G04 Created by KiCad (PCBNEW (5.1.4)-1) date 2019-09-21 23:44:47*
%MOMM*%
%LPD*%
G04 APERTURE LIST*
%ADD10C,0.150000*%
%ADD11C,0.120000*%
%ADD12C,0.100000*%
G04 APERTURE END LIST*
D10*
X129880000Y-83075428D02*
X129880000Y-83475428D01*
X129737142Y-82846857D02*
X129594285Y-83275428D01*
X129965714Y-83275428D01*
X130165714Y-82932571D02*
X130194285Y-82904000D01*
X130251428Y-82875428D01*
X130394285Y-82875428D01*
X130451428Y-82904000D01*
X130480000Y-82932571D01*
X130508571Y-82989714D01*
X130508571Y-83046857D01*
X130480000Y-83132571D01*
X130137142Y-83475428D01*
X130508571Y-83475428D01*
X130794285Y-83446857D02*
X130794285Y-83475428D01*
X130765714Y-83532571D01*
X130737142Y-83561142D01*
X131365714Y-83475428D02*
X131022857Y-83475428D01*
X131194285Y-83475428D02*
X131194285Y-82875428D01*
X131137142Y-82961142D01*
X131080000Y-83018285D01*
X131022857Y-83046857D01*
X131880000Y-82875428D02*
X131765714Y-82875428D01*
X131708571Y-82904000D01*
X131680000Y-82932571D01*
X131622857Y-83018285D01*
X131594285Y-83132571D01*
X131594285Y-83361142D01*
X131622857Y-83418285D01*
X131651428Y-83446857D01*
X131708571Y-83475428D01*
X131822857Y-83475428D01*
X131880000Y-83446857D01*
X131908571Y-83418285D01*
X131937142Y-83361142D01*
X131937142Y-83218285D01*
X131908571Y-83161142D01*
X131880000Y-83132571D01*
X131822857Y-83104000D01*
X131708571Y-83104000D01*
X131651428Y-83132571D01*
X131622857Y-83161142D01*
X131594285Y-83218285D01*
X132451428Y-83075428D02*
X132451428Y-83475428D01*
X132308571Y-82846857D02*
X132165714Y-83275428D01*
X132537142Y-83275428D01*
X133222857Y-83475428D02*
X133222857Y-83075428D01*
X133222857Y-83132571D02*
X133251428Y-83104000D01*
X133308571Y-83075428D01*
X133394285Y-83075428D01*
X133451428Y-83104000D01*
X133480000Y-83161142D01*
X133480000Y-83475428D01*
X133480000Y-83161142D02*
X133508571Y-83104000D01*
X133565714Y-83075428D01*
X133651428Y-83075428D01*
X133708571Y-83104000D01*
X133737142Y-83161142D01*
X133737142Y-83475428D01*
X134022857Y-83475428D02*
X134022857Y-83075428D01*
X134022857Y-83132571D02*
X134051428Y-83104000D01*
X134108571Y-83075428D01*
X134194285Y-83075428D01*
X134251428Y-83104000D01*
X134280000Y-83161142D01*
X134280000Y-83475428D01*
X134280000Y-83161142D02*
X134308571Y-83104000D01*
X134365714Y-83075428D01*
X134451428Y-83075428D01*
X134508571Y-83104000D01*
X134537142Y-83161142D01*
X134537142Y-83475428D01*
D11*
X153162000Y-84074000D02*
X110998000Y-84074000D01*
X153162000Y-86868000D02*
X153162000Y-83487579D01*
X110998000Y-86868000D02*
X110998000Y-83487579D01*
X110998000Y-84074000D02*
X112124504Y-83487579D01*
X110998000Y-84074000D02*
X112124504Y-84660421D01*
X153162000Y-84074000D02*
X152035496Y-83487579D01*
X153162000Y-84074000D02*
X152035496Y-84660421D01*
D10*
X155284571Y-102307714D02*
X155256000Y-102279142D01*
X155227428Y-102222000D01*
X155227428Y-102079142D01*
X155256000Y-102022000D01*
X155284571Y-101993428D01*
X155341714Y-101964857D01*
X155398857Y-101964857D01*
X155484571Y-101993428D01*
X155827428Y-102336285D01*
X155827428Y-101964857D01*
X155227428Y-101764857D02*
X155227428Y-101364857D01*
X155827428Y-101622000D01*
X155798857Y-101107714D02*
X155827428Y-101107714D01*
X155884571Y-101136285D01*
X155913142Y-101164857D01*
X155427428Y-100593428D02*
X155827428Y-100593428D01*
X155198857Y-100736285D02*
X155627428Y-100879142D01*
X155627428Y-100507714D01*
X155227428Y-100336285D02*
X155227428Y-99964857D01*
X155456000Y-100164857D01*
X155456000Y-100079142D01*
X155484571Y-100022000D01*
X155513142Y-99993428D01*
X155570285Y-99964857D01*
X155713142Y-99964857D01*
X155770285Y-99993428D01*
X155798857Y-100022000D01*
X155827428Y-100079142D01*
X155827428Y-100250571D01*
X155798857Y-100307714D01*
X155770285Y-100336285D01*
X155284571Y-99736285D02*
X155256000Y-99707714D01*
X155227428Y-99650571D01*
X155227428Y-99507714D01*
X155256000Y-99450571D01*
X155284571Y-99422000D01*
X155341714Y-99393428D01*
X155398857Y-99393428D01*
X155484571Y-99422000D01*
X155827428Y-99764857D01*
X155827428Y-99393428D01*
X155827428Y-98679142D02*
X155427428Y-98679142D01*
X155484571Y-98679142D02*
X155456000Y-98650571D01*
X155427428Y-98593428D01*
X155427428Y-98507714D01*
X155456000Y-98450571D01*
X155513142Y-98422000D01*
X155827428Y-98422000D01*
X155513142Y-98422000D02*
X155456000Y-98393428D01*
X155427428Y-98336285D01*
X155427428Y-98250571D01*
X155456000Y-98193428D01*
X155513142Y-98164857D01*
X155827428Y-98164857D01*
X155827428Y-97879142D02*
X155427428Y-97879142D01*
X155484571Y-97879142D02*
X155456000Y-97850571D01*
X155427428Y-97793428D01*
X155427428Y-97707714D01*
X155456000Y-97650571D01*
X155513142Y-97622000D01*
X155827428Y-97622000D01*
X155513142Y-97622000D02*
X155456000Y-97593428D01*
X155427428Y-97536285D01*
X155427428Y-97450571D01*
X155456000Y-97393428D01*
X155513142Y-97364857D01*
X155827428Y-97364857D01*
D11*
X154686000Y-113538000D02*
X154686000Y-86106000D01*
X152400000Y-113538000D02*
X155272421Y-113538000D01*
X152400000Y-86106000D02*
X155272421Y-86106000D01*
X154686000Y-86106000D02*
X155272421Y-87232504D01*
X154686000Y-86106000D02*
X154099579Y-87232504D01*
X154686000Y-113538000D02*
X155272421Y-112411496D01*
X154686000Y-113538000D02*
X154099579Y-112411496D01*
D10*
X147970857Y-106414857D02*
X147913714Y-106443428D01*
X147799428Y-106443428D01*
X147742285Y-106414857D01*
X147713714Y-106386285D01*
X147685142Y-106329142D01*
X147685142Y-106157714D01*
X147713714Y-106100571D01*
X147742285Y-106072000D01*
X147799428Y-106043428D01*
X147913714Y-106043428D01*
X147970857Y-106072000D01*
X138749142Y-109872428D02*
X138749142Y-109272428D01*
X138892000Y-109272428D01*
X138977714Y-109301000D01*
X139034857Y-109358142D01*
X139063428Y-109415285D01*
X139092000Y-109529571D01*
X139092000Y-109615285D01*
X139063428Y-109729571D01*
X139034857Y-109786714D01*
X138977714Y-109843857D01*
X138892000Y-109872428D01*
X138749142Y-109872428D01*
X139434857Y-109529571D02*
X139377714Y-109501000D01*
X139349142Y-109472428D01*
X139320571Y-109415285D01*
X139320571Y-109386714D01*
X139349142Y-109329571D01*
X139377714Y-109301000D01*
X139434857Y-109272428D01*
X139549142Y-109272428D01*
X139606285Y-109301000D01*
X139634857Y-109329571D01*
X139663428Y-109386714D01*
X139663428Y-109415285D01*
X139634857Y-109472428D01*
X139606285Y-109501000D01*
X139549142Y-109529571D01*
X139434857Y-109529571D01*
X139377714Y-109558142D01*
X139349142Y-109586714D01*
X139320571Y-109643857D01*
X139320571Y-109758142D01*
X139349142Y-109815285D01*
X139377714Y-109843857D01*
X139434857Y-109872428D01*
X139549142Y-109872428D01*
X139606285Y-109843857D01*
X139634857Y-109815285D01*
X139663428Y-109758142D01*
X139663428Y-109643857D01*
X139634857Y-109586714D01*
X139606285Y-109558142D01*
X139549142Y-109529571D01*
X136209142Y-109872428D02*
X136209142Y-109272428D01*
X136352000Y-109272428D01*
X136437714Y-109301000D01*
X136494857Y-109358142D01*
X136523428Y-109415285D01*
X136552000Y-109529571D01*
X136552000Y-109615285D01*
X136523428Y-109729571D01*
X136494857Y-109786714D01*
X136437714Y-109843857D01*
X136352000Y-109872428D01*
X136209142Y-109872428D01*
X136752000Y-109272428D02*
X137152000Y-109272428D01*
X136894857Y-109872428D01*
X133669142Y-109872428D02*
X133669142Y-109272428D01*
X133812000Y-109272428D01*
X133897714Y-109301000D01*
X133954857Y-109358142D01*
X133983428Y-109415285D01*
X134012000Y-109529571D01*
X134012000Y-109615285D01*
X133983428Y-109729571D01*
X133954857Y-109786714D01*
X133897714Y-109843857D01*
X133812000Y-109872428D01*
X133669142Y-109872428D01*
X134526285Y-109272428D02*
X134412000Y-109272428D01*
X134354857Y-109301000D01*
X134326285Y-109329571D01*
X134269142Y-109415285D01*
X134240571Y-109529571D01*
X134240571Y-109758142D01*
X134269142Y-109815285D01*
X134297714Y-109843857D01*
X134354857Y-109872428D01*
X134469142Y-109872428D01*
X134526285Y-109843857D01*
X134554857Y-109815285D01*
X134583428Y-109758142D01*
X134583428Y-109615285D01*
X134554857Y-109558142D01*
X134526285Y-109529571D01*
X134469142Y-109501000D01*
X134354857Y-109501000D01*
X134297714Y-109529571D01*
X134269142Y-109558142D01*
X134240571Y-109615285D01*
X131129142Y-109872428D02*
X131129142Y-109272428D01*
X131272000Y-109272428D01*
X131357714Y-109301000D01*
X131414857Y-109358142D01*
X131443428Y-109415285D01*
X131472000Y-109529571D01*
X131472000Y-109615285D01*
X131443428Y-109729571D01*
X131414857Y-109786714D01*
X131357714Y-109843857D01*
X131272000Y-109872428D01*
X131129142Y-109872428D01*
X132014857Y-109272428D02*
X131729142Y-109272428D01*
X131700571Y-109558142D01*
X131729142Y-109529571D01*
X131786285Y-109501000D01*
X131929142Y-109501000D01*
X131986285Y-109529571D01*
X132014857Y-109558142D01*
X132043428Y-109615285D01*
X132043428Y-109758142D01*
X132014857Y-109815285D01*
X131986285Y-109843857D01*
X131929142Y-109872428D01*
X131786285Y-109872428D01*
X131729142Y-109843857D01*
X131700571Y-109815285D01*
X128589142Y-109872428D02*
X128589142Y-109272428D01*
X128732000Y-109272428D01*
X128817714Y-109301000D01*
X128874857Y-109358142D01*
X128903428Y-109415285D01*
X128932000Y-109529571D01*
X128932000Y-109615285D01*
X128903428Y-109729571D01*
X128874857Y-109786714D01*
X128817714Y-109843857D01*
X128732000Y-109872428D01*
X128589142Y-109872428D01*
X129446285Y-109472428D02*
X129446285Y-109872428D01*
X129303428Y-109243857D02*
X129160571Y-109672428D01*
X129532000Y-109672428D01*
X126049142Y-109872428D02*
X126049142Y-109272428D01*
X126192000Y-109272428D01*
X126277714Y-109301000D01*
X126334857Y-109358142D01*
X126363428Y-109415285D01*
X126392000Y-109529571D01*
X126392000Y-109615285D01*
X126363428Y-109729571D01*
X126334857Y-109786714D01*
X126277714Y-109843857D01*
X126192000Y-109872428D01*
X126049142Y-109872428D01*
X126592000Y-109272428D02*
X126963428Y-109272428D01*
X126763428Y-109501000D01*
X126849142Y-109501000D01*
X126906285Y-109529571D01*
X126934857Y-109558142D01*
X126963428Y-109615285D01*
X126963428Y-109758142D01*
X126934857Y-109815285D01*
X126906285Y-109843857D01*
X126849142Y-109872428D01*
X126677714Y-109872428D01*
X126620571Y-109843857D01*
X126592000Y-109815285D01*
X123509142Y-109872428D02*
X123509142Y-109272428D01*
X123652000Y-109272428D01*
X123737714Y-109301000D01*
X123794857Y-109358142D01*
X123823428Y-109415285D01*
X123852000Y-109529571D01*
X123852000Y-109615285D01*
X123823428Y-109729571D01*
X123794857Y-109786714D01*
X123737714Y-109843857D01*
X123652000Y-109872428D01*
X123509142Y-109872428D01*
X124080571Y-109329571D02*
X124109142Y-109301000D01*
X124166285Y-109272428D01*
X124309142Y-109272428D01*
X124366285Y-109301000D01*
X124394857Y-109329571D01*
X124423428Y-109386714D01*
X124423428Y-109443857D01*
X124394857Y-109529571D01*
X124052000Y-109872428D01*
X124423428Y-109872428D01*
X141274857Y-109301000D02*
X141217714Y-109272428D01*
X141132000Y-109272428D01*
X141046285Y-109301000D01*
X140989142Y-109358142D01*
X140960571Y-109415285D01*
X140932000Y-109529571D01*
X140932000Y-109615285D01*
X140960571Y-109729571D01*
X140989142Y-109786714D01*
X141046285Y-109843857D01*
X141132000Y-109872428D01*
X141189142Y-109872428D01*
X141274857Y-109843857D01*
X141303428Y-109815285D01*
X141303428Y-109615285D01*
X141189142Y-109615285D01*
X141560571Y-109872428D02*
X141560571Y-109272428D01*
X141903428Y-109872428D01*
X141903428Y-109272428D01*
X142189142Y-109872428D02*
X142189142Y-109272428D01*
X142332000Y-109272428D01*
X142417714Y-109301000D01*
X142474857Y-109358142D01*
X142503428Y-109415285D01*
X142532000Y-109529571D01*
X142532000Y-109615285D01*
X142503428Y-109729571D01*
X142474857Y-109786714D01*
X142417714Y-109843857D01*
X142332000Y-109872428D01*
X142189142Y-109872428D01*
X143557714Y-109272428D02*
X143757714Y-109872428D01*
X143957714Y-109272428D01*
X144414857Y-109843857D02*
X144357714Y-109872428D01*
X144243428Y-109872428D01*
X144186285Y-109843857D01*
X144157714Y-109815285D01*
X144129142Y-109758142D01*
X144129142Y-109586714D01*
X144157714Y-109529571D01*
X144186285Y-109501000D01*
X144243428Y-109472428D01*
X144357714Y-109472428D01*
X144414857Y-109501000D01*
X144929142Y-109843857D02*
X144872000Y-109872428D01*
X144757714Y-109872428D01*
X144700571Y-109843857D01*
X144672000Y-109815285D01*
X144643428Y-109758142D01*
X144643428Y-109586714D01*
X144672000Y-109529571D01*
X144700571Y-109501000D01*
X144757714Y-109472428D01*
X144872000Y-109472428D01*
X144929142Y-109501000D01*
X145278571Y-90412857D02*
X145364285Y-90441428D01*
X145507142Y-90441428D01*
X145564285Y-90412857D01*
X145592857Y-90384285D01*
X145621428Y-90327142D01*
X145621428Y-90270000D01*
X145592857Y-90212857D01*
X145564285Y-90184285D01*
X145507142Y-90155714D01*
X145392857Y-90127142D01*
X145335714Y-90098571D01*
X145307142Y-90070000D01*
X145278571Y-90012857D01*
X145278571Y-89955714D01*
X145307142Y-89898571D01*
X145335714Y-89870000D01*
X145392857Y-89841428D01*
X145535714Y-89841428D01*
X145621428Y-89870000D01*
X146221428Y-90384285D02*
X146192857Y-90412857D01*
X146107142Y-90441428D01*
X146050000Y-90441428D01*
X145964285Y-90412857D01*
X145907142Y-90355714D01*
X145878571Y-90298571D01*
X145850000Y-90184285D01*
X145850000Y-90098571D01*
X145878571Y-89984285D01*
X145907142Y-89927142D01*
X145964285Y-89870000D01*
X146050000Y-89841428D01*
X146107142Y-89841428D01*
X146192857Y-89870000D01*
X146221428Y-89898571D01*
X146478571Y-90441428D02*
X146478571Y-89841428D01*
X146821428Y-90441428D02*
X146564285Y-90098571D01*
X146821428Y-89841428D02*
X146478571Y-90184285D01*
X142781428Y-90412857D02*
X142867142Y-90441428D01*
X143010000Y-90441428D01*
X143067142Y-90412857D01*
X143095714Y-90384285D01*
X143124285Y-90327142D01*
X143124285Y-90270000D01*
X143095714Y-90212857D01*
X143067142Y-90184285D01*
X143010000Y-90155714D01*
X142895714Y-90127142D01*
X142838571Y-90098571D01*
X142810000Y-90070000D01*
X142781428Y-90012857D01*
X142781428Y-89955714D01*
X142810000Y-89898571D01*
X142838571Y-89870000D01*
X142895714Y-89841428D01*
X143038571Y-89841428D01*
X143124285Y-89870000D01*
X143381428Y-90441428D02*
X143381428Y-89841428D01*
X143524285Y-89841428D01*
X143610000Y-89870000D01*
X143667142Y-89927142D01*
X143695714Y-89984285D01*
X143724285Y-90098571D01*
X143724285Y-90184285D01*
X143695714Y-90298571D01*
X143667142Y-90355714D01*
X143610000Y-90412857D01*
X143524285Y-90441428D01*
X143381428Y-90441428D01*
X143952857Y-90270000D02*
X144238571Y-90270000D01*
X143895714Y-90441428D02*
X144095714Y-89841428D01*
X144295714Y-90441428D01*
X140255714Y-89841428D02*
X140455714Y-90441428D01*
X140655714Y-89841428D01*
X141112857Y-90412857D02*
X141055714Y-90441428D01*
X140941428Y-90441428D01*
X140884285Y-90412857D01*
X140855714Y-90384285D01*
X140827142Y-90327142D01*
X140827142Y-90155714D01*
X140855714Y-90098571D01*
X140884285Y-90070000D01*
X140941428Y-90041428D01*
X141055714Y-90041428D01*
X141112857Y-90070000D01*
X141627142Y-90412857D02*
X141570000Y-90441428D01*
X141455714Y-90441428D01*
X141398571Y-90412857D01*
X141370000Y-90384285D01*
X141341428Y-90327142D01*
X141341428Y-90155714D01*
X141370000Y-90098571D01*
X141398571Y-90070000D01*
X141455714Y-90041428D01*
X141570000Y-90041428D01*
X141627142Y-90070000D01*
X137972857Y-89870000D02*
X137915714Y-89841428D01*
X137830000Y-89841428D01*
X137744285Y-89870000D01*
X137687142Y-89927142D01*
X137658571Y-89984285D01*
X137630000Y-90098571D01*
X137630000Y-90184285D01*
X137658571Y-90298571D01*
X137687142Y-90355714D01*
X137744285Y-90412857D01*
X137830000Y-90441428D01*
X137887142Y-90441428D01*
X137972857Y-90412857D01*
X138001428Y-90384285D01*
X138001428Y-90184285D01*
X137887142Y-90184285D01*
X138258571Y-90441428D02*
X138258571Y-89841428D01*
X138601428Y-90441428D01*
X138601428Y-89841428D01*
X138887142Y-90441428D02*
X138887142Y-89841428D01*
X139030000Y-89841428D01*
X139115714Y-89870000D01*
X139172857Y-89927142D01*
X139201428Y-89984285D01*
X139230000Y-90098571D01*
X139230000Y-90184285D01*
X139201428Y-90298571D01*
X139172857Y-90355714D01*
X139115714Y-90412857D01*
X139030000Y-90441428D01*
X138887142Y-90441428D01*
X137972857Y-89870000D02*
X137915714Y-89841428D01*
X137830000Y-89841428D01*
X137744285Y-89870000D01*
X137687142Y-89927142D01*
X137658571Y-89984285D01*
X137630000Y-90098571D01*
X137630000Y-90184285D01*
X137658571Y-90298571D01*
X137687142Y-90355714D01*
X137744285Y-90412857D01*
X137830000Y-90441428D01*
X137887142Y-90441428D01*
X137972857Y-90412857D01*
X138001428Y-90384285D01*
X138001428Y-90184285D01*
X137887142Y-90184285D01*
X138258571Y-90441428D02*
X138258571Y-89841428D01*
X138601428Y-90441428D01*
X138601428Y-89841428D01*
X138887142Y-90441428D02*
X138887142Y-89841428D01*
X139030000Y-89841428D01*
X139115714Y-89870000D01*
X139172857Y-89927142D01*
X139201428Y-89984285D01*
X139230000Y-90098571D01*
X139230000Y-90184285D01*
X139201428Y-90298571D01*
X139172857Y-90355714D01*
X139115714Y-90412857D01*
X139030000Y-90441428D01*
X138887142Y-90441428D01*
X128932000Y-90441428D02*
X128732000Y-90155714D01*
X128589142Y-90441428D02*
X128589142Y-89841428D01*
X128817714Y-89841428D01*
X128874857Y-89870000D01*
X128903428Y-89898571D01*
X128932000Y-89955714D01*
X128932000Y-90041428D01*
X128903428Y-90098571D01*
X128874857Y-90127142D01*
X128817714Y-90155714D01*
X128589142Y-90155714D01*
X129132000Y-89841428D02*
X129532000Y-90441428D01*
X129532000Y-89841428D02*
X129132000Y-90441428D01*
X131114857Y-89841428D02*
X131457714Y-89841428D01*
X131286285Y-90441428D02*
X131286285Y-89841428D01*
X131600571Y-89841428D02*
X132000571Y-90441428D01*
X132000571Y-89841428D02*
X131600571Y-90441428D01*
X125777714Y-89841428D02*
X125977714Y-90441428D01*
X126177714Y-89841428D01*
X126634857Y-90412857D02*
X126577714Y-90441428D01*
X126463428Y-90441428D01*
X126406285Y-90412857D01*
X126377714Y-90384285D01*
X126349142Y-90327142D01*
X126349142Y-90155714D01*
X126377714Y-90098571D01*
X126406285Y-90070000D01*
X126463428Y-90041428D01*
X126577714Y-90041428D01*
X126634857Y-90070000D01*
X127149142Y-90412857D02*
X127092000Y-90441428D01*
X126977714Y-90441428D01*
X126920571Y-90412857D01*
X126892000Y-90384285D01*
X126863428Y-90327142D01*
X126863428Y-90155714D01*
X126892000Y-90098571D01*
X126920571Y-90070000D01*
X126977714Y-90041428D01*
X127092000Y-90041428D01*
X127149142Y-90070000D01*
X123494857Y-89870000D02*
X123437714Y-89841428D01*
X123352000Y-89841428D01*
X123266285Y-89870000D01*
X123209142Y-89927142D01*
X123180571Y-89984285D01*
X123152000Y-90098571D01*
X123152000Y-90184285D01*
X123180571Y-90298571D01*
X123209142Y-90355714D01*
X123266285Y-90412857D01*
X123352000Y-90441428D01*
X123409142Y-90441428D01*
X123494857Y-90412857D01*
X123523428Y-90384285D01*
X123523428Y-90184285D01*
X123409142Y-90184285D01*
X123780571Y-90441428D02*
X123780571Y-89841428D01*
X124123428Y-90441428D01*
X124123428Y-89841428D01*
X124409142Y-90441428D02*
X124409142Y-89841428D01*
X124552000Y-89841428D01*
X124637714Y-89870000D01*
X124694857Y-89927142D01*
X124723428Y-89984285D01*
X124752000Y-90098571D01*
X124752000Y-90184285D01*
X124723428Y-90298571D01*
X124694857Y-90355714D01*
X124637714Y-90412857D01*
X124552000Y-90441428D01*
X124409142Y-90441428D01*
X123494857Y-89870000D02*
X123437714Y-89841428D01*
X123352000Y-89841428D01*
X123266285Y-89870000D01*
X123209142Y-89927142D01*
X123180571Y-89984285D01*
X123152000Y-90098571D01*
X123152000Y-90184285D01*
X123180571Y-90298571D01*
X123209142Y-90355714D01*
X123266285Y-90412857D01*
X123352000Y-90441428D01*
X123409142Y-90441428D01*
X123494857Y-90412857D01*
X123523428Y-90384285D01*
X123523428Y-90184285D01*
X123409142Y-90184285D01*
X123780571Y-90441428D02*
X123780571Y-89841428D01*
X124123428Y-90441428D01*
X124123428Y-89841428D01*
X124409142Y-90441428D02*
X124409142Y-89841428D01*
X124552000Y-89841428D01*
X124637714Y-89870000D01*
X124694857Y-89927142D01*
X124723428Y-89984285D01*
X124752000Y-90098571D01*
X124752000Y-90184285D01*
X124723428Y-90298571D01*
X124694857Y-90355714D01*
X124637714Y-90412857D01*
X124552000Y-90441428D01*
X124409142Y-90441428D01*
X111177428Y-102695285D02*
X111777428Y-102495285D01*
X111177428Y-102295285D01*
X111748857Y-101838142D02*
X111777428Y-101895285D01*
X111777428Y-102009571D01*
X111748857Y-102066714D01*
X111720285Y-102095285D01*
X111663142Y-102123857D01*
X111491714Y-102123857D01*
X111434571Y-102095285D01*
X111406000Y-102066714D01*
X111377428Y-102009571D01*
X111377428Y-101895285D01*
X111406000Y-101838142D01*
X111748857Y-101323857D02*
X111777428Y-101381000D01*
X111777428Y-101495285D01*
X111748857Y-101552428D01*
X111720285Y-101581000D01*
X111663142Y-101609571D01*
X111491714Y-101609571D01*
X111434571Y-101581000D01*
X111406000Y-101552428D01*
X111377428Y-101495285D01*
X111377428Y-101381000D01*
X111406000Y-101323857D01*
X111777428Y-105463857D02*
X111177428Y-105463857D01*
X111606000Y-105263857D01*
X111177428Y-105063857D01*
X111777428Y-105063857D01*
X111177428Y-104663857D02*
X111177428Y-104549571D01*
X111206000Y-104492428D01*
X111263142Y-104435285D01*
X111377428Y-104406714D01*
X111577428Y-104406714D01*
X111691714Y-104435285D01*
X111748857Y-104492428D01*
X111777428Y-104549571D01*
X111777428Y-104663857D01*
X111748857Y-104721000D01*
X111691714Y-104778142D01*
X111577428Y-104806714D01*
X111377428Y-104806714D01*
X111263142Y-104778142D01*
X111206000Y-104721000D01*
X111177428Y-104663857D01*
X111748857Y-104178142D02*
X111777428Y-104092428D01*
X111777428Y-103949571D01*
X111748857Y-103892428D01*
X111720285Y-103863857D01*
X111663142Y-103835285D01*
X111606000Y-103835285D01*
X111548857Y-103863857D01*
X111520285Y-103892428D01*
X111491714Y-103949571D01*
X111463142Y-104063857D01*
X111434571Y-104121000D01*
X111406000Y-104149571D01*
X111348857Y-104178142D01*
X111291714Y-104178142D01*
X111234571Y-104149571D01*
X111206000Y-104121000D01*
X111177428Y-104063857D01*
X111177428Y-103921000D01*
X111206000Y-103835285D01*
X111777428Y-103578142D02*
X111177428Y-103578142D01*
X111206000Y-107518142D02*
X111177428Y-107575285D01*
X111177428Y-107661000D01*
X111206000Y-107746714D01*
X111263142Y-107803857D01*
X111320285Y-107832428D01*
X111434571Y-107861000D01*
X111520285Y-107861000D01*
X111634571Y-107832428D01*
X111691714Y-107803857D01*
X111748857Y-107746714D01*
X111777428Y-107661000D01*
X111777428Y-107603857D01*
X111748857Y-107518142D01*
X111720285Y-107489571D01*
X111520285Y-107489571D01*
X111520285Y-107603857D01*
X111777428Y-107232428D02*
X111177428Y-107232428D01*
X111777428Y-106889571D01*
X111177428Y-106889571D01*
X111777428Y-106603857D02*
X111177428Y-106603857D01*
X111177428Y-106461000D01*
X111206000Y-106375285D01*
X111263142Y-106318142D01*
X111320285Y-106289571D01*
X111434571Y-106261000D01*
X111520285Y-106261000D01*
X111634571Y-106289571D01*
X111691714Y-106318142D01*
X111748857Y-106375285D01*
X111777428Y-106461000D01*
X111777428Y-106603857D01*
X117619428Y-107389571D02*
X117333714Y-107589571D01*
X117619428Y-107732428D02*
X117019428Y-107732428D01*
X117019428Y-107503857D01*
X117048000Y-107446714D01*
X117076571Y-107418142D01*
X117133714Y-107389571D01*
X117219428Y-107389571D01*
X117276571Y-107418142D01*
X117305142Y-107446714D01*
X117333714Y-107503857D01*
X117333714Y-107732428D01*
X117590857Y-107161000D02*
X117619428Y-107075285D01*
X117619428Y-106932428D01*
X117590857Y-106875285D01*
X117562285Y-106846714D01*
X117505142Y-106818142D01*
X117448000Y-106818142D01*
X117390857Y-106846714D01*
X117362285Y-106875285D01*
X117333714Y-106932428D01*
X117305142Y-107046714D01*
X117276571Y-107103857D01*
X117248000Y-107132428D01*
X117190857Y-107161000D01*
X117133714Y-107161000D01*
X117076571Y-107132428D01*
X117048000Y-107103857D01*
X117019428Y-107046714D01*
X117019428Y-106903857D01*
X117048000Y-106818142D01*
X117019428Y-106646714D02*
X117019428Y-106303857D01*
X117619428Y-106475285D02*
X117019428Y-106475285D01*
X117590857Y-105292428D02*
X117619428Y-105206714D01*
X117619428Y-105063857D01*
X117590857Y-105006714D01*
X117562285Y-104978142D01*
X117505142Y-104949571D01*
X117448000Y-104949571D01*
X117390857Y-104978142D01*
X117362285Y-105006714D01*
X117333714Y-105063857D01*
X117305142Y-105178142D01*
X117276571Y-105235285D01*
X117248000Y-105263857D01*
X117190857Y-105292428D01*
X117133714Y-105292428D01*
X117076571Y-105263857D01*
X117048000Y-105235285D01*
X117019428Y-105178142D01*
X117019428Y-105035285D01*
X117048000Y-104949571D01*
X117562285Y-104349571D02*
X117590857Y-104378142D01*
X117619428Y-104463857D01*
X117619428Y-104521000D01*
X117590857Y-104606714D01*
X117533714Y-104663857D01*
X117476571Y-104692428D01*
X117362285Y-104721000D01*
X117276571Y-104721000D01*
X117162285Y-104692428D01*
X117105142Y-104663857D01*
X117048000Y-104606714D01*
X117019428Y-104521000D01*
X117019428Y-104463857D01*
X117048000Y-104378142D01*
X117076571Y-104349571D01*
X117619428Y-104092428D02*
X117019428Y-104092428D01*
X117619428Y-103749571D02*
X117276571Y-104006714D01*
X117019428Y-103749571D02*
X117362285Y-104092428D01*
X117619428Y-102923857D02*
X117019428Y-102923857D01*
X117448000Y-102723857D01*
X117019428Y-102523857D01*
X117619428Y-102523857D01*
X117619428Y-102238142D02*
X117019428Y-102238142D01*
X117590857Y-101981000D02*
X117619428Y-101895285D01*
X117619428Y-101752428D01*
X117590857Y-101695285D01*
X117562285Y-101666714D01*
X117505142Y-101638142D01*
X117448000Y-101638142D01*
X117390857Y-101666714D01*
X117362285Y-101695285D01*
X117333714Y-101752428D01*
X117305142Y-101866714D01*
X117276571Y-101923857D01*
X117248000Y-101952428D01*
X117190857Y-101981000D01*
X117133714Y-101981000D01*
X117076571Y-101952428D01*
X117048000Y-101923857D01*
X117019428Y-101866714D01*
X117019428Y-101723857D01*
X117048000Y-101638142D01*
X117019428Y-101266714D02*
X117019428Y-101152428D01*
X117048000Y-101095285D01*
X117105142Y-101038142D01*
X117219428Y-101009571D01*
X117419428Y-101009571D01*
X117533714Y-101038142D01*
X117590857Y-101095285D01*
X117619428Y-101152428D01*
X117619428Y-101266714D01*
X117590857Y-101323857D01*
X117533714Y-101381000D01*
X117419428Y-101409571D01*
X117219428Y-101409571D01*
X117105142Y-101381000D01*
X117048000Y-101323857D01*
X117019428Y-101266714D01*
X112572857Y-98506000D02*
X112515714Y-98477428D01*
X112430000Y-98477428D01*
X112344285Y-98506000D01*
X112287142Y-98563142D01*
X112258571Y-98620285D01*
X112230000Y-98734571D01*
X112230000Y-98820285D01*
X112258571Y-98934571D01*
X112287142Y-98991714D01*
X112344285Y-99048857D01*
X112430000Y-99077428D01*
X112487142Y-99077428D01*
X112572857Y-99048857D01*
X112601428Y-99020285D01*
X112601428Y-98820285D01*
X112487142Y-98820285D01*
X112858571Y-99077428D02*
X112858571Y-98477428D01*
X113201428Y-99077428D01*
X113201428Y-98477428D01*
X113487142Y-99077428D02*
X113487142Y-98477428D01*
X113630000Y-98477428D01*
X113715714Y-98506000D01*
X113772857Y-98563142D01*
X113801428Y-98620285D01*
X113830000Y-98734571D01*
X113830000Y-98820285D01*
X113801428Y-98934571D01*
X113772857Y-98991714D01*
X113715714Y-99048857D01*
X113630000Y-99077428D01*
X113487142Y-99077428D01*
X112734857Y-91609857D02*
X113192000Y-91609857D01*
X112963428Y-91838428D02*
X112963428Y-91381285D01*
X113420571Y-91238428D02*
X113792000Y-91238428D01*
X113592000Y-91467000D01*
X113677714Y-91467000D01*
X113734857Y-91495571D01*
X113763428Y-91524142D01*
X113792000Y-91581285D01*
X113792000Y-91724142D01*
X113763428Y-91781285D01*
X113734857Y-91809857D01*
X113677714Y-91838428D01*
X113506285Y-91838428D01*
X113449142Y-91809857D01*
X113420571Y-91781285D01*
X113963428Y-91238428D02*
X114163428Y-91838428D01*
X114363428Y-91238428D01*
X114506285Y-91238428D02*
X114877714Y-91238428D01*
X114677714Y-91467000D01*
X114763428Y-91467000D01*
X114820571Y-91495571D01*
X114849142Y-91524142D01*
X114877714Y-91581285D01*
X114877714Y-91724142D01*
X114849142Y-91781285D01*
X114820571Y-91809857D01*
X114763428Y-91838428D01*
X114592000Y-91838428D01*
X114534857Y-91809857D01*
X114506285Y-91781285D01*
D11*
X111573000Y-97850000D02*
X114233000Y-97850000D01*
X111573000Y-95250000D02*
X111573000Y-97850000D01*
X114233000Y-95250000D02*
X114233000Y-97850000D01*
X111573000Y-95250000D02*
X114233000Y-95250000D01*
X111573000Y-93980000D02*
X111573000Y-92650000D01*
X111573000Y-92650000D02*
X112903000Y-92650000D01*
X127754748Y-94032000D02*
X128277252Y-94032000D01*
X127754748Y-95452000D02*
X128277252Y-95452000D01*
X127754748Y-91238000D02*
X128277252Y-91238000D01*
X127754748Y-92658000D02*
X128277252Y-92658000D01*
X144010748Y-102187000D02*
X144533252Y-102187000D01*
X144010748Y-100767000D02*
X144533252Y-100767000D01*
X151114000Y-105212000D02*
X148254000Y-105212000D01*
X148254000Y-105212000D02*
X148254000Y-107132000D01*
X148254000Y-107132000D02*
X151114000Y-107132000D01*
X125222000Y-113090000D02*
X125222000Y-110430000D01*
X125222000Y-113090000D02*
X145602000Y-113090000D01*
X145602000Y-113090000D02*
X145602000Y-110430000D01*
X125222000Y-110430000D02*
X145602000Y-110430000D01*
X122622000Y-110430000D02*
X123952000Y-110430000D01*
X122622000Y-111760000D02*
X122622000Y-110430000D01*
X122622000Y-87884000D02*
X122622000Y-86554000D01*
X122622000Y-86554000D02*
X123952000Y-86554000D01*
X125222000Y-86554000D02*
X132902000Y-86554000D01*
X132902000Y-89214000D02*
X132902000Y-86554000D01*
X125222000Y-89214000D02*
X132902000Y-89214000D01*
X125222000Y-89214000D02*
X125222000Y-86554000D01*
X111573000Y-100651000D02*
X114173000Y-100651000D01*
X111573000Y-100651000D02*
X111573000Y-108391000D01*
X111573000Y-108391000D02*
X116773000Y-108391000D01*
X116773000Y-103251000D02*
X116773000Y-108391000D01*
X114173000Y-103251000D02*
X116773000Y-103251000D01*
X114173000Y-100651000D02*
X114173000Y-103251000D01*
X116773000Y-100651000D02*
X116773000Y-101981000D01*
X115443000Y-100651000D02*
X116773000Y-100651000D01*
X139700000Y-89214000D02*
X139700000Y-86554000D01*
X139700000Y-89214000D02*
X147380000Y-89214000D01*
X147380000Y-89214000D02*
X147380000Y-86554000D01*
X139700000Y-86554000D02*
X147380000Y-86554000D01*
X137100000Y-86554000D02*
X138430000Y-86554000D01*
X137100000Y-87884000D02*
X137100000Y-86554000D01*
X144010748Y-105417000D02*
X144533252Y-105417000D01*
X144010748Y-106837000D02*
X144533252Y-106837000D01*
X117990252Y-88024000D02*
X117467748Y-88024000D01*
X117990252Y-89444000D02*
X117467748Y-89444000D01*
D10*
X133775000Y-101004000D02*
X133775000Y-101209000D01*
X139275000Y-101004000D02*
X139275000Y-101304000D01*
X139275000Y-106514000D02*
X139275000Y-106214000D01*
X133775000Y-106514000D02*
X133775000Y-106214000D01*
X133775000Y-101004000D02*
X139275000Y-101004000D01*
X133775000Y-106514000D02*
X139275000Y-106514000D01*
X133775000Y-101209000D02*
X132025000Y-101209000D01*
X133775000Y-93335000D02*
X132025000Y-93335000D01*
X133775000Y-98640000D02*
X139275000Y-98640000D01*
X133775000Y-93130000D02*
X139275000Y-93130000D01*
X133775000Y-98640000D02*
X133775000Y-98340000D01*
X139275000Y-98640000D02*
X139275000Y-98340000D01*
X139275000Y-93130000D02*
X139275000Y-93430000D01*
X133775000Y-93130000D02*
X133775000Y-93335000D01*
X145332000Y-91664000D02*
X145332000Y-92319000D01*
X150832000Y-91664000D02*
X150832000Y-92414000D01*
X150832000Y-98074000D02*
X150832000Y-97324000D01*
X145332000Y-98074000D02*
X145332000Y-97324000D01*
X145332000Y-91664000D02*
X150832000Y-91664000D01*
X145332000Y-98074000D02*
X150832000Y-98074000D01*
X145332000Y-92319000D02*
X143582000Y-92319000D01*
D12*
X122199000Y-98762000D02*
X122099000Y-98762000D01*
X122099000Y-98762000D02*
X121749000Y-99112000D01*
X121749000Y-99112000D02*
X121749000Y-99212000D01*
X121749000Y-99212000D02*
X120449000Y-99212000D01*
X128949000Y-98762000D02*
X128499000Y-98762000D01*
X128949000Y-98762000D02*
X128949000Y-99212000D01*
X128949000Y-105962000D02*
X128949000Y-105512000D01*
X128949000Y-105962000D02*
X128499000Y-105962000D01*
X121749000Y-105962000D02*
X122199000Y-105962000D01*
X121749000Y-105962000D02*
X121749000Y-105512000D01*
D11*
X148929000Y-100777000D02*
X150029000Y-100777000D01*
X148929000Y-102677000D02*
X150029000Y-102677000D01*
X146779000Y-100827000D02*
X146779000Y-102627000D01*
X123179000Y-91098000D02*
X115929000Y-91098000D01*
X115929000Y-91098000D02*
X115929000Y-94698000D01*
X115929000Y-94698000D02*
X123179000Y-94698000D01*
D10*
X111415571Y-91524142D02*
X111501285Y-91552714D01*
X111529857Y-91581285D01*
X111558428Y-91638428D01*
X111558428Y-91724142D01*
X111529857Y-91781285D01*
X111501285Y-91809857D01*
X111444142Y-91838428D01*
X111215571Y-91838428D01*
X111215571Y-91238428D01*
X111415571Y-91238428D01*
X111472714Y-91267000D01*
X111501285Y-91295571D01*
X111529857Y-91352714D01*
X111529857Y-91409857D01*
X111501285Y-91467000D01*
X111472714Y-91495571D01*
X111415571Y-91524142D01*
X111215571Y-91524142D01*
X111729857Y-91238428D02*
X112072714Y-91238428D01*
X111901285Y-91838428D02*
X111901285Y-91238428D01*
X112587000Y-91838428D02*
X112244142Y-91838428D01*
X112415571Y-91838428D02*
X112415571Y-91238428D01*
X112358428Y-91324142D01*
X112301285Y-91381285D01*
X112244142Y-91409857D01*
X115146142Y-97264285D02*
X115174714Y-97178571D01*
X115203285Y-97150000D01*
X115260428Y-97121428D01*
X115346142Y-97121428D01*
X115403285Y-97150000D01*
X115431857Y-97178571D01*
X115460428Y-97235714D01*
X115460428Y-97464285D01*
X114860428Y-97464285D01*
X114860428Y-97264285D01*
X114889000Y-97207142D01*
X114917571Y-97178571D01*
X114974714Y-97150000D01*
X115031857Y-97150000D01*
X115089000Y-97178571D01*
X115117571Y-97207142D01*
X115146142Y-97264285D01*
X115146142Y-97464285D01*
X115460428Y-96607142D02*
X115146142Y-96607142D01*
X115089000Y-96635714D01*
X115060428Y-96692857D01*
X115060428Y-96807142D01*
X115089000Y-96864285D01*
X115431857Y-96607142D02*
X115460428Y-96664285D01*
X115460428Y-96807142D01*
X115431857Y-96864285D01*
X115374714Y-96892857D01*
X115317571Y-96892857D01*
X115260428Y-96864285D01*
X115231857Y-96807142D01*
X115231857Y-96664285D01*
X115203285Y-96607142D01*
X115060428Y-96407142D02*
X115060428Y-96178571D01*
X114860428Y-96321428D02*
X115374714Y-96321428D01*
X115431857Y-96292857D01*
X115460428Y-96235714D01*
X115460428Y-96178571D01*
X115060428Y-96064285D02*
X115060428Y-95835714D01*
X114860428Y-95978571D02*
X115374714Y-95978571D01*
X115431857Y-95950000D01*
X115460428Y-95892857D01*
X115460428Y-95835714D01*
X115431857Y-95407142D02*
X115460428Y-95464285D01*
X115460428Y-95578571D01*
X115431857Y-95635714D01*
X115374714Y-95664285D01*
X115146142Y-95664285D01*
X115089000Y-95635714D01*
X115060428Y-95578571D01*
X115060428Y-95464285D01*
X115089000Y-95407142D01*
X115146142Y-95378571D01*
X115203285Y-95378571D01*
X115260428Y-95664285D01*
X115460428Y-95121428D02*
X115060428Y-95121428D01*
X115174714Y-95121428D02*
X115117571Y-95092857D01*
X115089000Y-95064285D01*
X115060428Y-95007142D01*
X115060428Y-94950000D01*
X115060428Y-94807142D02*
X115460428Y-94664285D01*
X115060428Y-94521428D02*
X115460428Y-94664285D01*
X115603285Y-94721428D01*
X115631857Y-94750000D01*
X115660428Y-94807142D01*
X114860428Y-93892857D02*
X114860428Y-93521428D01*
X115089000Y-93721428D01*
X115089000Y-93635714D01*
X115117571Y-93578571D01*
X115146142Y-93550000D01*
X115203285Y-93521428D01*
X115346142Y-93521428D01*
X115403285Y-93550000D01*
X115431857Y-93578571D01*
X115460428Y-93635714D01*
X115460428Y-93807142D01*
X115431857Y-93864285D01*
X115403285Y-93892857D01*
X114860428Y-93350000D02*
X115460428Y-93150000D01*
X114860428Y-92950000D01*
X130456000Y-94956285D02*
X130427428Y-94984857D01*
X130341714Y-95013428D01*
X130284571Y-95013428D01*
X130198857Y-94984857D01*
X130141714Y-94927714D01*
X130113142Y-94870571D01*
X130084571Y-94756285D01*
X130084571Y-94670571D01*
X130113142Y-94556285D01*
X130141714Y-94499142D01*
X130198857Y-94442000D01*
X130284571Y-94413428D01*
X130341714Y-94413428D01*
X130427428Y-94442000D01*
X130456000Y-94470571D01*
X131027428Y-95013428D02*
X130684571Y-95013428D01*
X130856000Y-95013428D02*
X130856000Y-94413428D01*
X130798857Y-94499142D01*
X130741714Y-94556285D01*
X130684571Y-94584857D01*
X127030285Y-95994571D02*
X127058857Y-95966000D01*
X127116000Y-95937428D01*
X127258857Y-95937428D01*
X127316000Y-95966000D01*
X127344571Y-95994571D01*
X127373142Y-96051714D01*
X127373142Y-96108857D01*
X127344571Y-96194571D01*
X127001714Y-96537428D01*
X127373142Y-96537428D01*
X127601714Y-95994571D02*
X127630285Y-95966000D01*
X127687428Y-95937428D01*
X127830285Y-95937428D01*
X127887428Y-95966000D01*
X127916000Y-95994571D01*
X127944571Y-96051714D01*
X127944571Y-96108857D01*
X127916000Y-96194571D01*
X127573142Y-96537428D01*
X127944571Y-96537428D01*
X128201714Y-96137428D02*
X128201714Y-96737428D01*
X128201714Y-96166000D02*
X128258857Y-96137428D01*
X128373142Y-96137428D01*
X128430285Y-96166000D01*
X128458857Y-96194571D01*
X128487428Y-96251714D01*
X128487428Y-96423142D01*
X128458857Y-96480285D01*
X128430285Y-96508857D01*
X128373142Y-96537428D01*
X128258857Y-96537428D01*
X128201714Y-96508857D01*
X128944571Y-96223142D02*
X128744571Y-96223142D01*
X128744571Y-96537428D02*
X128744571Y-95937428D01*
X129030285Y-95937428D01*
X130456000Y-92035285D02*
X130427428Y-92063857D01*
X130341714Y-92092428D01*
X130284571Y-92092428D01*
X130198857Y-92063857D01*
X130141714Y-92006714D01*
X130113142Y-91949571D01*
X130084571Y-91835285D01*
X130084571Y-91749571D01*
X130113142Y-91635285D01*
X130141714Y-91578142D01*
X130198857Y-91521000D01*
X130284571Y-91492428D01*
X130341714Y-91492428D01*
X130427428Y-91521000D01*
X130456000Y-91549571D01*
X130684571Y-91549571D02*
X130713142Y-91521000D01*
X130770285Y-91492428D01*
X130913142Y-91492428D01*
X130970285Y-91521000D01*
X130998857Y-91549571D01*
X131027428Y-91606714D01*
X131027428Y-91663857D01*
X130998857Y-91749571D01*
X130656000Y-92092428D01*
X131027428Y-92092428D01*
X127030285Y-93073571D02*
X127058857Y-93045000D01*
X127116000Y-93016428D01*
X127258857Y-93016428D01*
X127316000Y-93045000D01*
X127344571Y-93073571D01*
X127373142Y-93130714D01*
X127373142Y-93187857D01*
X127344571Y-93273571D01*
X127001714Y-93616428D01*
X127373142Y-93616428D01*
X127601714Y-93073571D02*
X127630285Y-93045000D01*
X127687428Y-93016428D01*
X127830285Y-93016428D01*
X127887428Y-93045000D01*
X127916000Y-93073571D01*
X127944571Y-93130714D01*
X127944571Y-93187857D01*
X127916000Y-93273571D01*
X127573142Y-93616428D01*
X127944571Y-93616428D01*
X128201714Y-93216428D02*
X128201714Y-93816428D01*
X128201714Y-93245000D02*
X128258857Y-93216428D01*
X128373142Y-93216428D01*
X128430285Y-93245000D01*
X128458857Y-93273571D01*
X128487428Y-93330714D01*
X128487428Y-93502142D01*
X128458857Y-93559285D01*
X128430285Y-93587857D01*
X128373142Y-93616428D01*
X128258857Y-93616428D01*
X128201714Y-93587857D01*
X128944571Y-93302142D02*
X128744571Y-93302142D01*
X128744571Y-93616428D02*
X128744571Y-93016428D01*
X129030285Y-93016428D01*
X144172000Y-100290285D02*
X144143428Y-100318857D01*
X144057714Y-100347428D01*
X144000571Y-100347428D01*
X143914857Y-100318857D01*
X143857714Y-100261714D01*
X143829142Y-100204571D01*
X143800571Y-100090285D01*
X143800571Y-100004571D01*
X143829142Y-99890285D01*
X143857714Y-99833142D01*
X143914857Y-99776000D01*
X144000571Y-99747428D01*
X144057714Y-99747428D01*
X144143428Y-99776000D01*
X144172000Y-99804571D01*
X144372000Y-99747428D02*
X144743428Y-99747428D01*
X144543428Y-99976000D01*
X144629142Y-99976000D01*
X144686285Y-100004571D01*
X144714857Y-100033142D01*
X144743428Y-100090285D01*
X144743428Y-100233142D01*
X144714857Y-100290285D01*
X144686285Y-100318857D01*
X144629142Y-100347428D01*
X144457714Y-100347428D01*
X144400571Y-100318857D01*
X144372000Y-100290285D01*
X149671142Y-104919428D02*
X149671142Y-104319428D01*
X149814000Y-104319428D01*
X149899714Y-104348000D01*
X149956857Y-104405142D01*
X149985428Y-104462285D01*
X150014000Y-104576571D01*
X150014000Y-104662285D01*
X149985428Y-104776571D01*
X149956857Y-104833714D01*
X149899714Y-104890857D01*
X149814000Y-104919428D01*
X149671142Y-104919428D01*
X150585428Y-104919428D02*
X150242571Y-104919428D01*
X150414000Y-104919428D02*
X150414000Y-104319428D01*
X150356857Y-104405142D01*
X150299714Y-104462285D01*
X150242571Y-104490857D01*
X121337428Y-111960000D02*
X121766000Y-111960000D01*
X121851714Y-111988571D01*
X121908857Y-112045714D01*
X121937428Y-112131428D01*
X121937428Y-112188571D01*
X121937428Y-111360000D02*
X121937428Y-111702857D01*
X121937428Y-111531428D02*
X121337428Y-111531428D01*
X121423142Y-111588571D01*
X121480285Y-111645714D01*
X121508857Y-111702857D01*
X121337428Y-88084000D02*
X121766000Y-88084000D01*
X121851714Y-88112571D01*
X121908857Y-88169714D01*
X121937428Y-88255428D01*
X121937428Y-88312571D01*
X121394571Y-87826857D02*
X121366000Y-87798285D01*
X121337428Y-87741142D01*
X121337428Y-87598285D01*
X121366000Y-87541142D01*
X121394571Y-87512571D01*
X121451714Y-87484000D01*
X121508857Y-87484000D01*
X121594571Y-87512571D01*
X121937428Y-87855428D01*
X121937428Y-87484000D01*
X134100857Y-89069714D02*
X134129428Y-88984000D01*
X134129428Y-88841142D01*
X134100857Y-88784000D01*
X134072285Y-88755428D01*
X134015142Y-88726857D01*
X133958000Y-88726857D01*
X133900857Y-88755428D01*
X133872285Y-88784000D01*
X133843714Y-88841142D01*
X133815142Y-88955428D01*
X133786571Y-89012571D01*
X133758000Y-89041142D01*
X133700857Y-89069714D01*
X133643714Y-89069714D01*
X133586571Y-89041142D01*
X133558000Y-89012571D01*
X133529428Y-88955428D01*
X133529428Y-88812571D01*
X133558000Y-88726857D01*
X134100857Y-88241142D02*
X134129428Y-88298285D01*
X134129428Y-88412571D01*
X134100857Y-88469714D01*
X134043714Y-88498285D01*
X133815142Y-88498285D01*
X133758000Y-88469714D01*
X133729428Y-88412571D01*
X133729428Y-88298285D01*
X133758000Y-88241142D01*
X133815142Y-88212571D01*
X133872285Y-88212571D01*
X133929428Y-88498285D01*
X134129428Y-87955428D02*
X133729428Y-87955428D01*
X133843714Y-87955428D02*
X133786571Y-87926857D01*
X133758000Y-87898285D01*
X133729428Y-87841142D01*
X133729428Y-87784000D01*
X134129428Y-87584000D02*
X133729428Y-87584000D01*
X133529428Y-87584000D02*
X133558000Y-87612571D01*
X133586571Y-87584000D01*
X133558000Y-87555428D01*
X133529428Y-87584000D01*
X133586571Y-87584000D01*
X134129428Y-87041142D02*
X133815142Y-87041142D01*
X133758000Y-87069714D01*
X133729428Y-87126857D01*
X133729428Y-87241142D01*
X133758000Y-87298285D01*
X134100857Y-87041142D02*
X134129428Y-87098285D01*
X134129428Y-87241142D01*
X134100857Y-87298285D01*
X134043714Y-87326857D01*
X133986571Y-87326857D01*
X133929428Y-87298285D01*
X133900857Y-87241142D01*
X133900857Y-87098285D01*
X133872285Y-87041142D01*
X134129428Y-86669714D02*
X134100857Y-86726857D01*
X134043714Y-86755428D01*
X133529428Y-86755428D01*
X113973000Y-99366428D02*
X113973000Y-99795000D01*
X113944428Y-99880714D01*
X113887285Y-99937857D01*
X113801571Y-99966428D01*
X113744428Y-99966428D01*
X114201571Y-99366428D02*
X114573000Y-99366428D01*
X114373000Y-99595000D01*
X114458714Y-99595000D01*
X114515857Y-99623571D01*
X114544428Y-99652142D01*
X114573000Y-99709285D01*
X114573000Y-99852142D01*
X114544428Y-99909285D01*
X114515857Y-99937857D01*
X114458714Y-99966428D01*
X114287285Y-99966428D01*
X114230142Y-99937857D01*
X114201571Y-99909285D01*
X113287285Y-109618428D02*
X113287285Y-109018428D01*
X113915857Y-109561285D02*
X113887285Y-109589857D01*
X113801571Y-109618428D01*
X113744428Y-109618428D01*
X113658714Y-109589857D01*
X113601571Y-109532714D01*
X113573000Y-109475571D01*
X113544428Y-109361285D01*
X113544428Y-109275571D01*
X113573000Y-109161285D01*
X113601571Y-109104142D01*
X113658714Y-109047000D01*
X113744428Y-109018428D01*
X113801571Y-109018428D01*
X113887285Y-109047000D01*
X113915857Y-109075571D01*
X114144428Y-109589857D02*
X114230142Y-109618428D01*
X114373000Y-109618428D01*
X114430142Y-109589857D01*
X114458714Y-109561285D01*
X114487285Y-109504142D01*
X114487285Y-109447000D01*
X114458714Y-109389857D01*
X114430142Y-109361285D01*
X114373000Y-109332714D01*
X114258714Y-109304142D01*
X114201571Y-109275571D01*
X114173000Y-109247000D01*
X114144428Y-109189857D01*
X114144428Y-109132714D01*
X114173000Y-109075571D01*
X114201571Y-109047000D01*
X114258714Y-109018428D01*
X114401571Y-109018428D01*
X114487285Y-109047000D01*
X114744428Y-109618428D02*
X114744428Y-109018428D01*
X114973000Y-109018428D01*
X115030142Y-109047000D01*
X115058714Y-109075571D01*
X115087285Y-109132714D01*
X115087285Y-109218428D01*
X115058714Y-109275571D01*
X115030142Y-109304142D01*
X114973000Y-109332714D01*
X114744428Y-109332714D01*
X135815428Y-88084000D02*
X136244000Y-88084000D01*
X136329714Y-88112571D01*
X136386857Y-88169714D01*
X136415428Y-88255428D01*
X136415428Y-88312571D01*
X136015428Y-87541142D02*
X136415428Y-87541142D01*
X135786857Y-87684000D02*
X136215428Y-87826857D01*
X136215428Y-87455428D01*
X148734428Y-88469714D02*
X148134428Y-88469714D01*
X148191571Y-88212571D02*
X148163000Y-88184000D01*
X148134428Y-88126857D01*
X148134428Y-87984000D01*
X148163000Y-87926857D01*
X148191571Y-87898285D01*
X148248714Y-87869714D01*
X148305857Y-87869714D01*
X148391571Y-87898285D01*
X148734428Y-88241142D01*
X148734428Y-87869714D01*
X148677285Y-87269714D02*
X148705857Y-87298285D01*
X148734428Y-87384000D01*
X148734428Y-87441142D01*
X148705857Y-87526857D01*
X148648714Y-87584000D01*
X148591571Y-87612571D01*
X148477285Y-87641142D01*
X148391571Y-87641142D01*
X148277285Y-87612571D01*
X148220142Y-87584000D01*
X148163000Y-87526857D01*
X148134428Y-87441142D01*
X148134428Y-87384000D01*
X148163000Y-87298285D01*
X148191571Y-87269714D01*
X144172000Y-104919428D02*
X143972000Y-104633714D01*
X143829142Y-104919428D02*
X143829142Y-104319428D01*
X144057714Y-104319428D01*
X144114857Y-104348000D01*
X144143428Y-104376571D01*
X144172000Y-104433714D01*
X144172000Y-104519428D01*
X144143428Y-104576571D01*
X144114857Y-104605142D01*
X144057714Y-104633714D01*
X143829142Y-104633714D01*
X144743428Y-104919428D02*
X144400571Y-104919428D01*
X144572000Y-104919428D02*
X144572000Y-104319428D01*
X144514857Y-104405142D01*
X144457714Y-104462285D01*
X144400571Y-104490857D01*
X143200571Y-107240428D02*
X143572000Y-107240428D01*
X143372000Y-107469000D01*
X143457714Y-107469000D01*
X143514857Y-107497571D01*
X143543428Y-107526142D01*
X143572000Y-107583285D01*
X143572000Y-107726142D01*
X143543428Y-107783285D01*
X143514857Y-107811857D01*
X143457714Y-107840428D01*
X143286285Y-107840428D01*
X143229142Y-107811857D01*
X143200571Y-107783285D01*
X143772000Y-107240428D02*
X144143428Y-107240428D01*
X143943428Y-107469000D01*
X144029142Y-107469000D01*
X144086285Y-107497571D01*
X144114857Y-107526142D01*
X144143428Y-107583285D01*
X144143428Y-107726142D01*
X144114857Y-107783285D01*
X144086285Y-107811857D01*
X144029142Y-107840428D01*
X143857714Y-107840428D01*
X143800571Y-107811857D01*
X143772000Y-107783285D01*
X144514857Y-107240428D02*
X144572000Y-107240428D01*
X144629142Y-107269000D01*
X144657714Y-107297571D01*
X144686285Y-107354714D01*
X144714857Y-107469000D01*
X144714857Y-107611857D01*
X144686285Y-107726142D01*
X144657714Y-107783285D01*
X144629142Y-107811857D01*
X144572000Y-107840428D01*
X144514857Y-107840428D01*
X144457714Y-107811857D01*
X144429142Y-107783285D01*
X144400571Y-107726142D01*
X144372000Y-107611857D01*
X144372000Y-107469000D01*
X144400571Y-107354714D01*
X144429142Y-107297571D01*
X144457714Y-107269000D01*
X144514857Y-107240428D01*
X145314857Y-107840428D02*
X145114857Y-107554714D01*
X144972000Y-107840428D02*
X144972000Y-107240428D01*
X145200571Y-107240428D01*
X145257714Y-107269000D01*
X145286285Y-107297571D01*
X145314857Y-107354714D01*
X145314857Y-107440428D01*
X145286285Y-107497571D01*
X145257714Y-107526142D01*
X145200571Y-107554714D01*
X144972000Y-107554714D01*
X116486000Y-90441428D02*
X116286000Y-90155714D01*
X116143142Y-90441428D02*
X116143142Y-89841428D01*
X116371714Y-89841428D01*
X116428857Y-89870000D01*
X116457428Y-89898571D01*
X116486000Y-89955714D01*
X116486000Y-90041428D01*
X116457428Y-90098571D01*
X116428857Y-90127142D01*
X116371714Y-90155714D01*
X116143142Y-90155714D01*
X116714571Y-89898571D02*
X116743142Y-89870000D01*
X116800285Y-89841428D01*
X116943142Y-89841428D01*
X117000285Y-89870000D01*
X117028857Y-89898571D01*
X117057428Y-89955714D01*
X117057428Y-90012857D01*
X117028857Y-90098571D01*
X116686000Y-90441428D01*
X117057428Y-90441428D01*
X116355857Y-87520428D02*
X116013000Y-87520428D01*
X116184428Y-87520428D02*
X116184428Y-86920428D01*
X116127285Y-87006142D01*
X116070142Y-87063285D01*
X116013000Y-87091857D01*
X116727285Y-86920428D02*
X116784428Y-86920428D01*
X116841571Y-86949000D01*
X116870142Y-86977571D01*
X116898714Y-87034714D01*
X116927285Y-87149000D01*
X116927285Y-87291857D01*
X116898714Y-87406142D01*
X116870142Y-87463285D01*
X116841571Y-87491857D01*
X116784428Y-87520428D01*
X116727285Y-87520428D01*
X116670142Y-87491857D01*
X116641571Y-87463285D01*
X116613000Y-87406142D01*
X116584428Y-87291857D01*
X116584428Y-87149000D01*
X116613000Y-87034714D01*
X116641571Y-86977571D01*
X116670142Y-86949000D01*
X116727285Y-86920428D01*
X117184428Y-87520428D02*
X117184428Y-86920428D01*
X117241571Y-87291857D02*
X117413000Y-87520428D01*
X117413000Y-87120428D02*
X117184428Y-87349000D01*
X136067857Y-100001428D02*
X136067857Y-100487142D01*
X136096428Y-100544285D01*
X136125000Y-100572857D01*
X136182142Y-100601428D01*
X136296428Y-100601428D01*
X136353571Y-100572857D01*
X136382142Y-100544285D01*
X136410714Y-100487142D01*
X136410714Y-100001428D01*
X137010714Y-100601428D02*
X136667857Y-100601428D01*
X136839285Y-100601428D02*
X136839285Y-100001428D01*
X136782142Y-100087142D01*
X136725000Y-100144285D01*
X136667857Y-100172857D01*
X134382142Y-106916571D02*
X134410714Y-106888000D01*
X134467857Y-106859428D01*
X134610714Y-106859428D01*
X134667857Y-106888000D01*
X134696428Y-106916571D01*
X134725000Y-106973714D01*
X134725000Y-107030857D01*
X134696428Y-107116571D01*
X134353571Y-107459428D01*
X134725000Y-107459428D01*
X135239285Y-107059428D02*
X135239285Y-107459428D01*
X135096428Y-106830857D02*
X134953571Y-107259428D01*
X135325000Y-107259428D01*
X135839285Y-107459428D02*
X135553571Y-107459428D01*
X135553571Y-106859428D01*
X136382142Y-107402285D02*
X136353571Y-107430857D01*
X136267857Y-107459428D01*
X136210714Y-107459428D01*
X136125000Y-107430857D01*
X136067857Y-107373714D01*
X136039285Y-107316571D01*
X136010714Y-107202285D01*
X136010714Y-107116571D01*
X136039285Y-107002285D01*
X136067857Y-106945142D01*
X136125000Y-106888000D01*
X136210714Y-106859428D01*
X136267857Y-106859428D01*
X136353571Y-106888000D01*
X136382142Y-106916571D01*
X136953571Y-107459428D02*
X136610714Y-107459428D01*
X136782142Y-107459428D02*
X136782142Y-106859428D01*
X136725000Y-106945142D01*
X136667857Y-107002285D01*
X136610714Y-107030857D01*
X137325000Y-106859428D02*
X137382142Y-106859428D01*
X137439285Y-106888000D01*
X137467857Y-106916571D01*
X137496428Y-106973714D01*
X137525000Y-107088000D01*
X137525000Y-107230857D01*
X137496428Y-107345142D01*
X137467857Y-107402285D01*
X137439285Y-107430857D01*
X137382142Y-107459428D01*
X137325000Y-107459428D01*
X137267857Y-107430857D01*
X137239285Y-107402285D01*
X137210714Y-107345142D01*
X137182142Y-107230857D01*
X137182142Y-107088000D01*
X137210714Y-106973714D01*
X137239285Y-106916571D01*
X137267857Y-106888000D01*
X137325000Y-106859428D01*
X137753571Y-106916571D02*
X137782142Y-106888000D01*
X137839285Y-106859428D01*
X137982142Y-106859428D01*
X138039285Y-106888000D01*
X138067857Y-106916571D01*
X138096428Y-106973714D01*
X138096428Y-107030857D01*
X138067857Y-107116571D01*
X137725000Y-107459428D01*
X138096428Y-107459428D01*
X138639285Y-106859428D02*
X138353571Y-106859428D01*
X138325000Y-107145142D01*
X138353571Y-107116571D01*
X138410714Y-107088000D01*
X138553571Y-107088000D01*
X138610714Y-107116571D01*
X138639285Y-107145142D01*
X138667857Y-107202285D01*
X138667857Y-107345142D01*
X138639285Y-107402285D01*
X138610714Y-107430857D01*
X138553571Y-107459428D01*
X138410714Y-107459428D01*
X138353571Y-107430857D01*
X138325000Y-107402285D01*
X136067857Y-92127428D02*
X136067857Y-92613142D01*
X136096428Y-92670285D01*
X136125000Y-92698857D01*
X136182142Y-92727428D01*
X136296428Y-92727428D01*
X136353571Y-92698857D01*
X136382142Y-92670285D01*
X136410714Y-92613142D01*
X136410714Y-92127428D01*
X136667857Y-92184571D02*
X136696428Y-92156000D01*
X136753571Y-92127428D01*
X136896428Y-92127428D01*
X136953571Y-92156000D01*
X136982142Y-92184571D01*
X137010714Y-92241714D01*
X137010714Y-92298857D01*
X136982142Y-92384571D01*
X136639285Y-92727428D01*
X137010714Y-92727428D01*
X134382142Y-99042571D02*
X134410714Y-99014000D01*
X134467857Y-98985428D01*
X134610714Y-98985428D01*
X134667857Y-99014000D01*
X134696428Y-99042571D01*
X134725000Y-99099714D01*
X134725000Y-99156857D01*
X134696428Y-99242571D01*
X134353571Y-99585428D01*
X134725000Y-99585428D01*
X135239285Y-99185428D02*
X135239285Y-99585428D01*
X135096428Y-98956857D02*
X134953571Y-99385428D01*
X135325000Y-99385428D01*
X135839285Y-99585428D02*
X135553571Y-99585428D01*
X135553571Y-98985428D01*
X136382142Y-99528285D02*
X136353571Y-99556857D01*
X136267857Y-99585428D01*
X136210714Y-99585428D01*
X136125000Y-99556857D01*
X136067857Y-99499714D01*
X136039285Y-99442571D01*
X136010714Y-99328285D01*
X136010714Y-99242571D01*
X136039285Y-99128285D01*
X136067857Y-99071142D01*
X136125000Y-99014000D01*
X136210714Y-98985428D01*
X136267857Y-98985428D01*
X136353571Y-99014000D01*
X136382142Y-99042571D01*
X136953571Y-99585428D02*
X136610714Y-99585428D01*
X136782142Y-99585428D02*
X136782142Y-98985428D01*
X136725000Y-99071142D01*
X136667857Y-99128285D01*
X136610714Y-99156857D01*
X137325000Y-98985428D02*
X137382142Y-98985428D01*
X137439285Y-99014000D01*
X137467857Y-99042571D01*
X137496428Y-99099714D01*
X137525000Y-99214000D01*
X137525000Y-99356857D01*
X137496428Y-99471142D01*
X137467857Y-99528285D01*
X137439285Y-99556857D01*
X137382142Y-99585428D01*
X137325000Y-99585428D01*
X137267857Y-99556857D01*
X137239285Y-99528285D01*
X137210714Y-99471142D01*
X137182142Y-99356857D01*
X137182142Y-99214000D01*
X137210714Y-99099714D01*
X137239285Y-99042571D01*
X137267857Y-99014000D01*
X137325000Y-98985428D01*
X137753571Y-99042571D02*
X137782142Y-99014000D01*
X137839285Y-98985428D01*
X137982142Y-98985428D01*
X138039285Y-99014000D01*
X138067857Y-99042571D01*
X138096428Y-99099714D01*
X138096428Y-99156857D01*
X138067857Y-99242571D01*
X137725000Y-99585428D01*
X138096428Y-99585428D01*
X138639285Y-98985428D02*
X138353571Y-98985428D01*
X138325000Y-99271142D01*
X138353571Y-99242571D01*
X138410714Y-99214000D01*
X138553571Y-99214000D01*
X138610714Y-99242571D01*
X138639285Y-99271142D01*
X138667857Y-99328285D01*
X138667857Y-99471142D01*
X138639285Y-99528285D01*
X138610714Y-99556857D01*
X138553571Y-99585428D01*
X138410714Y-99585428D01*
X138353571Y-99556857D01*
X138325000Y-99528285D01*
X147624857Y-90730428D02*
X147624857Y-91216142D01*
X147653428Y-91273285D01*
X147682000Y-91301857D01*
X147739142Y-91330428D01*
X147853428Y-91330428D01*
X147910571Y-91301857D01*
X147939142Y-91273285D01*
X147967714Y-91216142D01*
X147967714Y-90730428D01*
X148196285Y-90730428D02*
X148567714Y-90730428D01*
X148367714Y-90959000D01*
X148453428Y-90959000D01*
X148510571Y-90987571D01*
X148539142Y-91016142D01*
X148567714Y-91073285D01*
X148567714Y-91216142D01*
X148539142Y-91273285D01*
X148510571Y-91301857D01*
X148453428Y-91330428D01*
X148282000Y-91330428D01*
X148224857Y-91301857D01*
X148196285Y-91273285D01*
X145839142Y-99077428D02*
X145839142Y-98477428D01*
X145982000Y-98477428D01*
X146067714Y-98506000D01*
X146124857Y-98563142D01*
X146153428Y-98620285D01*
X146182000Y-98734571D01*
X146182000Y-98820285D01*
X146153428Y-98934571D01*
X146124857Y-98991714D01*
X146067714Y-99048857D01*
X145982000Y-99077428D01*
X145839142Y-99077428D01*
X146410571Y-99048857D02*
X146496285Y-99077428D01*
X146639142Y-99077428D01*
X146696285Y-99048857D01*
X146724857Y-99020285D01*
X146753428Y-98963142D01*
X146753428Y-98906000D01*
X146724857Y-98848857D01*
X146696285Y-98820285D01*
X146639142Y-98791714D01*
X146524857Y-98763142D01*
X146467714Y-98734571D01*
X146439142Y-98706000D01*
X146410571Y-98648857D01*
X146410571Y-98591714D01*
X146439142Y-98534571D01*
X146467714Y-98506000D01*
X146524857Y-98477428D01*
X146667714Y-98477428D01*
X146753428Y-98506000D01*
X147324857Y-99077428D02*
X146982000Y-99077428D01*
X147153428Y-99077428D02*
X147153428Y-98477428D01*
X147096285Y-98563142D01*
X147039142Y-98620285D01*
X146982000Y-98648857D01*
X147524857Y-98477428D02*
X147896285Y-98477428D01*
X147696285Y-98706000D01*
X147782000Y-98706000D01*
X147839142Y-98734571D01*
X147867714Y-98763142D01*
X147896285Y-98820285D01*
X147896285Y-98963142D01*
X147867714Y-99020285D01*
X147839142Y-99048857D01*
X147782000Y-99077428D01*
X147610571Y-99077428D01*
X147553428Y-99048857D01*
X147524857Y-99020285D01*
X148096285Y-98477428D02*
X148467714Y-98477428D01*
X148267714Y-98706000D01*
X148353428Y-98706000D01*
X148410571Y-98734571D01*
X148439142Y-98763142D01*
X148467714Y-98820285D01*
X148467714Y-98963142D01*
X148439142Y-99020285D01*
X148410571Y-99048857D01*
X148353428Y-99077428D01*
X148182000Y-99077428D01*
X148124857Y-99048857D01*
X148096285Y-99020285D01*
X148667714Y-98477428D02*
X149067714Y-98477428D01*
X148810571Y-99077428D01*
X149267714Y-99048857D02*
X149353428Y-99077428D01*
X149496285Y-99077428D01*
X149553428Y-99048857D01*
X149582000Y-99020285D01*
X149610571Y-98963142D01*
X149610571Y-98906000D01*
X149582000Y-98848857D01*
X149553428Y-98820285D01*
X149496285Y-98791714D01*
X149382000Y-98763142D01*
X149324857Y-98734571D01*
X149296285Y-98706000D01*
X149267714Y-98648857D01*
X149267714Y-98591714D01*
X149296285Y-98534571D01*
X149324857Y-98506000D01*
X149382000Y-98477428D01*
X149524857Y-98477428D01*
X149610571Y-98506000D01*
X149867714Y-98848857D02*
X150324857Y-98848857D01*
X150096285Y-99077428D02*
X150096285Y-98620285D01*
X123494857Y-96318428D02*
X123494857Y-96804142D01*
X123523428Y-96861285D01*
X123552000Y-96889857D01*
X123609142Y-96918428D01*
X123723428Y-96918428D01*
X123780571Y-96889857D01*
X123809142Y-96861285D01*
X123837714Y-96804142D01*
X123837714Y-96318428D01*
X124380571Y-96518428D02*
X124380571Y-96918428D01*
X124237714Y-96289857D02*
X124094857Y-96718428D01*
X124466285Y-96718428D01*
X121706142Y-108177000D02*
X121991857Y-108177000D01*
X121649000Y-108348428D02*
X121849000Y-107748428D01*
X122049000Y-108348428D01*
X122163285Y-107748428D02*
X122506142Y-107748428D01*
X122334714Y-108348428D02*
X122334714Y-107748428D01*
X122706142Y-108348428D02*
X122706142Y-107748428D01*
X122906142Y-108177000D01*
X123106142Y-107748428D01*
X123106142Y-108348428D01*
X123391857Y-108034142D02*
X123591857Y-108034142D01*
X123677571Y-108348428D02*
X123391857Y-108348428D01*
X123391857Y-107748428D01*
X123677571Y-107748428D01*
X124249000Y-107777000D02*
X124191857Y-107748428D01*
X124106142Y-107748428D01*
X124020428Y-107777000D01*
X123963285Y-107834142D01*
X123934714Y-107891285D01*
X123906142Y-108005571D01*
X123906142Y-108091285D01*
X123934714Y-108205571D01*
X123963285Y-108262714D01*
X124020428Y-108319857D01*
X124106142Y-108348428D01*
X124163285Y-108348428D01*
X124249000Y-108319857D01*
X124277571Y-108291285D01*
X124277571Y-108091285D01*
X124163285Y-108091285D01*
X124506142Y-108177000D02*
X124791857Y-108177000D01*
X124449000Y-108348428D02*
X124649000Y-107748428D01*
X124849000Y-108348428D01*
X124991857Y-107748428D02*
X125363285Y-107748428D01*
X125163285Y-107977000D01*
X125249000Y-107977000D01*
X125306142Y-108005571D01*
X125334714Y-108034142D01*
X125363285Y-108091285D01*
X125363285Y-108234142D01*
X125334714Y-108291285D01*
X125306142Y-108319857D01*
X125249000Y-108348428D01*
X125077571Y-108348428D01*
X125020428Y-108319857D01*
X124991857Y-108291285D01*
X125591857Y-107805571D02*
X125620428Y-107777000D01*
X125677571Y-107748428D01*
X125820428Y-107748428D01*
X125877571Y-107777000D01*
X125906142Y-107805571D01*
X125934714Y-107862714D01*
X125934714Y-107919857D01*
X125906142Y-108005571D01*
X125563285Y-108348428D01*
X125934714Y-108348428D01*
X126277571Y-108005571D02*
X126220428Y-107977000D01*
X126191857Y-107948428D01*
X126163285Y-107891285D01*
X126163285Y-107862714D01*
X126191857Y-107805571D01*
X126220428Y-107777000D01*
X126277571Y-107748428D01*
X126391857Y-107748428D01*
X126449000Y-107777000D01*
X126477571Y-107805571D01*
X126506142Y-107862714D01*
X126506142Y-107891285D01*
X126477571Y-107948428D01*
X126449000Y-107977000D01*
X126391857Y-108005571D01*
X126277571Y-108005571D01*
X126220428Y-108034142D01*
X126191857Y-108062714D01*
X126163285Y-108119857D01*
X126163285Y-108234142D01*
X126191857Y-108291285D01*
X126220428Y-108319857D01*
X126277571Y-108348428D01*
X126391857Y-108348428D01*
X126449000Y-108319857D01*
X126477571Y-108291285D01*
X126506142Y-108234142D01*
X126506142Y-108119857D01*
X126477571Y-108062714D01*
X126449000Y-108034142D01*
X126391857Y-108005571D01*
X126763285Y-108348428D02*
X126763285Y-107748428D01*
X126991857Y-107748428D01*
X127049000Y-107777000D01*
X127077571Y-107805571D01*
X127106142Y-107862714D01*
X127106142Y-107948428D01*
X127077571Y-108005571D01*
X127049000Y-108034142D01*
X126991857Y-108062714D01*
X126763285Y-108062714D01*
X127363285Y-108119857D02*
X127820428Y-108119857D01*
X128077571Y-108177000D02*
X128363285Y-108177000D01*
X128020428Y-108348428D02*
X128220428Y-107748428D01*
X128420428Y-108348428D01*
X128620428Y-107748428D02*
X128620428Y-108234142D01*
X128649000Y-108291285D01*
X128677571Y-108319857D01*
X128734714Y-108348428D01*
X128849000Y-108348428D01*
X128906142Y-108319857D01*
X128934714Y-108291285D01*
X128963285Y-108234142D01*
X128963285Y-107748428D01*
X149193285Y-100061714D02*
X149193285Y-100347428D01*
X148993285Y-99747428D02*
X149193285Y-100061714D01*
X149393285Y-99747428D01*
X149907571Y-100347428D02*
X149564714Y-100347428D01*
X149736142Y-100347428D02*
X149736142Y-99747428D01*
X149679000Y-99833142D01*
X149621857Y-99890285D01*
X149564714Y-99918857D01*
X146479000Y-103719285D02*
X146450428Y-103747857D01*
X146364714Y-103776428D01*
X146307571Y-103776428D01*
X146221857Y-103747857D01*
X146164714Y-103690714D01*
X146136142Y-103633571D01*
X146107571Y-103519285D01*
X146107571Y-103433571D01*
X146136142Y-103319285D01*
X146164714Y-103262142D01*
X146221857Y-103205000D01*
X146307571Y-103176428D01*
X146364714Y-103176428D01*
X146450428Y-103205000D01*
X146479000Y-103233571D01*
X146736142Y-103776428D02*
X146736142Y-103376428D01*
X146736142Y-103490714D02*
X146764714Y-103433571D01*
X146793285Y-103405000D01*
X146850428Y-103376428D01*
X146907571Y-103376428D01*
X147050428Y-103376428D02*
X147193285Y-103776428D01*
X147336142Y-103376428D02*
X147193285Y-103776428D01*
X147136142Y-103919285D01*
X147107571Y-103947857D01*
X147050428Y-103976428D01*
X147536142Y-103747857D02*
X147593285Y-103776428D01*
X147707571Y-103776428D01*
X147764714Y-103747857D01*
X147793285Y-103690714D01*
X147793285Y-103662142D01*
X147764714Y-103605000D01*
X147707571Y-103576428D01*
X147621857Y-103576428D01*
X147564714Y-103547857D01*
X147536142Y-103490714D01*
X147536142Y-103462142D01*
X147564714Y-103405000D01*
X147621857Y-103376428D01*
X147707571Y-103376428D01*
X147764714Y-103405000D01*
X147964714Y-103376428D02*
X148193285Y-103376428D01*
X148050428Y-103176428D02*
X148050428Y-103690714D01*
X148079000Y-103747857D01*
X148136142Y-103776428D01*
X148193285Y-103776428D01*
X148650428Y-103776428D02*
X148650428Y-103462142D01*
X148621857Y-103405000D01*
X148564714Y-103376428D01*
X148450428Y-103376428D01*
X148393285Y-103405000D01*
X148650428Y-103747857D02*
X148593285Y-103776428D01*
X148450428Y-103776428D01*
X148393285Y-103747857D01*
X148364714Y-103690714D01*
X148364714Y-103633571D01*
X148393285Y-103576428D01*
X148450428Y-103547857D01*
X148593285Y-103547857D01*
X148650428Y-103519285D01*
X149021857Y-103776428D02*
X148964714Y-103747857D01*
X148936142Y-103690714D01*
X148936142Y-103176428D01*
X149650428Y-103176428D02*
X150021857Y-103176428D01*
X149821857Y-103405000D01*
X149907571Y-103405000D01*
X149964714Y-103433571D01*
X149993285Y-103462142D01*
X150021857Y-103519285D01*
X150021857Y-103662142D01*
X149993285Y-103719285D01*
X149964714Y-103747857D01*
X149907571Y-103776428D01*
X149736142Y-103776428D01*
X149679000Y-103747857D01*
X149650428Y-103719285D01*
X150250428Y-103233571D02*
X150279000Y-103205000D01*
X150336142Y-103176428D01*
X150479000Y-103176428D01*
X150536142Y-103205000D01*
X150564714Y-103233571D01*
X150593285Y-103290714D01*
X150593285Y-103347857D01*
X150564714Y-103433571D01*
X150221857Y-103776428D01*
X150593285Y-103776428D01*
X151307571Y-103776428D02*
X151307571Y-103176428D01*
X151507571Y-103605000D01*
X151707571Y-103176428D01*
X151707571Y-103776428D01*
X151993285Y-103776428D02*
X151993285Y-103176428D01*
X151993285Y-103462142D02*
X152336142Y-103462142D01*
X152336142Y-103776428D02*
X152336142Y-103176428D01*
X152564714Y-103376428D02*
X152879000Y-103376428D01*
X152564714Y-103776428D01*
X152879000Y-103776428D01*
X120110285Y-90536714D02*
X120110285Y-90822428D01*
X119910285Y-90222428D02*
X120110285Y-90536714D01*
X120310285Y-90222428D01*
X120481714Y-90279571D02*
X120510285Y-90251000D01*
X120567428Y-90222428D01*
X120710285Y-90222428D01*
X120767428Y-90251000D01*
X120796000Y-90279571D01*
X120824571Y-90336714D01*
X120824571Y-90393857D01*
X120796000Y-90479571D01*
X120453142Y-90822428D01*
X120824571Y-90822428D01*
X117523000Y-95591285D02*
X117494428Y-95619857D01*
X117408714Y-95648428D01*
X117351571Y-95648428D01*
X117265857Y-95619857D01*
X117208714Y-95562714D01*
X117180142Y-95505571D01*
X117151571Y-95391285D01*
X117151571Y-95305571D01*
X117180142Y-95191285D01*
X117208714Y-95134142D01*
X117265857Y-95077000D01*
X117351571Y-95048428D01*
X117408714Y-95048428D01*
X117494428Y-95077000D01*
X117523000Y-95105571D01*
X117780142Y-95648428D02*
X117780142Y-95248428D01*
X117780142Y-95362714D02*
X117808714Y-95305571D01*
X117837285Y-95277000D01*
X117894428Y-95248428D01*
X117951571Y-95248428D01*
X118094428Y-95248428D02*
X118237285Y-95648428D01*
X118380142Y-95248428D02*
X118237285Y-95648428D01*
X118180142Y-95791285D01*
X118151571Y-95819857D01*
X118094428Y-95848428D01*
X118580142Y-95619857D02*
X118637285Y-95648428D01*
X118751571Y-95648428D01*
X118808714Y-95619857D01*
X118837285Y-95562714D01*
X118837285Y-95534142D01*
X118808714Y-95477000D01*
X118751571Y-95448428D01*
X118665857Y-95448428D01*
X118608714Y-95419857D01*
X118580142Y-95362714D01*
X118580142Y-95334142D01*
X118608714Y-95277000D01*
X118665857Y-95248428D01*
X118751571Y-95248428D01*
X118808714Y-95277000D01*
X119008714Y-95248428D02*
X119237285Y-95248428D01*
X119094428Y-95048428D02*
X119094428Y-95562714D01*
X119123000Y-95619857D01*
X119180142Y-95648428D01*
X119237285Y-95648428D01*
X119694428Y-95648428D02*
X119694428Y-95334142D01*
X119665857Y-95277000D01*
X119608714Y-95248428D01*
X119494428Y-95248428D01*
X119437285Y-95277000D01*
X119694428Y-95619857D02*
X119637285Y-95648428D01*
X119494428Y-95648428D01*
X119437285Y-95619857D01*
X119408714Y-95562714D01*
X119408714Y-95505571D01*
X119437285Y-95448428D01*
X119494428Y-95419857D01*
X119637285Y-95419857D01*
X119694428Y-95391285D01*
X120065857Y-95648428D02*
X120008714Y-95619857D01*
X119980142Y-95562714D01*
X119980142Y-95048428D01*
X121065857Y-95648428D02*
X120723000Y-95648428D01*
X120894428Y-95648428D02*
X120894428Y-95048428D01*
X120837285Y-95134142D01*
X120780142Y-95191285D01*
X120723000Y-95219857D01*
X121580142Y-95048428D02*
X121465857Y-95048428D01*
X121408714Y-95077000D01*
X121380142Y-95105571D01*
X121323000Y-95191285D01*
X121294428Y-95305571D01*
X121294428Y-95534142D01*
X121323000Y-95591285D01*
X121351571Y-95619857D01*
X121408714Y-95648428D01*
X121523000Y-95648428D01*
X121580142Y-95619857D01*
X121608714Y-95591285D01*
X121637285Y-95534142D01*
X121637285Y-95391285D01*
X121608714Y-95334142D01*
X121580142Y-95305571D01*
X121523000Y-95277000D01*
X121408714Y-95277000D01*
X121351571Y-95305571D01*
X121323000Y-95334142D01*
X121294428Y-95391285D01*
X122351571Y-95648428D02*
X122351571Y-95048428D01*
X122551571Y-95477000D01*
X122751571Y-95048428D01*
X122751571Y-95648428D01*
X123037285Y-95648428D02*
X123037285Y-95048428D01*
X123037285Y-95334142D02*
X123380142Y-95334142D01*
X123380142Y-95648428D02*
X123380142Y-95048428D01*
X123608714Y-95248428D02*
X123923000Y-95248428D01*
X123608714Y-95648428D01*
X123923000Y-95648428D01*
M02*
