G04 #@! TF.GenerationSoftware,KiCad,Pcbnew,(5.1.4)-1*
G04 #@! TF.CreationDate,2019-09-21T23:44:47+03:00*
G04 #@! TF.ProjectId,Project_3_BACEE,50726f6a-6563-4745-9f33-5f4241434545,v1.0*
G04 #@! TF.SameCoordinates,Original*
G04 #@! TF.FileFunction,Soldermask,Bot*
G04 #@! TF.FilePolarity,Negative*
%FSLAX46Y46*%
G04 Gerber Fmt 4.6, Leading zero omitted, Abs format (unit mm)*
G04 Created by KiCad (PCBNEW (5.1.4)-1) date 2019-09-21 23:44:47*
%MOMM*%
%LPD*%
G04 APERTURE LIST*
%ADD10C,0.100000*%
G04 APERTURE END LIST*
D10*
G36*
X136762442Y-110865518D02*
G01*
X136828627Y-110872037D01*
X136998466Y-110923557D01*
X137154991Y-111007222D01*
X137190729Y-111036552D01*
X137292186Y-111119814D01*
X137375448Y-111221271D01*
X137404778Y-111257009D01*
X137488443Y-111413534D01*
X137539963Y-111583373D01*
X137557359Y-111760000D01*
X137539963Y-111936627D01*
X137488443Y-112106466D01*
X137404778Y-112262991D01*
X137375448Y-112298729D01*
X137292186Y-112400186D01*
X137190729Y-112483448D01*
X137154991Y-112512778D01*
X136998466Y-112596443D01*
X136828627Y-112647963D01*
X136762442Y-112654482D01*
X136696260Y-112661000D01*
X136607740Y-112661000D01*
X136541558Y-112654482D01*
X136475373Y-112647963D01*
X136305534Y-112596443D01*
X136149009Y-112512778D01*
X136113271Y-112483448D01*
X136011814Y-112400186D01*
X135928552Y-112298729D01*
X135899222Y-112262991D01*
X135815557Y-112106466D01*
X135764037Y-111936627D01*
X135746641Y-111760000D01*
X135764037Y-111583373D01*
X135815557Y-111413534D01*
X135899222Y-111257009D01*
X135928552Y-111221271D01*
X136011814Y-111119814D01*
X136113271Y-111036552D01*
X136149009Y-111007222D01*
X136305534Y-110923557D01*
X136475373Y-110872037D01*
X136541558Y-110865518D01*
X136607740Y-110859000D01*
X136696260Y-110859000D01*
X136762442Y-110865518D01*
X136762442Y-110865518D01*
G37*
G36*
X134222442Y-110865518D02*
G01*
X134288627Y-110872037D01*
X134458466Y-110923557D01*
X134614991Y-111007222D01*
X134650729Y-111036552D01*
X134752186Y-111119814D01*
X134835448Y-111221271D01*
X134864778Y-111257009D01*
X134948443Y-111413534D01*
X134999963Y-111583373D01*
X135017359Y-111760000D01*
X134999963Y-111936627D01*
X134948443Y-112106466D01*
X134864778Y-112262991D01*
X134835448Y-112298729D01*
X134752186Y-112400186D01*
X134650729Y-112483448D01*
X134614991Y-112512778D01*
X134458466Y-112596443D01*
X134288627Y-112647963D01*
X134222442Y-112654482D01*
X134156260Y-112661000D01*
X134067740Y-112661000D01*
X134001558Y-112654482D01*
X133935373Y-112647963D01*
X133765534Y-112596443D01*
X133609009Y-112512778D01*
X133573271Y-112483448D01*
X133471814Y-112400186D01*
X133388552Y-112298729D01*
X133359222Y-112262991D01*
X133275557Y-112106466D01*
X133224037Y-111936627D01*
X133206641Y-111760000D01*
X133224037Y-111583373D01*
X133275557Y-111413534D01*
X133359222Y-111257009D01*
X133388552Y-111221271D01*
X133471814Y-111119814D01*
X133573271Y-111036552D01*
X133609009Y-111007222D01*
X133765534Y-110923557D01*
X133935373Y-110872037D01*
X134001558Y-110865518D01*
X134067740Y-110859000D01*
X134156260Y-110859000D01*
X134222442Y-110865518D01*
X134222442Y-110865518D01*
G37*
G36*
X131682442Y-110865518D02*
G01*
X131748627Y-110872037D01*
X131918466Y-110923557D01*
X132074991Y-111007222D01*
X132110729Y-111036552D01*
X132212186Y-111119814D01*
X132295448Y-111221271D01*
X132324778Y-111257009D01*
X132408443Y-111413534D01*
X132459963Y-111583373D01*
X132477359Y-111760000D01*
X132459963Y-111936627D01*
X132408443Y-112106466D01*
X132324778Y-112262991D01*
X132295448Y-112298729D01*
X132212186Y-112400186D01*
X132110729Y-112483448D01*
X132074991Y-112512778D01*
X131918466Y-112596443D01*
X131748627Y-112647963D01*
X131682442Y-112654482D01*
X131616260Y-112661000D01*
X131527740Y-112661000D01*
X131461558Y-112654482D01*
X131395373Y-112647963D01*
X131225534Y-112596443D01*
X131069009Y-112512778D01*
X131033271Y-112483448D01*
X130931814Y-112400186D01*
X130848552Y-112298729D01*
X130819222Y-112262991D01*
X130735557Y-112106466D01*
X130684037Y-111936627D01*
X130666641Y-111760000D01*
X130684037Y-111583373D01*
X130735557Y-111413534D01*
X130819222Y-111257009D01*
X130848552Y-111221271D01*
X130931814Y-111119814D01*
X131033271Y-111036552D01*
X131069009Y-111007222D01*
X131225534Y-110923557D01*
X131395373Y-110872037D01*
X131461558Y-110865518D01*
X131527740Y-110859000D01*
X131616260Y-110859000D01*
X131682442Y-110865518D01*
X131682442Y-110865518D01*
G37*
G36*
X129142442Y-110865518D02*
G01*
X129208627Y-110872037D01*
X129378466Y-110923557D01*
X129534991Y-111007222D01*
X129570729Y-111036552D01*
X129672186Y-111119814D01*
X129755448Y-111221271D01*
X129784778Y-111257009D01*
X129868443Y-111413534D01*
X129919963Y-111583373D01*
X129937359Y-111760000D01*
X129919963Y-111936627D01*
X129868443Y-112106466D01*
X129784778Y-112262991D01*
X129755448Y-112298729D01*
X129672186Y-112400186D01*
X129570729Y-112483448D01*
X129534991Y-112512778D01*
X129378466Y-112596443D01*
X129208627Y-112647963D01*
X129142442Y-112654482D01*
X129076260Y-112661000D01*
X128987740Y-112661000D01*
X128921558Y-112654482D01*
X128855373Y-112647963D01*
X128685534Y-112596443D01*
X128529009Y-112512778D01*
X128493271Y-112483448D01*
X128391814Y-112400186D01*
X128308552Y-112298729D01*
X128279222Y-112262991D01*
X128195557Y-112106466D01*
X128144037Y-111936627D01*
X128126641Y-111760000D01*
X128144037Y-111583373D01*
X128195557Y-111413534D01*
X128279222Y-111257009D01*
X128308552Y-111221271D01*
X128391814Y-111119814D01*
X128493271Y-111036552D01*
X128529009Y-111007222D01*
X128685534Y-110923557D01*
X128855373Y-110872037D01*
X128921558Y-110865518D01*
X128987740Y-110859000D01*
X129076260Y-110859000D01*
X129142442Y-110865518D01*
X129142442Y-110865518D01*
G37*
G36*
X126602442Y-110865518D02*
G01*
X126668627Y-110872037D01*
X126838466Y-110923557D01*
X126994991Y-111007222D01*
X127030729Y-111036552D01*
X127132186Y-111119814D01*
X127215448Y-111221271D01*
X127244778Y-111257009D01*
X127328443Y-111413534D01*
X127379963Y-111583373D01*
X127397359Y-111760000D01*
X127379963Y-111936627D01*
X127328443Y-112106466D01*
X127244778Y-112262991D01*
X127215448Y-112298729D01*
X127132186Y-112400186D01*
X127030729Y-112483448D01*
X126994991Y-112512778D01*
X126838466Y-112596443D01*
X126668627Y-112647963D01*
X126602442Y-112654482D01*
X126536260Y-112661000D01*
X126447740Y-112661000D01*
X126381558Y-112654482D01*
X126315373Y-112647963D01*
X126145534Y-112596443D01*
X125989009Y-112512778D01*
X125953271Y-112483448D01*
X125851814Y-112400186D01*
X125768552Y-112298729D01*
X125739222Y-112262991D01*
X125655557Y-112106466D01*
X125604037Y-111936627D01*
X125586641Y-111760000D01*
X125604037Y-111583373D01*
X125655557Y-111413534D01*
X125739222Y-111257009D01*
X125768552Y-111221271D01*
X125851814Y-111119814D01*
X125953271Y-111036552D01*
X125989009Y-111007222D01*
X126145534Y-110923557D01*
X126315373Y-110872037D01*
X126381558Y-110865518D01*
X126447740Y-110859000D01*
X126536260Y-110859000D01*
X126602442Y-110865518D01*
X126602442Y-110865518D01*
G37*
G36*
X124853000Y-112661000D02*
G01*
X123051000Y-112661000D01*
X123051000Y-110859000D01*
X124853000Y-110859000D01*
X124853000Y-112661000D01*
X124853000Y-112661000D01*
G37*
G36*
X144382442Y-110865518D02*
G01*
X144448627Y-110872037D01*
X144618466Y-110923557D01*
X144774991Y-111007222D01*
X144810729Y-111036552D01*
X144912186Y-111119814D01*
X144995448Y-111221271D01*
X145024778Y-111257009D01*
X145108443Y-111413534D01*
X145159963Y-111583373D01*
X145177359Y-111760000D01*
X145159963Y-111936627D01*
X145108443Y-112106466D01*
X145024778Y-112262991D01*
X144995448Y-112298729D01*
X144912186Y-112400186D01*
X144810729Y-112483448D01*
X144774991Y-112512778D01*
X144618466Y-112596443D01*
X144448627Y-112647963D01*
X144382442Y-112654482D01*
X144316260Y-112661000D01*
X144227740Y-112661000D01*
X144161558Y-112654482D01*
X144095373Y-112647963D01*
X143925534Y-112596443D01*
X143769009Y-112512778D01*
X143733271Y-112483448D01*
X143631814Y-112400186D01*
X143548552Y-112298729D01*
X143519222Y-112262991D01*
X143435557Y-112106466D01*
X143384037Y-111936627D01*
X143366641Y-111760000D01*
X143384037Y-111583373D01*
X143435557Y-111413534D01*
X143519222Y-111257009D01*
X143548552Y-111221271D01*
X143631814Y-111119814D01*
X143733271Y-111036552D01*
X143769009Y-111007222D01*
X143925534Y-110923557D01*
X144095373Y-110872037D01*
X144161558Y-110865518D01*
X144227740Y-110859000D01*
X144316260Y-110859000D01*
X144382442Y-110865518D01*
X144382442Y-110865518D01*
G37*
G36*
X139302442Y-110865518D02*
G01*
X139368627Y-110872037D01*
X139538466Y-110923557D01*
X139694991Y-111007222D01*
X139730729Y-111036552D01*
X139832186Y-111119814D01*
X139915448Y-111221271D01*
X139944778Y-111257009D01*
X140028443Y-111413534D01*
X140079963Y-111583373D01*
X140097359Y-111760000D01*
X140079963Y-111936627D01*
X140028443Y-112106466D01*
X139944778Y-112262991D01*
X139915448Y-112298729D01*
X139832186Y-112400186D01*
X139730729Y-112483448D01*
X139694991Y-112512778D01*
X139538466Y-112596443D01*
X139368627Y-112647963D01*
X139302442Y-112654482D01*
X139236260Y-112661000D01*
X139147740Y-112661000D01*
X139081558Y-112654482D01*
X139015373Y-112647963D01*
X138845534Y-112596443D01*
X138689009Y-112512778D01*
X138653271Y-112483448D01*
X138551814Y-112400186D01*
X138468552Y-112298729D01*
X138439222Y-112262991D01*
X138355557Y-112106466D01*
X138304037Y-111936627D01*
X138286641Y-111760000D01*
X138304037Y-111583373D01*
X138355557Y-111413534D01*
X138439222Y-111257009D01*
X138468552Y-111221271D01*
X138551814Y-111119814D01*
X138653271Y-111036552D01*
X138689009Y-111007222D01*
X138845534Y-110923557D01*
X139015373Y-110872037D01*
X139081558Y-110865518D01*
X139147740Y-110859000D01*
X139236260Y-110859000D01*
X139302442Y-110865518D01*
X139302442Y-110865518D01*
G37*
G36*
X141842442Y-110865518D02*
G01*
X141908627Y-110872037D01*
X142078466Y-110923557D01*
X142234991Y-111007222D01*
X142270729Y-111036552D01*
X142372186Y-111119814D01*
X142455448Y-111221271D01*
X142484778Y-111257009D01*
X142568443Y-111413534D01*
X142619963Y-111583373D01*
X142637359Y-111760000D01*
X142619963Y-111936627D01*
X142568443Y-112106466D01*
X142484778Y-112262991D01*
X142455448Y-112298729D01*
X142372186Y-112400186D01*
X142270729Y-112483448D01*
X142234991Y-112512778D01*
X142078466Y-112596443D01*
X141908627Y-112647963D01*
X141842442Y-112654482D01*
X141776260Y-112661000D01*
X141687740Y-112661000D01*
X141621558Y-112654482D01*
X141555373Y-112647963D01*
X141385534Y-112596443D01*
X141229009Y-112512778D01*
X141193271Y-112483448D01*
X141091814Y-112400186D01*
X141008552Y-112298729D01*
X140979222Y-112262991D01*
X140895557Y-112106466D01*
X140844037Y-111936627D01*
X140826641Y-111760000D01*
X140844037Y-111583373D01*
X140895557Y-111413534D01*
X140979222Y-111257009D01*
X141008552Y-111221271D01*
X141091814Y-111119814D01*
X141193271Y-111036552D01*
X141229009Y-111007222D01*
X141385534Y-110923557D01*
X141555373Y-110872037D01*
X141621558Y-110865518D01*
X141687740Y-110859000D01*
X141776260Y-110859000D01*
X141842442Y-110865518D01*
X141842442Y-110865518D01*
G37*
G36*
X113013442Y-106166518D02*
G01*
X113079627Y-106173037D01*
X113249466Y-106224557D01*
X113405991Y-106308222D01*
X113441729Y-106337552D01*
X113543186Y-106420814D01*
X113626448Y-106522271D01*
X113655778Y-106558009D01*
X113739443Y-106714534D01*
X113790963Y-106884373D01*
X113808359Y-107061000D01*
X113790963Y-107237627D01*
X113739443Y-107407466D01*
X113655778Y-107563991D01*
X113626448Y-107599729D01*
X113543186Y-107701186D01*
X113441729Y-107784448D01*
X113405991Y-107813778D01*
X113249466Y-107897443D01*
X113079627Y-107948963D01*
X113013443Y-107955481D01*
X112947260Y-107962000D01*
X112858740Y-107962000D01*
X112792557Y-107955481D01*
X112726373Y-107948963D01*
X112556534Y-107897443D01*
X112400009Y-107813778D01*
X112364271Y-107784448D01*
X112262814Y-107701186D01*
X112179552Y-107599729D01*
X112150222Y-107563991D01*
X112066557Y-107407466D01*
X112015037Y-107237627D01*
X111997641Y-107061000D01*
X112015037Y-106884373D01*
X112066557Y-106714534D01*
X112150222Y-106558009D01*
X112179552Y-106522271D01*
X112262814Y-106420814D01*
X112364271Y-106337552D01*
X112400009Y-106308222D01*
X112556534Y-106224557D01*
X112726373Y-106173037D01*
X112792558Y-106166518D01*
X112858740Y-106160000D01*
X112947260Y-106160000D01*
X113013442Y-106166518D01*
X113013442Y-106166518D01*
G37*
G36*
X115553442Y-106166518D02*
G01*
X115619627Y-106173037D01*
X115789466Y-106224557D01*
X115945991Y-106308222D01*
X115981729Y-106337552D01*
X116083186Y-106420814D01*
X116166448Y-106522271D01*
X116195778Y-106558009D01*
X116279443Y-106714534D01*
X116330963Y-106884373D01*
X116348359Y-107061000D01*
X116330963Y-107237627D01*
X116279443Y-107407466D01*
X116195778Y-107563991D01*
X116166448Y-107599729D01*
X116083186Y-107701186D01*
X115981729Y-107784448D01*
X115945991Y-107813778D01*
X115789466Y-107897443D01*
X115619627Y-107948963D01*
X115553443Y-107955481D01*
X115487260Y-107962000D01*
X115398740Y-107962000D01*
X115332557Y-107955481D01*
X115266373Y-107948963D01*
X115096534Y-107897443D01*
X114940009Y-107813778D01*
X114904271Y-107784448D01*
X114802814Y-107701186D01*
X114719552Y-107599729D01*
X114690222Y-107563991D01*
X114606557Y-107407466D01*
X114555037Y-107237627D01*
X114537641Y-107061000D01*
X114555037Y-106884373D01*
X114606557Y-106714534D01*
X114690222Y-106558009D01*
X114719552Y-106522271D01*
X114802814Y-106420814D01*
X114904271Y-106337552D01*
X114940009Y-106308222D01*
X115096534Y-106224557D01*
X115266373Y-106173037D01*
X115332558Y-106166518D01*
X115398740Y-106160000D01*
X115487260Y-106160000D01*
X115553442Y-106166518D01*
X115553442Y-106166518D01*
G37*
G36*
X115553442Y-103626518D02*
G01*
X115619627Y-103633037D01*
X115789466Y-103684557D01*
X115945991Y-103768222D01*
X115981729Y-103797552D01*
X116083186Y-103880814D01*
X116166448Y-103982271D01*
X116195778Y-104018009D01*
X116279443Y-104174534D01*
X116330963Y-104344373D01*
X116348359Y-104521000D01*
X116330963Y-104697627D01*
X116279443Y-104867466D01*
X116195778Y-105023991D01*
X116166448Y-105059729D01*
X116083186Y-105161186D01*
X115981729Y-105244448D01*
X115945991Y-105273778D01*
X115789466Y-105357443D01*
X115619627Y-105408963D01*
X115553442Y-105415482D01*
X115487260Y-105422000D01*
X115398740Y-105422000D01*
X115332558Y-105415482D01*
X115266373Y-105408963D01*
X115096534Y-105357443D01*
X114940009Y-105273778D01*
X114904271Y-105244448D01*
X114802814Y-105161186D01*
X114719552Y-105059729D01*
X114690222Y-105023991D01*
X114606557Y-104867466D01*
X114555037Y-104697627D01*
X114537641Y-104521000D01*
X114555037Y-104344373D01*
X114606557Y-104174534D01*
X114690222Y-104018009D01*
X114719552Y-103982271D01*
X114802814Y-103880814D01*
X114904271Y-103797552D01*
X114940009Y-103768222D01*
X115096534Y-103684557D01*
X115266373Y-103633037D01*
X115332558Y-103626518D01*
X115398740Y-103620000D01*
X115487260Y-103620000D01*
X115553442Y-103626518D01*
X115553442Y-103626518D01*
G37*
G36*
X113013442Y-103626518D02*
G01*
X113079627Y-103633037D01*
X113249466Y-103684557D01*
X113405991Y-103768222D01*
X113441729Y-103797552D01*
X113543186Y-103880814D01*
X113626448Y-103982271D01*
X113655778Y-104018009D01*
X113739443Y-104174534D01*
X113790963Y-104344373D01*
X113808359Y-104521000D01*
X113790963Y-104697627D01*
X113739443Y-104867466D01*
X113655778Y-105023991D01*
X113626448Y-105059729D01*
X113543186Y-105161186D01*
X113441729Y-105244448D01*
X113405991Y-105273778D01*
X113249466Y-105357443D01*
X113079627Y-105408963D01*
X113013442Y-105415482D01*
X112947260Y-105422000D01*
X112858740Y-105422000D01*
X112792558Y-105415482D01*
X112726373Y-105408963D01*
X112556534Y-105357443D01*
X112400009Y-105273778D01*
X112364271Y-105244448D01*
X112262814Y-105161186D01*
X112179552Y-105059729D01*
X112150222Y-105023991D01*
X112066557Y-104867466D01*
X112015037Y-104697627D01*
X111997641Y-104521000D01*
X112015037Y-104344373D01*
X112066557Y-104174534D01*
X112150222Y-104018009D01*
X112179552Y-103982271D01*
X112262814Y-103880814D01*
X112364271Y-103797552D01*
X112400009Y-103768222D01*
X112556534Y-103684557D01*
X112726373Y-103633037D01*
X112792558Y-103626518D01*
X112858740Y-103620000D01*
X112947260Y-103620000D01*
X113013442Y-103626518D01*
X113013442Y-103626518D01*
G37*
G36*
X116344000Y-102882000D02*
G01*
X114542000Y-102882000D01*
X114542000Y-101080000D01*
X116344000Y-101080000D01*
X116344000Y-102882000D01*
X116344000Y-102882000D01*
G37*
G36*
X113013443Y-101086519D02*
G01*
X113079627Y-101093037D01*
X113249466Y-101144557D01*
X113405991Y-101228222D01*
X113441729Y-101257552D01*
X113543186Y-101340814D01*
X113626448Y-101442271D01*
X113655778Y-101478009D01*
X113739443Y-101634534D01*
X113790963Y-101804373D01*
X113808359Y-101981000D01*
X113790963Y-102157627D01*
X113739443Y-102327466D01*
X113655778Y-102483991D01*
X113626448Y-102519729D01*
X113543186Y-102621186D01*
X113441729Y-102704448D01*
X113405991Y-102733778D01*
X113249466Y-102817443D01*
X113079627Y-102868963D01*
X113013443Y-102875481D01*
X112947260Y-102882000D01*
X112858740Y-102882000D01*
X112792557Y-102875481D01*
X112726373Y-102868963D01*
X112556534Y-102817443D01*
X112400009Y-102733778D01*
X112364271Y-102704448D01*
X112262814Y-102621186D01*
X112179552Y-102519729D01*
X112150222Y-102483991D01*
X112066557Y-102327466D01*
X112015037Y-102157627D01*
X111997641Y-101981000D01*
X112015037Y-101804373D01*
X112066557Y-101634534D01*
X112150222Y-101478009D01*
X112179552Y-101442271D01*
X112262814Y-101340814D01*
X112364271Y-101257552D01*
X112400009Y-101228222D01*
X112556534Y-101144557D01*
X112726373Y-101093037D01*
X112792557Y-101086519D01*
X112858740Y-101080000D01*
X112947260Y-101080000D01*
X113013443Y-101086519D01*
X113013443Y-101086519D01*
G37*
G36*
X113013442Y-95625518D02*
G01*
X113079627Y-95632037D01*
X113249466Y-95683557D01*
X113405991Y-95767222D01*
X113441729Y-95796552D01*
X113543186Y-95879814D01*
X113626448Y-95981271D01*
X113655778Y-96017009D01*
X113739443Y-96173534D01*
X113790963Y-96343373D01*
X113808359Y-96520000D01*
X113790963Y-96696627D01*
X113739443Y-96866466D01*
X113655778Y-97022991D01*
X113626448Y-97058729D01*
X113543186Y-97160186D01*
X113441729Y-97243448D01*
X113405991Y-97272778D01*
X113249466Y-97356443D01*
X113079627Y-97407963D01*
X113013442Y-97414482D01*
X112947260Y-97421000D01*
X112858740Y-97421000D01*
X112792558Y-97414482D01*
X112726373Y-97407963D01*
X112556534Y-97356443D01*
X112400009Y-97272778D01*
X112364271Y-97243448D01*
X112262814Y-97160186D01*
X112179552Y-97058729D01*
X112150222Y-97022991D01*
X112066557Y-96866466D01*
X112015037Y-96696627D01*
X111997641Y-96520000D01*
X112015037Y-96343373D01*
X112066557Y-96173534D01*
X112150222Y-96017009D01*
X112179552Y-95981271D01*
X112262814Y-95879814D01*
X112364271Y-95796552D01*
X112400009Y-95767222D01*
X112556534Y-95683557D01*
X112726373Y-95632037D01*
X112792558Y-95625518D01*
X112858740Y-95619000D01*
X112947260Y-95619000D01*
X113013442Y-95625518D01*
X113013442Y-95625518D01*
G37*
G36*
X113804000Y-94881000D02*
G01*
X112002000Y-94881000D01*
X112002000Y-93079000D01*
X113804000Y-93079000D01*
X113804000Y-94881000D01*
X113804000Y-94881000D01*
G37*
G36*
X139331000Y-88785000D02*
G01*
X137529000Y-88785000D01*
X137529000Y-86983000D01*
X139331000Y-86983000D01*
X139331000Y-88785000D01*
X139331000Y-88785000D01*
G37*
G36*
X146160443Y-86989519D02*
G01*
X146226627Y-86996037D01*
X146396466Y-87047557D01*
X146552991Y-87131222D01*
X146588729Y-87160552D01*
X146690186Y-87243814D01*
X146773448Y-87345271D01*
X146802778Y-87381009D01*
X146886443Y-87537534D01*
X146937963Y-87707373D01*
X146955359Y-87884000D01*
X146937963Y-88060627D01*
X146886443Y-88230466D01*
X146802778Y-88386991D01*
X146773448Y-88422729D01*
X146690186Y-88524186D01*
X146588729Y-88607448D01*
X146552991Y-88636778D01*
X146396466Y-88720443D01*
X146226627Y-88771963D01*
X146160442Y-88778482D01*
X146094260Y-88785000D01*
X146005740Y-88785000D01*
X145939558Y-88778482D01*
X145873373Y-88771963D01*
X145703534Y-88720443D01*
X145547009Y-88636778D01*
X145511271Y-88607448D01*
X145409814Y-88524186D01*
X145326552Y-88422729D01*
X145297222Y-88386991D01*
X145213557Y-88230466D01*
X145162037Y-88060627D01*
X145144641Y-87884000D01*
X145162037Y-87707373D01*
X145213557Y-87537534D01*
X145297222Y-87381009D01*
X145326552Y-87345271D01*
X145409814Y-87243814D01*
X145511271Y-87160552D01*
X145547009Y-87131222D01*
X145703534Y-87047557D01*
X145873373Y-86996037D01*
X145939557Y-86989519D01*
X146005740Y-86983000D01*
X146094260Y-86983000D01*
X146160443Y-86989519D01*
X146160443Y-86989519D01*
G37*
G36*
X143620443Y-86989519D02*
G01*
X143686627Y-86996037D01*
X143856466Y-87047557D01*
X144012991Y-87131222D01*
X144048729Y-87160552D01*
X144150186Y-87243814D01*
X144233448Y-87345271D01*
X144262778Y-87381009D01*
X144346443Y-87537534D01*
X144397963Y-87707373D01*
X144415359Y-87884000D01*
X144397963Y-88060627D01*
X144346443Y-88230466D01*
X144262778Y-88386991D01*
X144233448Y-88422729D01*
X144150186Y-88524186D01*
X144048729Y-88607448D01*
X144012991Y-88636778D01*
X143856466Y-88720443D01*
X143686627Y-88771963D01*
X143620442Y-88778482D01*
X143554260Y-88785000D01*
X143465740Y-88785000D01*
X143399558Y-88778482D01*
X143333373Y-88771963D01*
X143163534Y-88720443D01*
X143007009Y-88636778D01*
X142971271Y-88607448D01*
X142869814Y-88524186D01*
X142786552Y-88422729D01*
X142757222Y-88386991D01*
X142673557Y-88230466D01*
X142622037Y-88060627D01*
X142604641Y-87884000D01*
X142622037Y-87707373D01*
X142673557Y-87537534D01*
X142757222Y-87381009D01*
X142786552Y-87345271D01*
X142869814Y-87243814D01*
X142971271Y-87160552D01*
X143007009Y-87131222D01*
X143163534Y-87047557D01*
X143333373Y-86996037D01*
X143399557Y-86989519D01*
X143465740Y-86983000D01*
X143554260Y-86983000D01*
X143620443Y-86989519D01*
X143620443Y-86989519D01*
G37*
G36*
X141080443Y-86989519D02*
G01*
X141146627Y-86996037D01*
X141316466Y-87047557D01*
X141472991Y-87131222D01*
X141508729Y-87160552D01*
X141610186Y-87243814D01*
X141693448Y-87345271D01*
X141722778Y-87381009D01*
X141806443Y-87537534D01*
X141857963Y-87707373D01*
X141875359Y-87884000D01*
X141857963Y-88060627D01*
X141806443Y-88230466D01*
X141722778Y-88386991D01*
X141693448Y-88422729D01*
X141610186Y-88524186D01*
X141508729Y-88607448D01*
X141472991Y-88636778D01*
X141316466Y-88720443D01*
X141146627Y-88771963D01*
X141080442Y-88778482D01*
X141014260Y-88785000D01*
X140925740Y-88785000D01*
X140859558Y-88778482D01*
X140793373Y-88771963D01*
X140623534Y-88720443D01*
X140467009Y-88636778D01*
X140431271Y-88607448D01*
X140329814Y-88524186D01*
X140246552Y-88422729D01*
X140217222Y-88386991D01*
X140133557Y-88230466D01*
X140082037Y-88060627D01*
X140064641Y-87884000D01*
X140082037Y-87707373D01*
X140133557Y-87537534D01*
X140217222Y-87381009D01*
X140246552Y-87345271D01*
X140329814Y-87243814D01*
X140431271Y-87160552D01*
X140467009Y-87131222D01*
X140623534Y-87047557D01*
X140793373Y-86996037D01*
X140859557Y-86989519D01*
X140925740Y-86983000D01*
X141014260Y-86983000D01*
X141080443Y-86989519D01*
X141080443Y-86989519D01*
G37*
G36*
X124853000Y-88785000D02*
G01*
X123051000Y-88785000D01*
X123051000Y-86983000D01*
X124853000Y-86983000D01*
X124853000Y-88785000D01*
X124853000Y-88785000D01*
G37*
G36*
X131682443Y-86989519D02*
G01*
X131748627Y-86996037D01*
X131918466Y-87047557D01*
X132074991Y-87131222D01*
X132110729Y-87160552D01*
X132212186Y-87243814D01*
X132295448Y-87345271D01*
X132324778Y-87381009D01*
X132408443Y-87537534D01*
X132459963Y-87707373D01*
X132477359Y-87884000D01*
X132459963Y-88060627D01*
X132408443Y-88230466D01*
X132324778Y-88386991D01*
X132295448Y-88422729D01*
X132212186Y-88524186D01*
X132110729Y-88607448D01*
X132074991Y-88636778D01*
X131918466Y-88720443D01*
X131748627Y-88771963D01*
X131682442Y-88778482D01*
X131616260Y-88785000D01*
X131527740Y-88785000D01*
X131461558Y-88778482D01*
X131395373Y-88771963D01*
X131225534Y-88720443D01*
X131069009Y-88636778D01*
X131033271Y-88607448D01*
X130931814Y-88524186D01*
X130848552Y-88422729D01*
X130819222Y-88386991D01*
X130735557Y-88230466D01*
X130684037Y-88060627D01*
X130666641Y-87884000D01*
X130684037Y-87707373D01*
X130735557Y-87537534D01*
X130819222Y-87381009D01*
X130848552Y-87345271D01*
X130931814Y-87243814D01*
X131033271Y-87160552D01*
X131069009Y-87131222D01*
X131225534Y-87047557D01*
X131395373Y-86996037D01*
X131461557Y-86989519D01*
X131527740Y-86983000D01*
X131616260Y-86983000D01*
X131682443Y-86989519D01*
X131682443Y-86989519D01*
G37*
G36*
X126602443Y-86989519D02*
G01*
X126668627Y-86996037D01*
X126838466Y-87047557D01*
X126994991Y-87131222D01*
X127030729Y-87160552D01*
X127132186Y-87243814D01*
X127215448Y-87345271D01*
X127244778Y-87381009D01*
X127328443Y-87537534D01*
X127379963Y-87707373D01*
X127397359Y-87884000D01*
X127379963Y-88060627D01*
X127328443Y-88230466D01*
X127244778Y-88386991D01*
X127215448Y-88422729D01*
X127132186Y-88524186D01*
X127030729Y-88607448D01*
X126994991Y-88636778D01*
X126838466Y-88720443D01*
X126668627Y-88771963D01*
X126602442Y-88778482D01*
X126536260Y-88785000D01*
X126447740Y-88785000D01*
X126381558Y-88778482D01*
X126315373Y-88771963D01*
X126145534Y-88720443D01*
X125989009Y-88636778D01*
X125953271Y-88607448D01*
X125851814Y-88524186D01*
X125768552Y-88422729D01*
X125739222Y-88386991D01*
X125655557Y-88230466D01*
X125604037Y-88060627D01*
X125586641Y-87884000D01*
X125604037Y-87707373D01*
X125655557Y-87537534D01*
X125739222Y-87381009D01*
X125768552Y-87345271D01*
X125851814Y-87243814D01*
X125953271Y-87160552D01*
X125989009Y-87131222D01*
X126145534Y-87047557D01*
X126315373Y-86996037D01*
X126381557Y-86989519D01*
X126447740Y-86983000D01*
X126536260Y-86983000D01*
X126602443Y-86989519D01*
X126602443Y-86989519D01*
G37*
G36*
X129142443Y-86989519D02*
G01*
X129208627Y-86996037D01*
X129378466Y-87047557D01*
X129534991Y-87131222D01*
X129570729Y-87160552D01*
X129672186Y-87243814D01*
X129755448Y-87345271D01*
X129784778Y-87381009D01*
X129868443Y-87537534D01*
X129919963Y-87707373D01*
X129937359Y-87884000D01*
X129919963Y-88060627D01*
X129868443Y-88230466D01*
X129784778Y-88386991D01*
X129755448Y-88422729D01*
X129672186Y-88524186D01*
X129570729Y-88607448D01*
X129534991Y-88636778D01*
X129378466Y-88720443D01*
X129208627Y-88771963D01*
X129142442Y-88778482D01*
X129076260Y-88785000D01*
X128987740Y-88785000D01*
X128921558Y-88778482D01*
X128855373Y-88771963D01*
X128685534Y-88720443D01*
X128529009Y-88636778D01*
X128493271Y-88607448D01*
X128391814Y-88524186D01*
X128308552Y-88422729D01*
X128279222Y-88386991D01*
X128195557Y-88230466D01*
X128144037Y-88060627D01*
X128126641Y-87884000D01*
X128144037Y-87707373D01*
X128195557Y-87537534D01*
X128279222Y-87381009D01*
X128308552Y-87345271D01*
X128391814Y-87243814D01*
X128493271Y-87160552D01*
X128529009Y-87131222D01*
X128685534Y-87047557D01*
X128855373Y-86996037D01*
X128921557Y-86989519D01*
X128987740Y-86983000D01*
X129076260Y-86983000D01*
X129142443Y-86989519D01*
X129142443Y-86989519D01*
G37*
M02*
