G04 #@! TF.GenerationSoftware,KiCad,Pcbnew,(5.1.4)-1*
G04 #@! TF.CreationDate,2019-09-21T23:44:47+03:00*
G04 #@! TF.ProjectId,Project_3_BACEE,50726f6a-6563-4745-9f33-5f4241434545,v1.0*
G04 #@! TF.SameCoordinates,Original*
G04 #@! TF.FileFunction,Paste,Top*
G04 #@! TF.FilePolarity,Positive*
%FSLAX46Y46*%
G04 Gerber Fmt 4.6, Leading zero omitted, Abs format (unit mm)*
G04 Created by KiCad (PCBNEW (5.1.4)-1) date 2019-09-21 23:44:47*
%MOMM*%
%LPD*%
G04 APERTURE LIST*
%ADD10C,0.100000*%
%ADD11C,1.150000*%
%ADD12R,1.700000X0.650000*%
%ADD13R,1.750000X0.550000*%
%ADD14R,0.550000X1.500000*%
%ADD15R,1.500000X0.550000*%
%ADD16R,1.750000X1.800000*%
%ADD17R,3.500000X2.400000*%
G04 APERTURE END LIST*
D10*
G36*
X127340505Y-94043204D02*
G01*
X127364773Y-94046804D01*
X127388572Y-94052765D01*
X127411671Y-94061030D01*
X127433850Y-94071520D01*
X127454893Y-94084132D01*
X127474599Y-94098747D01*
X127492777Y-94115223D01*
X127509253Y-94133401D01*
X127523868Y-94153107D01*
X127536480Y-94174150D01*
X127546970Y-94196329D01*
X127555235Y-94219428D01*
X127561196Y-94243227D01*
X127564796Y-94267495D01*
X127566000Y-94291999D01*
X127566000Y-95192001D01*
X127564796Y-95216505D01*
X127561196Y-95240773D01*
X127555235Y-95264572D01*
X127546970Y-95287671D01*
X127536480Y-95309850D01*
X127523868Y-95330893D01*
X127509253Y-95350599D01*
X127492777Y-95368777D01*
X127474599Y-95385253D01*
X127454893Y-95399868D01*
X127433850Y-95412480D01*
X127411671Y-95422970D01*
X127388572Y-95431235D01*
X127364773Y-95437196D01*
X127340505Y-95440796D01*
X127316001Y-95442000D01*
X126665999Y-95442000D01*
X126641495Y-95440796D01*
X126617227Y-95437196D01*
X126593428Y-95431235D01*
X126570329Y-95422970D01*
X126548150Y-95412480D01*
X126527107Y-95399868D01*
X126507401Y-95385253D01*
X126489223Y-95368777D01*
X126472747Y-95350599D01*
X126458132Y-95330893D01*
X126445520Y-95309850D01*
X126435030Y-95287671D01*
X126426765Y-95264572D01*
X126420804Y-95240773D01*
X126417204Y-95216505D01*
X126416000Y-95192001D01*
X126416000Y-94291999D01*
X126417204Y-94267495D01*
X126420804Y-94243227D01*
X126426765Y-94219428D01*
X126435030Y-94196329D01*
X126445520Y-94174150D01*
X126458132Y-94153107D01*
X126472747Y-94133401D01*
X126489223Y-94115223D01*
X126507401Y-94098747D01*
X126527107Y-94084132D01*
X126548150Y-94071520D01*
X126570329Y-94061030D01*
X126593428Y-94052765D01*
X126617227Y-94046804D01*
X126641495Y-94043204D01*
X126665999Y-94042000D01*
X127316001Y-94042000D01*
X127340505Y-94043204D01*
X127340505Y-94043204D01*
G37*
D11*
X126991000Y-94742000D03*
D10*
G36*
X129390505Y-94043204D02*
G01*
X129414773Y-94046804D01*
X129438572Y-94052765D01*
X129461671Y-94061030D01*
X129483850Y-94071520D01*
X129504893Y-94084132D01*
X129524599Y-94098747D01*
X129542777Y-94115223D01*
X129559253Y-94133401D01*
X129573868Y-94153107D01*
X129586480Y-94174150D01*
X129596970Y-94196329D01*
X129605235Y-94219428D01*
X129611196Y-94243227D01*
X129614796Y-94267495D01*
X129616000Y-94291999D01*
X129616000Y-95192001D01*
X129614796Y-95216505D01*
X129611196Y-95240773D01*
X129605235Y-95264572D01*
X129596970Y-95287671D01*
X129586480Y-95309850D01*
X129573868Y-95330893D01*
X129559253Y-95350599D01*
X129542777Y-95368777D01*
X129524599Y-95385253D01*
X129504893Y-95399868D01*
X129483850Y-95412480D01*
X129461671Y-95422970D01*
X129438572Y-95431235D01*
X129414773Y-95437196D01*
X129390505Y-95440796D01*
X129366001Y-95442000D01*
X128715999Y-95442000D01*
X128691495Y-95440796D01*
X128667227Y-95437196D01*
X128643428Y-95431235D01*
X128620329Y-95422970D01*
X128598150Y-95412480D01*
X128577107Y-95399868D01*
X128557401Y-95385253D01*
X128539223Y-95368777D01*
X128522747Y-95350599D01*
X128508132Y-95330893D01*
X128495520Y-95309850D01*
X128485030Y-95287671D01*
X128476765Y-95264572D01*
X128470804Y-95240773D01*
X128467204Y-95216505D01*
X128466000Y-95192001D01*
X128466000Y-94291999D01*
X128467204Y-94267495D01*
X128470804Y-94243227D01*
X128476765Y-94219428D01*
X128485030Y-94196329D01*
X128495520Y-94174150D01*
X128508132Y-94153107D01*
X128522747Y-94133401D01*
X128539223Y-94115223D01*
X128557401Y-94098747D01*
X128577107Y-94084132D01*
X128598150Y-94071520D01*
X128620329Y-94061030D01*
X128643428Y-94052765D01*
X128667227Y-94046804D01*
X128691495Y-94043204D01*
X128715999Y-94042000D01*
X129366001Y-94042000D01*
X129390505Y-94043204D01*
X129390505Y-94043204D01*
G37*
D11*
X129041000Y-94742000D03*
D10*
G36*
X127340505Y-91249204D02*
G01*
X127364773Y-91252804D01*
X127388572Y-91258765D01*
X127411671Y-91267030D01*
X127433850Y-91277520D01*
X127454893Y-91290132D01*
X127474599Y-91304747D01*
X127492777Y-91321223D01*
X127509253Y-91339401D01*
X127523868Y-91359107D01*
X127536480Y-91380150D01*
X127546970Y-91402329D01*
X127555235Y-91425428D01*
X127561196Y-91449227D01*
X127564796Y-91473495D01*
X127566000Y-91497999D01*
X127566000Y-92398001D01*
X127564796Y-92422505D01*
X127561196Y-92446773D01*
X127555235Y-92470572D01*
X127546970Y-92493671D01*
X127536480Y-92515850D01*
X127523868Y-92536893D01*
X127509253Y-92556599D01*
X127492777Y-92574777D01*
X127474599Y-92591253D01*
X127454893Y-92605868D01*
X127433850Y-92618480D01*
X127411671Y-92628970D01*
X127388572Y-92637235D01*
X127364773Y-92643196D01*
X127340505Y-92646796D01*
X127316001Y-92648000D01*
X126665999Y-92648000D01*
X126641495Y-92646796D01*
X126617227Y-92643196D01*
X126593428Y-92637235D01*
X126570329Y-92628970D01*
X126548150Y-92618480D01*
X126527107Y-92605868D01*
X126507401Y-92591253D01*
X126489223Y-92574777D01*
X126472747Y-92556599D01*
X126458132Y-92536893D01*
X126445520Y-92515850D01*
X126435030Y-92493671D01*
X126426765Y-92470572D01*
X126420804Y-92446773D01*
X126417204Y-92422505D01*
X126416000Y-92398001D01*
X126416000Y-91497999D01*
X126417204Y-91473495D01*
X126420804Y-91449227D01*
X126426765Y-91425428D01*
X126435030Y-91402329D01*
X126445520Y-91380150D01*
X126458132Y-91359107D01*
X126472747Y-91339401D01*
X126489223Y-91321223D01*
X126507401Y-91304747D01*
X126527107Y-91290132D01*
X126548150Y-91277520D01*
X126570329Y-91267030D01*
X126593428Y-91258765D01*
X126617227Y-91252804D01*
X126641495Y-91249204D01*
X126665999Y-91248000D01*
X127316001Y-91248000D01*
X127340505Y-91249204D01*
X127340505Y-91249204D01*
G37*
D11*
X126991000Y-91948000D03*
D10*
G36*
X129390505Y-91249204D02*
G01*
X129414773Y-91252804D01*
X129438572Y-91258765D01*
X129461671Y-91267030D01*
X129483850Y-91277520D01*
X129504893Y-91290132D01*
X129524599Y-91304747D01*
X129542777Y-91321223D01*
X129559253Y-91339401D01*
X129573868Y-91359107D01*
X129586480Y-91380150D01*
X129596970Y-91402329D01*
X129605235Y-91425428D01*
X129611196Y-91449227D01*
X129614796Y-91473495D01*
X129616000Y-91497999D01*
X129616000Y-92398001D01*
X129614796Y-92422505D01*
X129611196Y-92446773D01*
X129605235Y-92470572D01*
X129596970Y-92493671D01*
X129586480Y-92515850D01*
X129573868Y-92536893D01*
X129559253Y-92556599D01*
X129542777Y-92574777D01*
X129524599Y-92591253D01*
X129504893Y-92605868D01*
X129483850Y-92618480D01*
X129461671Y-92628970D01*
X129438572Y-92637235D01*
X129414773Y-92643196D01*
X129390505Y-92646796D01*
X129366001Y-92648000D01*
X128715999Y-92648000D01*
X128691495Y-92646796D01*
X128667227Y-92643196D01*
X128643428Y-92637235D01*
X128620329Y-92628970D01*
X128598150Y-92618480D01*
X128577107Y-92605868D01*
X128557401Y-92591253D01*
X128539223Y-92574777D01*
X128522747Y-92556599D01*
X128508132Y-92536893D01*
X128495520Y-92515850D01*
X128485030Y-92493671D01*
X128476765Y-92470572D01*
X128470804Y-92446773D01*
X128467204Y-92422505D01*
X128466000Y-92398001D01*
X128466000Y-91497999D01*
X128467204Y-91473495D01*
X128470804Y-91449227D01*
X128476765Y-91425428D01*
X128485030Y-91402329D01*
X128495520Y-91380150D01*
X128508132Y-91359107D01*
X128522747Y-91339401D01*
X128539223Y-91321223D01*
X128557401Y-91304747D01*
X128577107Y-91290132D01*
X128598150Y-91277520D01*
X128620329Y-91267030D01*
X128643428Y-91258765D01*
X128667227Y-91252804D01*
X128691495Y-91249204D01*
X128715999Y-91248000D01*
X129366001Y-91248000D01*
X129390505Y-91249204D01*
X129390505Y-91249204D01*
G37*
D11*
X129041000Y-91948000D03*
D10*
G36*
X145646505Y-100778204D02*
G01*
X145670773Y-100781804D01*
X145694572Y-100787765D01*
X145717671Y-100796030D01*
X145739850Y-100806520D01*
X145760893Y-100819132D01*
X145780599Y-100833747D01*
X145798777Y-100850223D01*
X145815253Y-100868401D01*
X145829868Y-100888107D01*
X145842480Y-100909150D01*
X145852970Y-100931329D01*
X145861235Y-100954428D01*
X145867196Y-100978227D01*
X145870796Y-101002495D01*
X145872000Y-101026999D01*
X145872000Y-101927001D01*
X145870796Y-101951505D01*
X145867196Y-101975773D01*
X145861235Y-101999572D01*
X145852970Y-102022671D01*
X145842480Y-102044850D01*
X145829868Y-102065893D01*
X145815253Y-102085599D01*
X145798777Y-102103777D01*
X145780599Y-102120253D01*
X145760893Y-102134868D01*
X145739850Y-102147480D01*
X145717671Y-102157970D01*
X145694572Y-102166235D01*
X145670773Y-102172196D01*
X145646505Y-102175796D01*
X145622001Y-102177000D01*
X144971999Y-102177000D01*
X144947495Y-102175796D01*
X144923227Y-102172196D01*
X144899428Y-102166235D01*
X144876329Y-102157970D01*
X144854150Y-102147480D01*
X144833107Y-102134868D01*
X144813401Y-102120253D01*
X144795223Y-102103777D01*
X144778747Y-102085599D01*
X144764132Y-102065893D01*
X144751520Y-102044850D01*
X144741030Y-102022671D01*
X144732765Y-101999572D01*
X144726804Y-101975773D01*
X144723204Y-101951505D01*
X144722000Y-101927001D01*
X144722000Y-101026999D01*
X144723204Y-101002495D01*
X144726804Y-100978227D01*
X144732765Y-100954428D01*
X144741030Y-100931329D01*
X144751520Y-100909150D01*
X144764132Y-100888107D01*
X144778747Y-100868401D01*
X144795223Y-100850223D01*
X144813401Y-100833747D01*
X144833107Y-100819132D01*
X144854150Y-100806520D01*
X144876329Y-100796030D01*
X144899428Y-100787765D01*
X144923227Y-100781804D01*
X144947495Y-100778204D01*
X144971999Y-100777000D01*
X145622001Y-100777000D01*
X145646505Y-100778204D01*
X145646505Y-100778204D01*
G37*
D11*
X145297000Y-101477000D03*
D10*
G36*
X143596505Y-100778204D02*
G01*
X143620773Y-100781804D01*
X143644572Y-100787765D01*
X143667671Y-100796030D01*
X143689850Y-100806520D01*
X143710893Y-100819132D01*
X143730599Y-100833747D01*
X143748777Y-100850223D01*
X143765253Y-100868401D01*
X143779868Y-100888107D01*
X143792480Y-100909150D01*
X143802970Y-100931329D01*
X143811235Y-100954428D01*
X143817196Y-100978227D01*
X143820796Y-101002495D01*
X143822000Y-101026999D01*
X143822000Y-101927001D01*
X143820796Y-101951505D01*
X143817196Y-101975773D01*
X143811235Y-101999572D01*
X143802970Y-102022671D01*
X143792480Y-102044850D01*
X143779868Y-102065893D01*
X143765253Y-102085599D01*
X143748777Y-102103777D01*
X143730599Y-102120253D01*
X143710893Y-102134868D01*
X143689850Y-102147480D01*
X143667671Y-102157970D01*
X143644572Y-102166235D01*
X143620773Y-102172196D01*
X143596505Y-102175796D01*
X143572001Y-102177000D01*
X142921999Y-102177000D01*
X142897495Y-102175796D01*
X142873227Y-102172196D01*
X142849428Y-102166235D01*
X142826329Y-102157970D01*
X142804150Y-102147480D01*
X142783107Y-102134868D01*
X142763401Y-102120253D01*
X142745223Y-102103777D01*
X142728747Y-102085599D01*
X142714132Y-102065893D01*
X142701520Y-102044850D01*
X142691030Y-102022671D01*
X142682765Y-101999572D01*
X142676804Y-101975773D01*
X142673204Y-101951505D01*
X142672000Y-101927001D01*
X142672000Y-101026999D01*
X142673204Y-101002495D01*
X142676804Y-100978227D01*
X142682765Y-100954428D01*
X142691030Y-100931329D01*
X142701520Y-100909150D01*
X142714132Y-100888107D01*
X142728747Y-100868401D01*
X142745223Y-100850223D01*
X142763401Y-100833747D01*
X142783107Y-100819132D01*
X142804150Y-100806520D01*
X142826329Y-100796030D01*
X142849428Y-100787765D01*
X142873227Y-100781804D01*
X142897495Y-100778204D01*
X142921999Y-100777000D01*
X143572001Y-100777000D01*
X143596505Y-100778204D01*
X143596505Y-100778204D01*
G37*
D11*
X143247000Y-101477000D03*
D10*
G36*
X149438505Y-105473204D02*
G01*
X149462773Y-105476804D01*
X149486572Y-105482765D01*
X149509671Y-105491030D01*
X149531850Y-105501520D01*
X149552893Y-105514132D01*
X149572599Y-105528747D01*
X149590777Y-105545223D01*
X149607253Y-105563401D01*
X149621868Y-105583107D01*
X149634480Y-105604150D01*
X149644970Y-105626329D01*
X149653235Y-105649428D01*
X149659196Y-105673227D01*
X149662796Y-105697495D01*
X149664000Y-105721999D01*
X149664000Y-106622001D01*
X149662796Y-106646505D01*
X149659196Y-106670773D01*
X149653235Y-106694572D01*
X149644970Y-106717671D01*
X149634480Y-106739850D01*
X149621868Y-106760893D01*
X149607253Y-106780599D01*
X149590777Y-106798777D01*
X149572599Y-106815253D01*
X149552893Y-106829868D01*
X149531850Y-106842480D01*
X149509671Y-106852970D01*
X149486572Y-106861235D01*
X149462773Y-106867196D01*
X149438505Y-106870796D01*
X149414001Y-106872000D01*
X148763999Y-106872000D01*
X148739495Y-106870796D01*
X148715227Y-106867196D01*
X148691428Y-106861235D01*
X148668329Y-106852970D01*
X148646150Y-106842480D01*
X148625107Y-106829868D01*
X148605401Y-106815253D01*
X148587223Y-106798777D01*
X148570747Y-106780599D01*
X148556132Y-106760893D01*
X148543520Y-106739850D01*
X148533030Y-106717671D01*
X148524765Y-106694572D01*
X148518804Y-106670773D01*
X148515204Y-106646505D01*
X148514000Y-106622001D01*
X148514000Y-105721999D01*
X148515204Y-105697495D01*
X148518804Y-105673227D01*
X148524765Y-105649428D01*
X148533030Y-105626329D01*
X148543520Y-105604150D01*
X148556132Y-105583107D01*
X148570747Y-105563401D01*
X148587223Y-105545223D01*
X148605401Y-105528747D01*
X148625107Y-105514132D01*
X148646150Y-105501520D01*
X148668329Y-105491030D01*
X148691428Y-105482765D01*
X148715227Y-105476804D01*
X148739495Y-105473204D01*
X148763999Y-105472000D01*
X149414001Y-105472000D01*
X149438505Y-105473204D01*
X149438505Y-105473204D01*
G37*
D11*
X149089000Y-106172000D03*
D10*
G36*
X151488505Y-105473204D02*
G01*
X151512773Y-105476804D01*
X151536572Y-105482765D01*
X151559671Y-105491030D01*
X151581850Y-105501520D01*
X151602893Y-105514132D01*
X151622599Y-105528747D01*
X151640777Y-105545223D01*
X151657253Y-105563401D01*
X151671868Y-105583107D01*
X151684480Y-105604150D01*
X151694970Y-105626329D01*
X151703235Y-105649428D01*
X151709196Y-105673227D01*
X151712796Y-105697495D01*
X151714000Y-105721999D01*
X151714000Y-106622001D01*
X151712796Y-106646505D01*
X151709196Y-106670773D01*
X151703235Y-106694572D01*
X151694970Y-106717671D01*
X151684480Y-106739850D01*
X151671868Y-106760893D01*
X151657253Y-106780599D01*
X151640777Y-106798777D01*
X151622599Y-106815253D01*
X151602893Y-106829868D01*
X151581850Y-106842480D01*
X151559671Y-106852970D01*
X151536572Y-106861235D01*
X151512773Y-106867196D01*
X151488505Y-106870796D01*
X151464001Y-106872000D01*
X150813999Y-106872000D01*
X150789495Y-106870796D01*
X150765227Y-106867196D01*
X150741428Y-106861235D01*
X150718329Y-106852970D01*
X150696150Y-106842480D01*
X150675107Y-106829868D01*
X150655401Y-106815253D01*
X150637223Y-106798777D01*
X150620747Y-106780599D01*
X150606132Y-106760893D01*
X150593520Y-106739850D01*
X150583030Y-106717671D01*
X150574765Y-106694572D01*
X150568804Y-106670773D01*
X150565204Y-106646505D01*
X150564000Y-106622001D01*
X150564000Y-105721999D01*
X150565204Y-105697495D01*
X150568804Y-105673227D01*
X150574765Y-105649428D01*
X150583030Y-105626329D01*
X150593520Y-105604150D01*
X150606132Y-105583107D01*
X150620747Y-105563401D01*
X150637223Y-105545223D01*
X150655401Y-105528747D01*
X150675107Y-105514132D01*
X150696150Y-105501520D01*
X150718329Y-105491030D01*
X150741428Y-105482765D01*
X150765227Y-105476804D01*
X150789495Y-105473204D01*
X150813999Y-105472000D01*
X151464001Y-105472000D01*
X151488505Y-105473204D01*
X151488505Y-105473204D01*
G37*
D11*
X151139000Y-106172000D03*
D10*
G36*
X143596505Y-105428204D02*
G01*
X143620773Y-105431804D01*
X143644572Y-105437765D01*
X143667671Y-105446030D01*
X143689850Y-105456520D01*
X143710893Y-105469132D01*
X143730599Y-105483747D01*
X143748777Y-105500223D01*
X143765253Y-105518401D01*
X143779868Y-105538107D01*
X143792480Y-105559150D01*
X143802970Y-105581329D01*
X143811235Y-105604428D01*
X143817196Y-105628227D01*
X143820796Y-105652495D01*
X143822000Y-105676999D01*
X143822000Y-106577001D01*
X143820796Y-106601505D01*
X143817196Y-106625773D01*
X143811235Y-106649572D01*
X143802970Y-106672671D01*
X143792480Y-106694850D01*
X143779868Y-106715893D01*
X143765253Y-106735599D01*
X143748777Y-106753777D01*
X143730599Y-106770253D01*
X143710893Y-106784868D01*
X143689850Y-106797480D01*
X143667671Y-106807970D01*
X143644572Y-106816235D01*
X143620773Y-106822196D01*
X143596505Y-106825796D01*
X143572001Y-106827000D01*
X142921999Y-106827000D01*
X142897495Y-106825796D01*
X142873227Y-106822196D01*
X142849428Y-106816235D01*
X142826329Y-106807970D01*
X142804150Y-106797480D01*
X142783107Y-106784868D01*
X142763401Y-106770253D01*
X142745223Y-106753777D01*
X142728747Y-106735599D01*
X142714132Y-106715893D01*
X142701520Y-106694850D01*
X142691030Y-106672671D01*
X142682765Y-106649572D01*
X142676804Y-106625773D01*
X142673204Y-106601505D01*
X142672000Y-106577001D01*
X142672000Y-105676999D01*
X142673204Y-105652495D01*
X142676804Y-105628227D01*
X142682765Y-105604428D01*
X142691030Y-105581329D01*
X142701520Y-105559150D01*
X142714132Y-105538107D01*
X142728747Y-105518401D01*
X142745223Y-105500223D01*
X142763401Y-105483747D01*
X142783107Y-105469132D01*
X142804150Y-105456520D01*
X142826329Y-105446030D01*
X142849428Y-105437765D01*
X142873227Y-105431804D01*
X142897495Y-105428204D01*
X142921999Y-105427000D01*
X143572001Y-105427000D01*
X143596505Y-105428204D01*
X143596505Y-105428204D01*
G37*
D11*
X143247000Y-106127000D03*
D10*
G36*
X145646505Y-105428204D02*
G01*
X145670773Y-105431804D01*
X145694572Y-105437765D01*
X145717671Y-105446030D01*
X145739850Y-105456520D01*
X145760893Y-105469132D01*
X145780599Y-105483747D01*
X145798777Y-105500223D01*
X145815253Y-105518401D01*
X145829868Y-105538107D01*
X145842480Y-105559150D01*
X145852970Y-105581329D01*
X145861235Y-105604428D01*
X145867196Y-105628227D01*
X145870796Y-105652495D01*
X145872000Y-105676999D01*
X145872000Y-106577001D01*
X145870796Y-106601505D01*
X145867196Y-106625773D01*
X145861235Y-106649572D01*
X145852970Y-106672671D01*
X145842480Y-106694850D01*
X145829868Y-106715893D01*
X145815253Y-106735599D01*
X145798777Y-106753777D01*
X145780599Y-106770253D01*
X145760893Y-106784868D01*
X145739850Y-106797480D01*
X145717671Y-106807970D01*
X145694572Y-106816235D01*
X145670773Y-106822196D01*
X145646505Y-106825796D01*
X145622001Y-106827000D01*
X144971999Y-106827000D01*
X144947495Y-106825796D01*
X144923227Y-106822196D01*
X144899428Y-106816235D01*
X144876329Y-106807970D01*
X144854150Y-106797480D01*
X144833107Y-106784868D01*
X144813401Y-106770253D01*
X144795223Y-106753777D01*
X144778747Y-106735599D01*
X144764132Y-106715893D01*
X144751520Y-106694850D01*
X144741030Y-106672671D01*
X144732765Y-106649572D01*
X144726804Y-106625773D01*
X144723204Y-106601505D01*
X144722000Y-106577001D01*
X144722000Y-105676999D01*
X144723204Y-105652495D01*
X144726804Y-105628227D01*
X144732765Y-105604428D01*
X144741030Y-105581329D01*
X144751520Y-105559150D01*
X144764132Y-105538107D01*
X144778747Y-105518401D01*
X144795223Y-105500223D01*
X144813401Y-105483747D01*
X144833107Y-105469132D01*
X144854150Y-105456520D01*
X144876329Y-105446030D01*
X144899428Y-105437765D01*
X144923227Y-105431804D01*
X144947495Y-105428204D01*
X144971999Y-105427000D01*
X145622001Y-105427000D01*
X145646505Y-105428204D01*
X145646505Y-105428204D01*
G37*
D11*
X145297000Y-106127000D03*
D10*
G36*
X117053505Y-88035204D02*
G01*
X117077773Y-88038804D01*
X117101572Y-88044765D01*
X117124671Y-88053030D01*
X117146850Y-88063520D01*
X117167893Y-88076132D01*
X117187599Y-88090747D01*
X117205777Y-88107223D01*
X117222253Y-88125401D01*
X117236868Y-88145107D01*
X117249480Y-88166150D01*
X117259970Y-88188329D01*
X117268235Y-88211428D01*
X117274196Y-88235227D01*
X117277796Y-88259495D01*
X117279000Y-88283999D01*
X117279000Y-89184001D01*
X117277796Y-89208505D01*
X117274196Y-89232773D01*
X117268235Y-89256572D01*
X117259970Y-89279671D01*
X117249480Y-89301850D01*
X117236868Y-89322893D01*
X117222253Y-89342599D01*
X117205777Y-89360777D01*
X117187599Y-89377253D01*
X117167893Y-89391868D01*
X117146850Y-89404480D01*
X117124671Y-89414970D01*
X117101572Y-89423235D01*
X117077773Y-89429196D01*
X117053505Y-89432796D01*
X117029001Y-89434000D01*
X116378999Y-89434000D01*
X116354495Y-89432796D01*
X116330227Y-89429196D01*
X116306428Y-89423235D01*
X116283329Y-89414970D01*
X116261150Y-89404480D01*
X116240107Y-89391868D01*
X116220401Y-89377253D01*
X116202223Y-89360777D01*
X116185747Y-89342599D01*
X116171132Y-89322893D01*
X116158520Y-89301850D01*
X116148030Y-89279671D01*
X116139765Y-89256572D01*
X116133804Y-89232773D01*
X116130204Y-89208505D01*
X116129000Y-89184001D01*
X116129000Y-88283999D01*
X116130204Y-88259495D01*
X116133804Y-88235227D01*
X116139765Y-88211428D01*
X116148030Y-88188329D01*
X116158520Y-88166150D01*
X116171132Y-88145107D01*
X116185747Y-88125401D01*
X116202223Y-88107223D01*
X116220401Y-88090747D01*
X116240107Y-88076132D01*
X116261150Y-88063520D01*
X116283329Y-88053030D01*
X116306428Y-88044765D01*
X116330227Y-88038804D01*
X116354495Y-88035204D01*
X116378999Y-88034000D01*
X117029001Y-88034000D01*
X117053505Y-88035204D01*
X117053505Y-88035204D01*
G37*
D11*
X116704000Y-88734000D03*
D10*
G36*
X119103505Y-88035204D02*
G01*
X119127773Y-88038804D01*
X119151572Y-88044765D01*
X119174671Y-88053030D01*
X119196850Y-88063520D01*
X119217893Y-88076132D01*
X119237599Y-88090747D01*
X119255777Y-88107223D01*
X119272253Y-88125401D01*
X119286868Y-88145107D01*
X119299480Y-88166150D01*
X119309970Y-88188329D01*
X119318235Y-88211428D01*
X119324196Y-88235227D01*
X119327796Y-88259495D01*
X119329000Y-88283999D01*
X119329000Y-89184001D01*
X119327796Y-89208505D01*
X119324196Y-89232773D01*
X119318235Y-89256572D01*
X119309970Y-89279671D01*
X119299480Y-89301850D01*
X119286868Y-89322893D01*
X119272253Y-89342599D01*
X119255777Y-89360777D01*
X119237599Y-89377253D01*
X119217893Y-89391868D01*
X119196850Y-89404480D01*
X119174671Y-89414970D01*
X119151572Y-89423235D01*
X119127773Y-89429196D01*
X119103505Y-89432796D01*
X119079001Y-89434000D01*
X118428999Y-89434000D01*
X118404495Y-89432796D01*
X118380227Y-89429196D01*
X118356428Y-89423235D01*
X118333329Y-89414970D01*
X118311150Y-89404480D01*
X118290107Y-89391868D01*
X118270401Y-89377253D01*
X118252223Y-89360777D01*
X118235747Y-89342599D01*
X118221132Y-89322893D01*
X118208520Y-89301850D01*
X118198030Y-89279671D01*
X118189765Y-89256572D01*
X118183804Y-89232773D01*
X118180204Y-89208505D01*
X118179000Y-89184001D01*
X118179000Y-88283999D01*
X118180204Y-88259495D01*
X118183804Y-88235227D01*
X118189765Y-88211428D01*
X118198030Y-88188329D01*
X118208520Y-88166150D01*
X118221132Y-88145107D01*
X118235747Y-88125401D01*
X118252223Y-88107223D01*
X118270401Y-88090747D01*
X118290107Y-88076132D01*
X118311150Y-88063520D01*
X118333329Y-88053030D01*
X118356428Y-88044765D01*
X118380227Y-88038804D01*
X118404495Y-88035204D01*
X118428999Y-88034000D01*
X119079001Y-88034000D01*
X119103505Y-88035204D01*
X119103505Y-88035204D01*
G37*
D11*
X118754000Y-88734000D03*
D12*
X132875000Y-101854000D03*
X132875000Y-103124000D03*
X132875000Y-104394000D03*
X132875000Y-105664000D03*
X140175000Y-105664000D03*
X140175000Y-104394000D03*
X140175000Y-103124000D03*
X140175000Y-101854000D03*
X140175000Y-93980000D03*
X140175000Y-95250000D03*
X140175000Y-96520000D03*
X140175000Y-97790000D03*
X132875000Y-97790000D03*
X132875000Y-96520000D03*
X132875000Y-95250000D03*
X132875000Y-93980000D03*
D13*
X144382000Y-92964000D03*
X144382000Y-94234000D03*
X144382000Y-95504000D03*
X144382000Y-96774000D03*
X151782000Y-96774000D03*
X151782000Y-95504000D03*
X151782000Y-94234000D03*
X151782000Y-92964000D03*
D14*
X122549000Y-106562000D03*
D15*
X121149000Y-99562000D03*
X121149000Y-100362000D03*
X121149000Y-101162000D03*
X121149000Y-101962000D03*
X121149000Y-102762000D03*
X121149000Y-103562000D03*
X121149000Y-104362000D03*
X121149000Y-105162000D03*
D14*
X123349000Y-106562000D03*
X124149000Y-106562000D03*
X124949000Y-106562000D03*
X125749000Y-106562000D03*
X126549000Y-106562000D03*
X127349000Y-106562000D03*
X128149000Y-106562000D03*
D15*
X129549000Y-105162000D03*
X129549000Y-104362000D03*
X129549000Y-103562000D03*
X129549000Y-102762000D03*
X129549000Y-101962000D03*
X129549000Y-101162000D03*
X129549000Y-100362000D03*
X129549000Y-99562000D03*
D14*
X128149000Y-98162000D03*
X127349000Y-98162000D03*
X126549000Y-98162000D03*
X125749000Y-98162000D03*
X124949000Y-98162000D03*
X124149000Y-98162000D03*
X123349000Y-98162000D03*
X122549000Y-98162000D03*
D16*
X147854000Y-101727000D03*
X151104000Y-101727000D03*
D17*
X117879000Y-92898000D03*
X123079000Y-92898000D03*
M02*
